<svg width="48" height="48" version="1.1" viewBox="0 0 12.7 12.7" xmlns="http://www.w3.org/2000/svg"><path d="m-.043.07h12.7v12.7h-12.7z" fill="#3e6182"/><g fill="#fff"><path d="m3.73 1.56q.254.466.579 1.16.339.677.691 1.48.367.79.72 1.62t.663 1.57q.31-.734.663-1.57.353-.833.706-1.62.367-.804.691-1.48.339-.691.593-1.16h2q.141.974.254 2.19.127 1.2.212 2.51.099 1.3.169 2.61.085 1.31.141 2.47h-2.14q-.042-1.42-.113-3.1t-.212-3.39q-.254.593-.564 1.31-.31.72-.621 1.44-.296.72-.579 1.38-.282.649-.48 1.12h-1.54q-.198-.466-.48-1.12-.282-.663-.593-1.38-.296-.72-.607-1.44-.31-.72-.564-1.31-.141 1.71-.212 3.39-.071 1.68-.113 3.1h-2.14q.056-1.16.127-2.47.085-1.31.169-2.61.099-1.31.212-2.51.127-1.21.268-2.19z"/><path d="m1.51 1.43-.016.113-.27 2.19-.211 2.52-.17 2.61v.002l-.126 2.47-.008.139h2.41l.002-.127.113-3.1.176-2.83.348.803.605 1.44v.002l1.07 2.5.035.082h1.71l.035-.082.479-1.11.578-1.38.002-.002.619-1.44.346-.803.176 2.83.113 3.1.004.127h2.41l-.006-.139-.141-2.47v-.002l-.17-2.61v-.002l-.213-2.51v-.003l-.254-2.19-.016-.113h-2.2l-.039.068-.594 1.16-.002.002-.691 1.48-.707 1.62-.541 1.28-.541-1.28-.721-1.62-.002-.004-.691-1.48-.002-.002-.58-1.16-.037-.068h-.08zm.232.266h1.9l.539 1.08.002.002v.002l.688 1.48.002.002.719 1.62.662 1.57.123.289.121-.289.664-1.57.703-1.62v-.003l.691-1.48h-.002l.555-1.08h1.81l.238 2.07v.002l.213 2.51v.002l.168 2.61v.002l.133 2.33h-1.88l-.109-2.98-.213-3.39-.252-.043-.564 1.31-.623 1.44-.578 1.38h.002l-.445 1.04h-1.37l-.445-1.04-.592-1.38v-.002l-.607-1.44-.564-1.31-.254.043-.211 3.39-.109 2.98h-1.88l.119-2.33v-.002l.17-2.61v-.002l.211-2.51v-.002l.254-2.07z" fill="#000"/></g></svg>
