<?xml version="1.0" encoding="UTF-8" standalone="no"?>
<svg
   width="48"
   height="48"
   version="1.1"
   viewBox="0 0 12.7 12.7"
   id="svg3"
   sodipodi:docname="favicon.svg"
   inkscape:version="1.3.2 (091e20ef0f, 2023-11-25)"
   xmlns:inkscape="http://www.inkscape.org/namespaces/inkscape"
   xmlns:sodipodi="http://sodipodi.sourceforge.net/DTD/sodipodi-0.dtd"
   xmlns="http://www.w3.org/2000/svg"
   xmlns:svg="http://www.w3.org/2000/svg">
  <defs
     id="defs3" />
  <sodipodi:namedview
     id="namedview3"
     pagecolor="#ffffff"
     bordercolor="#000000"
     borderopacity="0.25"
     inkscape:showpageshadow="2"
     inkscape:pageopacity="0.0"
     inkscape:pagecheckerboard="0"
     inkscape:deskcolor="#d1d1d1"
     inkscape:zoom="17.625"
     inkscape:cx="26.553191"
     inkscape:cy="22.297872"
     inkscape:window-width="1920"
     inkscape:window-height="1050"
     inkscape:window-x="0"
     inkscape:window-y="30"
     inkscape:window-maximized="1"
     inkscape:current-layer="svg3" />
  <path
     d="M -0.01386833,0.04220284 H 12.686132 V 12.742203 H -0.01386833 Z"
     fill="#3e6182"
     id="path1" />
  <path
     d="m 6.3499997,11.386729 q -1.3015193,0 -2.258519,-0.298789 Q 3.1344811,10.789152 2.5220013,10.276941 1.9095216,9.7505027 1.6032818,9.0391008 1.3161818,8.3276985 1.3161818,7.502472 V 1.3132716 h 1.8565793 v 6.0326918 q 0,1.4797167 0.8804396,2.1484346 0.8804396,0.668719 2.296799,0.668719 0.7081797,0 1.2823794,-0.156509 Q 8.2257189,9.835871 8.646799,9.494398 9.0678783,9.1529253 9.2975588,8.6264875 9.5272388,8.0858217 9.5272388,7.3459634 V 1.3132716 H 11.383818 V 7.502472 q 0,0.8252265 -0.30624,1.5366288 -0.2871,0.7114019 -0.91872,1.2378402 -0.6124791,0.512211 -1.5694791,0.810999 -0.9378597,0.298789 -2.2393792,0.298789 z"
     id="text3"
     style="font-size:15.3565px;font-family:Ubuntu;-inkscape-font-specification:Ubuntu;fill:#e6e6e6;stroke:#2d2d2d;stroke-width:0.515697"
     aria-label="U" />
</svg>
