<svg xmlns="http://www.w3.org/2000/svg" width="48" height="48" viewBox="0 0 12.7 12.7" xmlns:v="https://vecta.io/nano"><path d="M-.043.07h12.7v12.7h-12.7z" fill="#3e6182"/><g fill="#fff" stroke="none"><path d="M4.669 2.853q.178.326.405.81.237.474.484 1.037.257.553.504 1.136.247.583.464 1.096.217-.514.464-1.096.247-.583.494-1.136.257-.563.484-1.037.237-.484.415-.81h1.403q.099.682.178 1.531.089.84.148 1.758.069.909.119 1.827.059.919.099 1.729H8.828q-.03-.998-.079-2.173Q8.699 6.35 8.6 5.155q-.178.415-.395.919-.217.504-.435 1.008-.207.504-.405.968-.198.454-.336.78H5.953q-.138-.326-.336-.78-.198-.464-.415-.968-.207-.504-.425-1.008-.217-.504-.395-.919-.099 1.195-.148 2.371-.049 1.175-.079 2.173H2.654q.04-.81.089-1.729.059-.919.119-1.827.069-.919.148-1.758.089-.849.188-1.531z"/><path d="M3.082 2.721l-.016.113-.189 1.537-.148 1.762v.002l-.117 1.826v.002l-.09 1.729-.006.141h1.768l.004-.129.08-2.172.113-1.816.176.412.424 1.004v.002l.416.969.336.779.033.082h1.252l.035-.082.334-.779h.002l.404-.969v-.002l.434-1.004.176-.41.113 1.814.08 2.172.004.129h1.77l-.008-.141-.098-1.729v-.002l-.119-1.826v-.002l-.148-1.76v-.002l-.18-1.537-.016-.113H8.305l-.037.068-.418.816-.486 1.041-.494 1.139-.342.809-.344-.809-.504-1.139-.002-.002-.484-1.041v.004l-.408-.818-.037-.068H4.67zm.232.266h1.273l.365.732.002.002v.002l.482 1.031v.002l.502 1.133.465 1.096.121.289.123-.289.463-1.096.494-1.133v-.002l.482-1.033.377-.734h1.203l.164 1.41v.002l.146 1.752v.002h.002l.117 1.824v.002l.092 1.588H8.957L8.881 7.52l-.148-2.375-.254-.041-.395.918-.436 1.008v.002l-.404.965-.301.701h-.904l-.301-.699v-.002l-.414-.965v-.002l-.426-1.008-.395-.918-.254.041-.148 2.375-.074 2.047H2.795l.08-1.588v-.002l.119-1.824V6.15l.146-1.752v-.002l.174-1.41z" fill="#000"/></g></svg>