<svg xmlns="http://www.w3.org/2000/svg" width="48" height="48" viewBox="0 0 12.7 12.7" xmlns:v="https://vecta.io/nano"><path d="M-.043.07h12.7v12.7h-12.7z" fill="#3e6182"/><g fill="#fff" stroke="none"><path d="M3.729 1.558q.254.466.579 1.157.339.677.691 1.482.367.79.72 1.623.353.833.663 1.566.31-.734.663-1.566.353-.833.706-1.623.367-.804.691-1.482.339-.691.593-1.157h2.004q.141.974.254 2.187.127 1.199.212 2.512.099 1.298.169 2.611.085 1.312.141 2.469H9.67q-.042-1.425-.113-3.104-.071-1.679-.212-3.387-.254.593-.564 1.312-.31.72-.621 1.439-.296.72-.579 1.383-.282.649-.48 1.115H5.564q-.198-.466-.48-1.115-.282-.663-.593-1.383-.296-.72-.607-1.439-.31-.72-.564-1.312-.141 1.707-.212 3.387-.071 1.679-.113 3.104H.851q.056-1.157.127-2.469.085-1.312.169-2.611.099-1.312.212-2.512.127-1.214.268-2.187z"/><path d="M1.512 1.426l-.016.113-.27 2.193-.211 2.516-.17 2.611v.002L.719 11.33l-.008.139h2.414l.002-.127.113-3.104.176-2.83.348.803.605 1.438v.002l.594 1.383.479 1.113.035.082h1.713l.035-.082.479-1.113.578-1.383.002-.002.619-1.437.346-.803.176 2.83.113 3.104.004.127h2.412l-.006-.139-.141-2.469v-.002l-.17-2.611v-.002l-.213-2.514V3.73l-.254-2.191-.016-.113H8.957l-.039.068-.594 1.162-.002.002-.691 1.484-.707 1.625-.541 1.277-.541-1.277-.721-1.623-.002-.004-.691-1.482-.002-.002-.58-1.162-.037-.068h-.08zm.232.266h1.904l.539 1.08.002.002v.002l.688 1.475.002.002.719 1.619.662 1.566.123.289.121-.289.664-1.566.703-1.619V4.25l.691-1.477h-.002l.555-1.082h1.807l.238 2.066v.002l.213 2.506v.002l.168 2.607v.002l.133 2.328H9.799l-.109-2.979-.213-3.391-.252-.043-.564 1.313-.623 1.441-.578 1.381h.002l-.445 1.035H5.65l-.445-1.035-.592-1.381v-.002l-.607-1.439-.564-1.312-.254.043-.211 3.391-.109 2.979H.99l.119-2.328v-.002l.17-2.607v-.002L1.49 3.76v-.002l.254-2.066z" fill="#000"/></g></svg>