<?xml version="1.0" encoding="UTF-8" standalone="no"?>
<svg
   width="48"
   height="48"
   version="1.1"
   viewBox="0 0 12.7 12.7"
   id="svg3"
   sodipodi:docname="favicon.svg"
   inkscape:version="1.3.2 (091e20ef0f, 2023-11-25)"
   xmlns:inkscape="http://www.inkscape.org/namespaces/inkscape"
   xmlns:sodipodi="http://sodipodi.sourceforge.net/DTD/sodipodi-0.dtd"
   xmlns="http://www.w3.org/2000/svg"
   xmlns:svg="http://www.w3.org/2000/svg">
  <defs
     id="defs3" />
  <sodipodi:namedview
     id="namedview3"
     pagecolor="#ffffff"
     bordercolor="#000000"
     borderopacity="0.25"
     inkscape:showpageshadow="2"
     inkscape:pageopacity="0.0"
     inkscape:pagecheckerboard="0"
     inkscape:deskcolor="#d1d1d1"
     inkscape:zoom="17.625"
     inkscape:cx="24.48227"
     inkscape:cy="24.283688"
     inkscape:window-width="1920"
     inkscape:window-height="1050"
     inkscape:window-x="0"
     inkscape:window-y="30"
     inkscape:window-maximized="1"
     inkscape:current-layer="svg3" />
  <path
     d="M -0.01386833,0.04220284 H 12.686132 V 12.742203 H -0.01386833 Z"
     fill="#3e6182"
     id="path1" />
  <g
     id="text1"
     style="font-size:5.71098px;font-family:Ubuntu;-inkscape-font-specification:Ubuntu;fill:#e6e6e6;stroke:#2d2d2d;stroke-width:0"
     transform="scale(1.0120508,0.98809269)"
     aria-label="RT&#10;UQ">
    <path
       style="text-align:center;text-anchor:middle;stroke-width:0"
       d="m 3.4338923,8.5836775 q -0.4822816,0 -0.8369005,-0.1635395 Q 2.2423729,8.2566002 2.0154168,7.9762474 1.7884608,7.6881084 1.6749828,7.2987308 1.5685971,6.9093532 1.5685971,6.457675 V 3.0700902 h 0.6879605 v 3.3019214 q 0,0.8099055 0.3262494,1.1759203 0.3262494,0.3660149 0.8510853,0.3660149 0.262418,0 0.4751893,-0.085662 Q 4.1289452,7.7348366 4.2849775,7.5479319 4.4410099,7.3610314 4.5261183,7.0728924 4.6112273,6.7769643 4.6112273,6.3720116 V 3.0700902 H 5.2991878 V 6.457675 q 0,0.4516782 -0.1134785,0.8410558 Q 5.0793233,7.6881084 4.8452754,7.9762474 4.6183194,8.2566002 4.2637005,8.420138 3.916174,8.5836775 3.4338923,8.5836775 Z M 6.285026,5.7645831 q 0,-0.6930921 0.1844018,-1.2226457 Q 6.6609219,4.012384 6.9800789,3.6619442 7.3063283,3.3037168 7.7318709,3.1246031 8.164506,2.9454895 8.6467876,2.9454895 q 0.4751892,0 0.8936395,0.1791136 0.425543,0.1791137 0.7446999,0.5373411 0.319157,0.3504398 0.503558,0.8799932 0.191495,0.5295536 0.191495,1.2226457 0,0.6074285 -0.141848,1.0824695 -0.141848,0.4750409 -0.397173,0.8254806 -0.248233,0.3426521 -0.5886673,0.5607043 -0.3333418,0.2102633 -0.7163301,0.2881391 0.00709,0.1791129 0.1418475,0.3115019 0.1418476,0.140176 0.3546189,0.233625 0.2127713,0.09344 0.475189,0.155752 0.262418,0.06231 0.524836,0.09344 l -0.163125,0.591856 Q 10.100725,9.8530475 9.7602907,9.7595975 9.4269491,9.6739345 9.1503464,9.5259705 8.880836,9.3780075 8.6964343,9.1443805 8.5120324,8.9185425 8.4482011,8.5758895 8.0013812,8.5447393 7.6042081,8.3500498 7.207035,8.1475741 6.9162475,7.7971345 6.6254601,7.4389072 6.455243,6.9327159 6.285026,6.4265247 6.285026,5.7645831 Z m 0.7234224,0 q 0,0.4906158 0.1134784,0.8955689 0.1134785,0.3971652 0.319157,0.6775166 0.2127713,0.2803516 0.5106512,0.4361031 0.3049722,0.1479627 0.6808681,0.1479627 0.3758961,0 0.6737759,-0.1479627 Q 9.6042589,7.6180202 9.8099378,7.3376686 10.022709,7.0573172 10.136187,6.660152 q 0.113478,-0.4049531 0.113478,-0.8955689 0,-0.4906157 -0.113478,-0.8877808 Q 10.022709,4.4718495 9.8099374,4.1914977 9.6042585,3.9111459 9.3063786,3.7631824 9.0084988,3.6074314 8.6326028,3.6074314 q -0.375896,0 -0.6808682,0.155751 Q 7.6538548,3.9111459 7.4410834,4.1914977 7.2354045,4.4718495 7.1219265,4.8768023 7.0084484,5.2739674 7.0084484,5.7645831 Z"
       id="path3" />
  </g>
</svg>
