<?xml version="1.0" encoding="UTF-8" standalone="no"?>
<svg
   width="48"
   height="48"
   version="1.1"
   viewBox="0 0 12.7 12.7"
   id="svg3"
   sodipodi:docname="favicon.svg"
   inkscape:version="1.3.2 (091e20ef0f, 2023-11-25)"
   xmlns:inkscape="http://www.inkscape.org/namespaces/inkscape"
   xmlns:sodipodi="http://sodipodi.sourceforge.net/DTD/sodipodi-0.dtd"
   xmlns="http://www.w3.org/2000/svg"
   xmlns:svg="http://www.w3.org/2000/svg">
  <defs
     id="defs3" />
  <sodipodi:namedview
     id="namedview3"
     pagecolor="#ffffff"
     bordercolor="#000000"
     borderopacity="0.25"
     inkscape:showpageshadow="2"
     inkscape:pageopacity="0.0"
     inkscape:pagecheckerboard="0"
     inkscape:deskcolor="#d1d1d1"
     inkscape:zoom="17.625"
     inkscape:cx="24.539007"
     inkscape:cy="24.283688"
     inkscape:window-width="1920"
     inkscape:window-height="1050"
     inkscape:window-x="0"
     inkscape:window-y="30"
     inkscape:window-maximized="1"
     inkscape:current-layer="svg3" />
  <path
     d="M -0.01386833,0.04220284 H 12.686132 V 12.742203 H -0.01386833 Z"
     fill="#3e6182"
     id="path1" />
  <g
     id="text1"
     style="font-size:5.71098px;font-family:Ubuntu;-inkscape-font-specification:Ubuntu;fill:#e6e6e6;stroke:#2d2d2d;stroke-width:0"
     transform="scale(1.0120508,0.98809269)"
     aria-label="RT&#10;UQ">
    <path
       style="text-align:center;text-anchor:middle"
       d="m 5.2264214,2.7547469 q 0.091376,0.1142196 0.2284392,0.302682 0.1427745,0.1827513 0.29126,0.4111905 0.1484855,0.2227282 0.29126,0.4683004 0.1484855,0.2455721 0.2512831,0.4740113 H 5.6832998 Q 5.5690802,4.1939139 5.4320167,3.9711857 5.3006642,3.7484574 5.1636006,3.5485731 5.0265371,3.3429779 4.8894736,3.1659375 4.7581211,2.9888971 4.6496125,2.8575446 q -0.074243,0.00571 -0.1541965,0.00571 -0.074243,0 -0.1541965,0 H 3.8443643 V 4.4109311 H 3.2903992 V 0.51033181 q 0.2341502,-0.0571098 0.5196992,-0.0742427 0.29126,-0.0228439 0.5311211,-0.0228439 0.8338031,0 1.2678376,0.3141039 0.4397454,0.31410385 0.4397454,0.93660075 0,0.3940576 -0.2113062,0.6738956 Q 5.631901,2.6176834 5.2264214,2.7547469 Z M 4.3869074,0.89867845 q -0.3540808,0 -0.5425431,0.0171329 V 2.4063772 h 0.3940576 q 0.285549,0 0.5139882,-0.028555 0.2284392,-0.028555 0.3826356,-0.1085087 0.1599075,-0.079954 0.2455722,-0.2227282 0.085665,-0.1484855 0.085665,-0.3883466 0,-0.2227282 -0.085665,-0.3712137 Q 5.2949532,1.1385396 5.1464677,1.0528749 5.0036932,0.96721021 4.8038089,0.93294433 4.6096356,0.89867845 4.3869074,0.89867845 Z M 9.5267877,0.45322201 V 0.93294433 H 8.2817941 V 4.4109311 H 7.7278291 V 0.93294433 H 6.4828354 V 0.45322201 Z"
       id="path2" />
    <path
       style="text-align:center;text-anchor:middle"
       d="m 3.9871406,11.635321 q -0.3883466,0 -0.6738956,-0.119931 Q 3.027696,11.39546 2.8449446,11.189864 2.6621933,10.978558 2.5708176,10.693009 2.4851529,10.40746 2.4851529,10.076223 V 7.5919469 h 0.553965 v 2.4214551 q 0,0.593942 0.2627051,0.862358 0.2627051,0.268416 0.6853176,0.268416 0.2113063,0 0.3826357,-0.06282 0.1770403,-0.06853 0.3026819,-0.205596 0.1256416,-0.137063 0.1941733,-0.348369 0.068532,-0.217018 0.068532,-0.513989 V 7.5919469 h 0.553965 v 2.4842761 q 0,0.331237 -0.091376,0.616786 Q 5.312088,10.978558 5.1236256,11.189864 4.9408743,11.39546 4.6553253,11.51539 4.3754872,11.635321 3.9871406,11.635321 Z M 6.2829531,9.567946 q 0,-0.5082772 0.1484855,-0.8966239 Q 6.585635,8.2829755 6.8426291,8.0259814 7.1053342,7.7632763 7.447993,7.6319238 7.7963628,7.5005713 8.1847094,7.5005713 q 0.3826356,0 0.7195835,0.1313525 0.3426588,0.1313525 0.5996529,0.3940576 0.2569941,0.2569941 0.4054795,0.6453407 0.1541967,0.3883467 0.1541967,0.8966239 0,0.445456 -0.1142198,0.793826 -0.1142196,0.34837 -0.3198149,0.605364 -0.1998843,0.251283 -0.4740113,0.411191 -0.2684161,0.154196 -0.576809,0.211306 0.00571,0.131352 0.1142196,0.228439 0.1142196,0.102798 0.285549,0.171329 0.1713294,0.06853 0.3826357,0.11422 0.2113062,0.04569 0.4226125,0.06853 L 9.6524312,12.606187 Q 9.3554603,12.56621 9.0813332,12.497679 8.8129172,12.434858 8.590189,12.326349 8.3731717,12.217841 8.2246863,12.046511 8.0762008,11.880893 8.024802,11.62961 7.6650102,11.606766 7.3451953,11.463991 7.0253805,11.315506 6.7912303,11.058512 6.5570801,10.795807 6.4200166,10.424593 6.2829531,10.053379 6.2829531,9.567946 Z m 0.5825199,0 q 0,0.3597917 0.091376,0.656763 0.091376,0.29126 0.2569941,0.496855 0.1713294,0.205595 0.4111906,0.319815 0.2455721,0.108508 0.548254,0.108508 0.302682,0 0.5425431,-0.108508 0.2398612,-0.11422 0.4054796,-0.319815 0.1713294,-0.205595 0.2627051,-0.496855 0.091376,-0.2969713 0.091376,-0.656763 0,-0.3597917 -0.091376,-0.6510517 Q 9.2926395,8.6199233 9.1213101,8.414328 8.9556917,8.2087328 8.7158305,8.1002242 8.4759694,7.9860046 8.1732874,7.9860046 q -0.3026819,0 -0.548254,0.1142196 Q 7.3851722,8.2087328 7.2138428,8.414328 7.0482244,8.6199233 6.9568487,8.9168943 6.865473,9.2081543 6.865473,9.567946 Z"
       id="path3" />
  </g>
</svg>
