<?xml version="1.0" encoding="UTF-8" standalone="no"?>
<svg
   width="48"
   height="48"
   version="1.1"
   viewBox="0 0 12.7 12.7"
   id="svg3"
   sodipodi:docname="favicon.svg"
   inkscape:version="1.3.2 (091e20ef0f, 2023-11-25)"
   xmlns:inkscape="http://www.inkscape.org/namespaces/inkscape"
   xmlns:sodipodi="http://sodipodi.sourceforge.net/DTD/sodipodi-0.dtd"
   xmlns="http://www.w3.org/2000/svg"
   xmlns:svg="http://www.w3.org/2000/svg">
  <defs
     id="defs3" />
  <sodipodi:namedview
     id="namedview3"
     pagecolor="#ffffff"
     bordercolor="#000000"
     borderopacity="0.25"
     inkscape:showpageshadow="2"
     inkscape:pageopacity="0.0"
     inkscape:pagecheckerboard="0"
     inkscape:deskcolor="#d1d1d1"
     inkscape:zoom="17.625"
     inkscape:cx="26.553191"
     inkscape:cy="17.758865"
     inkscape:window-width="1920"
     inkscape:window-height="1050"
     inkscape:window-x="0"
     inkscape:window-y="30"
     inkscape:window-maximized="1"
     inkscape:current-layer="svg3" />
  <path
     d="M -0.01386833,0.04220284 H 12.686132 V 12.742203 H -0.01386833 Z"
     fill="#3e6182"
     id="path1" />
  <path
     d="m 5.9008675,12.269495 q -1.0442419,0 -1.8120669,-0.322487 -0.767825,-0.322486 -1.259233,-0.87532 Q 2.3381596,10.503497 2.0924556,9.7356724 1.8621081,8.9678474 1.8621081,8.0771705 V 1.3970931 H 3.3516886 V 7.908249 q 0,1.5970759 0.706399,2.318831 0.706399,0.721756 1.8427799,0.721756 0.5681905,0 1.0288855,-0.168922 0.4760515,-0.184278 0.8138945,-0.552834 0.337843,-0.3685556 0.522121,-0.9367461 0.184278,-0.583547 0.184278,-1.3820849 V 1.3970931 H 9.939627 v 6.6800774 q 0,0.8906769 -0.245704,1.6585019 -0.2303475,0.7678246 -0.737112,1.3360156 -0.491408,0.552834 -1.259233,0.87532 -0.7524685,0.322487 -1.7967105,0.322487 z"
     id="text3"
     style="font-size:15.3565px;font-family:Ubuntu;-inkscape-font-specification:Ubuntu;fill:#e6e6e6;stroke:#2d2d2d;stroke-width:0.479893"
     transform="scale(1.0761112,0.92927199)"
     aria-label="U" />
</svg>
