<?xml version="1.0" encoding="UTF-8" standalone="no"?>
<!-- Created with Inkscape (http://www.inkscape.org/) -->

<svg
   width="266.07632"
   height="96.272003"
   viewBox="0 0 70.399359 25.471971"
   version="1.1"
   id="svg5"
   xml:space="preserve"
   xmlns="http://www.w3.org/2000/svg"
   xmlns:svg="http://www.w3.org/2000/svg"><defs
     id="defs2" /><g
     id="layer1"
     transform="translate(31.684552,-0.97697753)"><rect
       style="fill:#3e6182;fill-opacity:1;stroke-width:0.18922"
       id="rect1542"
       width="70.555557"
       height="26.458334"
       x="-31.684551"
       y="0.97697753" /><g
       id="g1349"
       transform="matrix(0.23786547,0,0,0.23786547,-48.789456,-1.8921508)">
	
		<radialGradient
   id="SVGID_1_"
   cx="1981.3169"
   cy="-1309.801"
   r="212.8125"
   gradientTransform="matrix(0.1616,0,0,-0.1616,-101.4548,-104.4775)"
   gradientUnits="userSpaceOnUse">
		<stop
   offset="0"
   style="stop-color:#456587"
   id="stop1326" />
		<stop
   offset="0.2555"
   style="stop-color:#2C4F73"
   id="stop1328" />
		<stop
   offset="0.5931"
   style="stop-color:#0C395D"
   id="stop1330" />
		<stop
   offset="0.8524"
   style="stop-color:#002D50"
   id="stop1332" />
		<stop
   offset="1"
   style="stop-color:#00294B"
   id="stop1334" />
	</radialGradient>
	
	
<path
   fill="url(#SVGID_1_)"
   d="m 211.401,86.369 c -0.49,-0.029 -0.978,-0.046 -1.46,-0.046 -6.745,-0.008 -12.854,2.863 -18.176,8.556 -4.84,5.171 -6.467,9.336 -6.451,14.361 0.008,2.688 0.485,5.625 1.191,9.097 1.328,6.526 5.201,12.824 10.629,17.285 4.153,3.412 8.786,5.158 13.67,5.19 2.529,0.016 5.125,-0.426 7.759,-1.334 8.499,-2.933 16.631,-11.332 19.771,-20.423 0.994,-2.876 1.477,-5.678 1.469,-8.342 -0.025,-6.513 -3.002,-12.221 -8.685,-16.302 -6.898,-4.955 -13.53,-7.659 -19.717,-8.042 z"
   id="path1337"
   style="fill:url(#SVGID_1_)"
   transform="translate(-1.1385987e-6)" /><g
   id="g1347"
   transform="translate(-1.1385987e-6)">
		<path
   fill="#ffffff"
   d="m 201.699,113.656 h -1.869 l -0.003,0.054 c -0.016,0.364 -0.231,3.542 -3.076,3.542 -2.542,0 -3.833,-2.278 -3.835,-6.771 0.002,-4.492 1.293,-6.771 3.835,-6.771 2.893,0 3.068,3.396 3.076,3.542 l 0.003,0.054 h 1.869 c 0.172,0 0.339,-0.069 0.46,-0.193 0.116,-0.119 0.175,-0.272 0.167,-0.432 -0.038,-0.881 -0.49,-5.279 -5.6,-5.279 -4.129,0 -6.312,3.139 -6.312,9.075 0,5.947 2.182,9.094 6.312,9.094 4.916,0 5.527,-4.017 5.6,-5.247 0.011,-0.17 -0.046,-0.335 -0.164,-0.458 -0.121,-0.14 -0.29,-0.21 -0.463,-0.21 z"
   id="path1339" />
		<path
   fill="#62c4dd"
   d="m 230.739,109.397 v 0 l -1.607,-0.7 c -1.549,-0.679 -2.096,-1.341 -2.096,-2.529 0,-1.549 1.131,-2.588 2.816,-2.588 0.997,0 1.813,0.204 2.813,1.22 l 0.054,0.057 0.859,-0.786 c 0.499,-0.461 0.353,-0.879 0.146,-1.146 -0.838,-0.988 -2.182,-1.529 -3.79,-1.529 -3.097,0 -5.347,2.02 -5.347,4.805 0,2.737 1.725,3.882 3.588,4.712 l 1.643,0.732 c 1.652,0.74 2.438,1.371 2.438,2.96 0,2.166 -1.958,2.745 -3.114,2.745 -0.994,0 -2.104,-0.213 -3.464,-1.754 l -0.054,-0.062 -0.895,0.786 c -0.461,0.404 -0.463,0.752 -0.016,1.328 1.23,1.584 3.038,1.915 4.336,1.915 2.807,0 5.652,-1.724 5.652,-5.021 0.001,-2.855 -1.583,-4.121 -3.962,-5.145 z"
   id="path1341" />
		<path
   fill="#62c4dd"
   d="m 214.866,106.59 c 0,-2.804 -2.274,-5.18 -5.078,-5.18 -1.32,0 -2.521,0.504 -3.424,1.328 v -0.964 h -1.688 c -0.509,0 -0.703,0.331 -0.703,0.714 v 16.366 c 0,0.46 0.28,0.705 0.695,0.705 h 1.689 v -12.87 c 0,-1.691 1.371,-3.063 3.063,-3.063 1.692,0 3.063,1.371 3.063,3.063 v 12.873 h 1.678 c 0.466,0 0.706,-0.259 0.706,-0.703 -10e-4,0.001 -10e-4,-12.252 -10e-4,-12.269 z"
   id="path1343" />
		<path
   fill="#ffffff"
   d="m 224.554,102.634 c 0.089,-0.111 0.143,-0.248 0.143,-0.399 0,-0.282 -0.183,-0.517 -0.437,-0.604 -0.487,-0.164 -1.01,-0.253 -1.551,-0.253 -1.32,0 -2.521,0.504 -3.424,1.328 v -0.964 h -1.689 c -0.509,0 -0.703,0.331 -0.703,0.714 v 16.363 c 0,0.46 0.283,0.705 0.698,0.705 h 1.688 v -12.869 c 0,-1.692 1.371,-3.063 3.063,-3.063 0.442,0 0.862,0.098 1.242,0.265 l 0.975,-1.226 z"
   id="path1345" />
	</g></g><path
       d="m -19.815144,6.15735 q 2.984122,0 4.571829,1.0680797 1.587706,1.0490067 1.587706,3.2805303 0,1.392318 -0.650386,2.269669 -0.631256,0.858278 -1.836383,1.354172 0.401709,0.495895 0.841676,1.144371 0.439967,0.629404 0.860805,1.3351 0.439967,0.686623 0.841676,1.449537 0.401709,0.743841 0.74603,1.468609 h -3.347574 q -0.363451,-0.648477 -0.74603,-1.316027 -0.363451,-0.66755 -0.76516,-1.296953 -0.38258,-0.629405 -0.76516,-1.182517 -0.38258,-0.572186 -0.765159,-1.029934 h -1.472932 v 4.825431 H -23.69833 V 6.5006613 q 0.975579,-0.1907285 2.008545,-0.2670199 1.052094,-0.076292 1.874641,-0.076291 z m 0.172161,2.5366891 q -0.325193,0 -0.592999,0.019073 -0.248677,0.019073 -0.478224,0.038146 v 3.5856959 h 0.841675 q 1.683351,0 2.410253,-0.419603 0.726902,-0.419603 0.726902,-1.430464 0,-0.9727149 -0.746031,-1.3732447 -0.726901,-0.4196027 -2.161576,-0.4196032 z M -1.2982874,6.3099328 V 8.8466219 H -5.2962469 V 19.527418 H -8.2803697 V 8.8466219 H -12.278329 V 6.3099328 Z m -0.191289,6.2368212 h 5.5474078 v 2.574836 h -5.5474078 z m 12.7399114,7.247684 q -1.3964167,0 -2.4102533,-0.381457 Q 7.8262452,19.012451 7.1567304,18.325828 6.5063446,17.620133 6.1811518,16.66649 5.8750879,15.693775 5.8750879,14.530331 V 6.3099328 h 2.9841228 v 7.9724512 q 0,0.80106 0.1721609,1.373245 0.1912899,0.553113 0.4973538,0.915497 0.3251929,0.343312 0.7651596,0.495894 0.459096,0.152583 0.994708,0.152583 1.090352,0 1.759867,-0.667549 0.688644,-0.66755 0.688644,-2.26967 V 6.3099328 h 2.984123 v 8.2203982 q 0,1.163444 -0.325194,2.136159 -0.325192,0.972716 -0.994707,1.678411 -0.669515,0.686623 -1.70248,1.06808 -1.032965,0.381457 -2.448511,0.381457 z m 10.846151,-6.885299 q 0,0.972715 0.229547,1.754702 0.248677,0.781987 0.688644,1.354172 0.459096,0.553113 1.109481,0.858279 0.650387,0.305165 1.492062,0.305165 0.822547,0 1.472933,-0.305165 0.669514,-0.305166 1.109481,-0.858279 0.459096,-0.572185 0.688643,-1.354172 0.248678,-0.781987 0.248678,-1.754702 0,-0.972715 -0.248678,-1.754702 Q 28.65773,10.353377 28.198634,9.8002645 27.758667,9.2280789 27.089153,8.9229133 26.438767,8.6177477 25.61622,8.6177477 q -0.841675,0 -1.492062,0.3242384 -0.650385,0.3051656 -1.109481,0.8773512 -0.439967,0.5531127 -0.688644,1.3541727 -0.229547,0.781987 -0.229547,1.735629 z m 10.119236,0 q 0,1.392318 -0.344321,2.517616 -0.344322,1.106226 -0.975579,1.945431 -0.612128,0.839205 -1.472932,1.392318 -0.860805,0.553112 -1.893771,0.80106 0.09564,0.381457 0.420838,0.610331 0.325193,0.247946 0.822547,0.40053 0.497353,0.152583 1.147739,0.228873 0.669515,0.07629 1.434675,0.133511 l -0.612128,2.174304 q -1.492062,-0.05722 -2.563285,-0.305165 -1.052094,-0.228874 -1.798126,-0.648477 -0.726901,-0.419602 -1.166868,-1.029933 -0.420837,-0.610332 -0.650385,-1.411392 -1.185998,-0.152582 -2.199835,-0.648477 -1.013836,-0.514967 -1.759867,-1.373244 -0.746031,-0.858279 -1.166869,-2.059869 -0.420837,-1.201589 -0.420837,-2.727417 0,-1.697484 0.535612,-2.9753646 0.535611,-1.2969539 1.434673,-2.1743049 0.918193,-0.8773511 2.10419,-1.3160267 1.205126,-0.4386756 2.525027,-0.4386756 1.358158,0 2.563285,0.4386756 1.205127,0.4386756 2.104189,1.3160267 0.899062,0.877351 1.415546,2.1743049 0.516482,1.2778806 0.516482,2.9753646 z"
       id="text4"
       style="font-weight:bold;font-size:19.1009px;font-family:Ubuntu;-inkscape-font-specification:'Ubuntu Bold';fill:#e6e6e6;stroke:#2d2d2d;stroke-width:0.53058"
       aria-label="RT-UQ" /></g></svg>
