<?xml version="1.0" encoding="UTF-8" standalone="no"?>
<!-- Created with Inkscape (http://www.inkscape.org/) -->

<svg
   width="266.07632"
   height="96.272003"
   viewBox="0 0 70.399359 25.471971"
   version="1.1"
   id="svg5"
   xml:space="preserve"
   xmlns="http://www.w3.org/2000/svg"
   xmlns:svg="http://www.w3.org/2000/svg"><defs
     id="defs2" /><g
     id="layer1"
     transform="translate(31.684552,-0.97697753)"><rect
       style="fill:#3e6182;fill-opacity:1;stroke-width:0.18922"
       id="rect1542"
       width="70.555557"
       height="26.458334"
       x="-31.684551"
       y="0.97697753" /><g
       id="g1349"
       transform="matrix(0.23786547,0,0,0.23786547,-49.646867,-2.3362136)">
	
		<radialGradient
   id="SVGID_1_"
   cx="1981.3169"
   cy="-1309.801"
   r="212.8125"
   gradientTransform="matrix(0.1616,0,0,-0.1616,-101.4548,-104.4775)"
   gradientUnits="userSpaceOnUse">
		<stop
   offset="0"
   style="stop-color:#456587"
   id="stop1326" />
		<stop
   offset="0.2555"
   style="stop-color:#2C4F73"
   id="stop1328" />
		<stop
   offset="0.5931"
   style="stop-color:#0C395D"
   id="stop1330" />
		<stop
   offset="0.8524"
   style="stop-color:#002D50"
   id="stop1332" />
		<stop
   offset="1"
   style="stop-color:#00294B"
   id="stop1334" />
	</radialGradient>
	
	
<path
   fill="url(#SVGID_1_)"
   d="m 211.401,86.369 c -0.49,-0.029 -0.978,-0.046 -1.46,-0.046 -6.745,-0.008 -12.854,2.863 -18.176,8.556 -4.84,5.171 -6.467,9.336 -6.451,14.361 0.008,2.688 0.485,5.625 1.191,9.097 1.328,6.526 5.201,12.824 10.629,17.285 4.153,3.412 8.786,5.158 13.67,5.19 2.529,0.016 5.125,-0.426 7.759,-1.334 8.499,-2.933 16.631,-11.332 19.771,-20.423 0.994,-2.876 1.477,-5.678 1.469,-8.342 -0.025,-6.513 -3.002,-12.221 -8.685,-16.302 -6.898,-4.955 -13.53,-7.659 -19.717,-8.042 z"
   id="path1337"
   style="fill:url(#SVGID_1_)"
   transform="translate(-1.1385987e-6)" /><g
   id="g1347"
   transform="translate(-1.1385987e-6)">
		<path
   fill="#ffffff"
   d="m 201.699,113.656 h -1.869 l -0.003,0.054 c -0.016,0.364 -0.231,3.542 -3.076,3.542 -2.542,0 -3.833,-2.278 -3.835,-6.771 0.002,-4.492 1.293,-6.771 3.835,-6.771 2.893,0 3.068,3.396 3.076,3.542 l 0.003,0.054 h 1.869 c 0.172,0 0.339,-0.069 0.46,-0.193 0.116,-0.119 0.175,-0.272 0.167,-0.432 -0.038,-0.881 -0.49,-5.279 -5.6,-5.279 -4.129,0 -6.312,3.139 -6.312,9.075 0,5.947 2.182,9.094 6.312,9.094 4.916,0 5.527,-4.017 5.6,-5.247 0.011,-0.17 -0.046,-0.335 -0.164,-0.458 -0.121,-0.14 -0.29,-0.21 -0.463,-0.21 z"
   id="path1339" />
		<path
   fill="#62c4dd"
   d="m 230.739,109.397 v 0 l -1.607,-0.7 c -1.549,-0.679 -2.096,-1.341 -2.096,-2.529 0,-1.549 1.131,-2.588 2.816,-2.588 0.997,0 1.813,0.204 2.813,1.22 l 0.054,0.057 0.859,-0.786 c 0.499,-0.461 0.353,-0.879 0.146,-1.146 -0.838,-0.988 -2.182,-1.529 -3.79,-1.529 -3.097,0 -5.347,2.02 -5.347,4.805 0,2.737 1.725,3.882 3.588,4.712 l 1.643,0.732 c 1.652,0.74 2.438,1.371 2.438,2.96 0,2.166 -1.958,2.745 -3.114,2.745 -0.994,0 -2.104,-0.213 -3.464,-1.754 l -0.054,-0.062 -0.895,0.786 c -0.461,0.404 -0.463,0.752 -0.016,1.328 1.23,1.584 3.038,1.915 4.336,1.915 2.807,0 5.652,-1.724 5.652,-5.021 0.001,-2.855 -1.583,-4.121 -3.962,-5.145 z"
   id="path1341" />
		<path
   fill="#62c4dd"
   d="m 214.866,106.59 c 0,-2.804 -2.274,-5.18 -5.078,-5.18 -1.32,0 -2.521,0.504 -3.424,1.328 v -0.964 h -1.688 c -0.509,0 -0.703,0.331 -0.703,0.714 v 16.366 c 0,0.46 0.28,0.705 0.695,0.705 h 1.689 v -12.87 c 0,-1.691 1.371,-3.063 3.063,-3.063 1.692,0 3.063,1.371 3.063,3.063 v 12.873 h 1.678 c 0.466,0 0.706,-0.259 0.706,-0.703 -10e-4,0.001 -10e-4,-12.252 -10e-4,-12.269 z"
   id="path1343" />
		<path
   fill="#ffffff"
   d="m 224.554,102.634 c 0.089,-0.111 0.143,-0.248 0.143,-0.399 0,-0.282 -0.183,-0.517 -0.437,-0.604 -0.487,-0.164 -1.01,-0.253 -1.551,-0.253 -1.32,0 -2.521,0.504 -3.424,1.328 v -0.964 h -1.689 c -0.509,0 -0.703,0.331 -0.703,0.714 v 16.363 c 0,0.46 0.283,0.705 0.698,0.705 h 1.688 v -12.869 c 0,-1.692 1.371,-3.063 3.063,-3.063 0.442,0 0.862,0.098 1.242,0.265 l 0.975,-1.226 z"
   id="path1345" />
	</g></g><path
       d="m -20.450444,6.1664057 q 2.97974,0 4.565115,1.0696505 1.585375,1.0505495 1.585375,3.2853548 0,1.394366 -0.649431,2.273007 -0.630329,0.859541 -1.833686,1.356164 0.401119,0.496624 0.840439,1.146054 0.439321,0.63033 0.859541,1.337063 0.439321,0.687633 0.84044,1.451669 0.401119,0.744935 0.744935,1.470769 h -3.342658 q -0.362917,-0.649431 -0.744935,-1.317962 -0.362917,-0.668532 -0.764036,-1.298861 -0.382018,-0.63033 -0.764036,-1.184256 -0.382018,-0.573027 -0.764036,-1.031449 h -1.470769 v 4.832528 h -2.979741 V 6.5102219 q 0.974146,-0.191009 2.005595,-0.2674126 1.050549,-0.076404 1.871888,-0.076404 z m 0.171908,2.5404198 q -0.324715,0 -0.592128,0.019101 -0.248312,0.019101 -0.477522,0.038202 v 3.5909695 h 0.840439 q 1.680879,0 2.406714,-0.42022 0.725834,-0.42022 0.725834,-1.432568 0,-0.9741455 -0.744935,-1.3752644 -0.725834,-0.4202198 -2.158402,-0.4202201 z M -1.96078,6.3192129 V 8.8596327 H -5.9528683 V 19.556137 H -8.9326088 V 8.8596327 H -12.924697 V 6.3192129 Z m -0.1910081,6.2459941 h 5.5392612 v 2.578622 H -2.1517881 Z M 10.569414,19.82355 q -1.3943658,0 -2.4067135,-0.382018 Q 7.1503528,19.040413 6.4818213,18.35278 5.8323906,17.646047 5.5076753,16.691002 5.2020609,15.716856 5.2020609,14.551701 V 6.3192129 h 2.9797405 v 7.9841761 q 0,0.802238 0.1719081,1.375265 0.191009,0.553926 0.4966234,0.916843 0.3247153,0.343817 0.7640361,0.496624 0.458422,0.152807 0.993247,0.152807 1.088751,0 1.757283,-0.668531 0.687632,-0.668532 0.687632,-2.273008 V 6.3192129 h 2.979741 v 8.2324881 q 0,1.165155 -0.324716,2.139301 -0.324715,0.974146 -0.993247,1.680879 -0.668531,0.687633 -1.69998,1.069651 -1.031448,0.382018 -2.444915,0.382018 z m 10.830223,-6.895425 q 0,0.974145 0.22921,1.757282 0.248312,0.783137 0.687633,1.356164 0.458422,0.553926 1.107852,0.859541 0.649431,0.305614 1.48987,0.305614 0.821339,0 1.47077,-0.305614 0.668531,-0.305615 1.107852,-0.859541 0.458422,-0.573027 0.687632,-1.356164 0.248312,-0.783137 0.248312,-1.757282 0,-0.974146 -0.248312,-1.757283 -0.22921,-0.802238 -0.687632,-1.3561642 -0.439321,-0.5730271 -1.107852,-0.8786415 -0.649431,-0.3056144 -1.47077,-0.3056144 -0.840439,0 -1.48987,0.3247153 -0.64943,0.3056144 -1.107852,0.8786415 -0.439321,0.5539263 -0.687633,1.3561643 -0.22921,0.783137 -0.22921,1.738182 z m 10.104376,0 q 0,1.394365 -0.343816,2.521318 -0.343816,1.107853 -0.974146,1.948292 -0.611229,0.84044 -1.470769,1.394366 -0.859541,0.553926 -1.89099,0.802238 0.0955,0.382018 0.42022,0.611229 0.324716,0.248311 0.821339,0.401119 0.496623,0.152807 1.146054,0.22921 0.668532,0.0764 1.432568,0.133707 l -0.611229,2.177502 q -1.489871,-0.0573 -2.559521,-0.305614 -1.050549,-0.229211 -1.795485,-0.649431 -0.725834,-0.420219 -1.165155,-1.031448 -0.420219,-0.611229 -0.64943,-1.413467 -1.184256,-0.152807 -2.196604,-0.649431 -1.012347,-0.515724 -1.757283,-1.375264 -0.744935,-0.859541 -1.165155,-2.062898 -0.420219,-1.203356 -0.420219,-2.731428 0,-1.699981 0.534825,-2.9797409 0.534825,-1.2988613 1.432567,-2.1775027 0.916844,-0.8786414 2.101099,-1.3179622 1.203357,-0.4393207 2.521319,-0.4393207 1.356164,0 2.559521,0.4393207 1.203357,0.4393208 2.101099,1.3179622 0.897742,0.8786414 1.413467,2.1775027 0.515724,1.2797599 0.515724,2.9797409 z"
       id="text4"
       style="font-weight:bold;font-size:19.1009px;font-family:Ubuntu;-inkscape-font-specification:'Ubuntu Bold';fill:#e6e6e6;stroke:#2d2d2d;stroke-width:0.53058"
       transform="scale(1.0014707,0.99853145)"
       aria-label="RT-UQ" /></g></svg>
