<?xml version="1.0" encoding="UTF-8" standalone="no"?>
<!-- Created with Inkscape (http://www.inkscape.org/) -->

<svg
   width="266.07632"
   height="96.272003"
   viewBox="0 0 70.399359 25.471971"
   version="1.1"
   id="svg5"
   xml:space="preserve"
   sodipodi:docname="logo.svg"
   inkscape:version="1.3.2 (091e20ef0f, 2023-11-25)"
   xmlns:inkscape="http://www.inkscape.org/namespaces/inkscape"
   xmlns:sodipodi="http://sodipodi.sourceforge.net/DTD/sodipodi-0.dtd"
   xmlns="http://www.w3.org/2000/svg"
   xmlns:svg="http://www.w3.org/2000/svg"><sodipodi:namedview
     id="namedview1"
     pagecolor="#ffffff"
     bordercolor="#000000"
     borderopacity="0.25"
     inkscape:showpageshadow="2"
     inkscape:pageopacity="0.0"
     inkscape:pagecheckerboard="0"
     inkscape:deskcolor="#d1d1d1"
     inkscape:zoom="2.6759239"
     inkscape:cx="133.03816"
     inkscape:cy="48.207649"
     inkscape:window-width="1920"
     inkscape:window-height="1050"
     inkscape:window-x="0"
     inkscape:window-y="30"
     inkscape:window-maximized="1"
     inkscape:current-layer="layer1" /><defs
     id="defs2" /><g
     id="layer1"
     transform="translate(31.684552,-0.97697753)"><rect
       style="fill:#3e6182;fill-opacity:1;stroke-width:0.185397"
       id="rect1542"
       width="70.555557"
       height="25.4"
       x="-31.684551"
       y="0.97697753" /><g
       id="g1349"
       transform="matrix(0.23786547,0,0,0.23786547,-17.620829,-22.065095)">
	
		<radialGradient
   id="SVGID_1_"
   cx="1981.3169"
   cy="-1309.801"
   r="212.8125"
   gradientTransform="matrix(0.1616,0,0,-0.1616,-101.4548,-104.4775)"
   gradientUnits="userSpaceOnUse">
		<stop
   offset="0"
   style="stop-color:#456587"
   id="stop1326" />
		<stop
   offset="0.2555"
   style="stop-color:#2C4F73"
   id="stop1328" />
		<stop
   offset="0.5931"
   style="stop-color:#0C395D"
   id="stop1330" />
		<stop
   offset="0.8524"
   style="stop-color:#002D50"
   id="stop1332" />
		<stop
   offset="1"
   style="stop-color:#00294B"
   id="stop1334" />
	</radialGradient>
	
	
<path
   fill="url(#SVGID_1_)"
   d="m 211.401,86.369 c -0.49,-0.029 -0.978,-0.046 -1.46,-0.046 -6.745,-0.008 -12.854,2.863 -18.176,8.556 -4.84,5.171 -6.467,9.336 -6.451,14.361 0.008,2.688 0.485,5.625 1.191,9.097 1.328,6.526 5.201,12.824 10.629,17.285 4.153,3.412 8.786,5.158 13.67,5.19 2.529,0.016 5.125,-0.426 7.759,-1.334 8.499,-2.933 16.631,-11.332 19.771,-20.423 0.994,-2.876 1.477,-5.678 1.469,-8.342 -0.025,-6.513 -3.002,-12.221 -8.685,-16.302 -6.898,-4.955 -13.53,-7.659 -19.717,-8.042 z"
   id="path1337"
   style="fill:url(#SVGID_1_)"
   transform="translate(-1.1385987e-6)" /><g
   id="g1347"
   transform="translate(-1.1385987e-6)">
		<path
   fill="#ffffff"
   d="m 201.699,113.656 h -1.869 l -0.003,0.054 c -0.016,0.364 -0.231,3.542 -3.076,3.542 -2.542,0 -3.833,-2.278 -3.835,-6.771 0.002,-4.492 1.293,-6.771 3.835,-6.771 2.893,0 3.068,3.396 3.076,3.542 l 0.003,0.054 h 1.869 c 0.172,0 0.339,-0.069 0.46,-0.193 0.116,-0.119 0.175,-0.272 0.167,-0.432 -0.038,-0.881 -0.49,-5.279 -5.6,-5.279 -4.129,0 -6.312,3.139 -6.312,9.075 0,5.947 2.182,9.094 6.312,9.094 4.916,0 5.527,-4.017 5.6,-5.247 0.011,-0.17 -0.046,-0.335 -0.164,-0.458 -0.121,-0.14 -0.29,-0.21 -0.463,-0.21 z"
   id="path1339" />
		<path
   fill="#62c4dd"
   d="m 230.739,109.397 v 0 l -1.607,-0.7 c -1.549,-0.679 -2.096,-1.341 -2.096,-2.529 0,-1.549 1.131,-2.588 2.816,-2.588 0.997,0 1.813,0.204 2.813,1.22 l 0.054,0.057 0.859,-0.786 c 0.499,-0.461 0.353,-0.879 0.146,-1.146 -0.838,-0.988 -2.182,-1.529 -3.79,-1.529 -3.097,0 -5.347,2.02 -5.347,4.805 0,2.737 1.725,3.882 3.588,4.712 l 1.643,0.732 c 1.652,0.74 2.438,1.371 2.438,2.96 0,2.166 -1.958,2.745 -3.114,2.745 -0.994,0 -2.104,-0.213 -3.464,-1.754 l -0.054,-0.062 -0.895,0.786 c -0.461,0.404 -0.463,0.752 -0.016,1.328 1.23,1.584 3.038,1.915 4.336,1.915 2.807,0 5.652,-1.724 5.652,-5.021 0.001,-2.855 -1.583,-4.121 -3.962,-5.145 z"
   id="path1341" />
		<path
   fill="#62c4dd"
   d="m 214.866,106.59 c 0,-2.804 -2.274,-5.18 -5.078,-5.18 -1.32,0 -2.521,0.504 -3.424,1.328 v -0.964 h -1.688 c -0.509,0 -0.703,0.331 -0.703,0.714 v 16.366 c 0,0.46 0.28,0.705 0.695,0.705 h 1.689 v -12.87 c 0,-1.691 1.371,-3.063 3.063,-3.063 1.692,0 3.063,1.371 3.063,3.063 v 12.873 h 1.678 c 0.466,0 0.706,-0.259 0.706,-0.703 -10e-4,0.001 -10e-4,-12.252 -10e-4,-12.269 z"
   id="path1343" />
		<path
   fill="#ffffff"
   d="m 224.554,102.634 c 0.089,-0.111 0.143,-0.248 0.143,-0.399 0,-0.282 -0.183,-0.517 -0.437,-0.604 -0.487,-0.164 -1.01,-0.253 -1.551,-0.253 -1.32,0 -2.521,0.504 -3.424,1.328 v -0.964 h -1.689 c -0.509,0 -0.703,0.331 -0.703,0.714 v 16.363 c 0,0.46 0.283,0.705 0.698,0.705 h 1.688 v -12.869 c 0,-1.692 1.371,-3.063 3.063,-3.063 0.442,0 0.862,0.098 1.242,0.265 l 0.975,-1.226 z"
   id="path1345" />
	</g></g><text
       xml:space="preserve"
       style="font-style:normal;font-variant:normal;font-weight:bold;font-stretch:normal;font-size:19.1009px;font-family:Ubuntu;-inkscape-font-specification:'Ubuntu Bold';fill:#e6e6e6;fill-opacity:1;stroke:#2d2d2d;stroke-width:0.53058;stroke-dasharray:none"
       x="-25.855999"
       y="19.556137"
       id="text4"
       transform="scale(1.0014707,0.99853145)"><tspan
         id="tspan4"
         style="stroke-width:0.53058"
         x="-25.855999"
         y="19.556137">RT-UQ</tspan></text></g></svg>
