<?xml version="1.0" encoding="UTF-8" standalone="no"?>
<!-- Created with Inkscape (http://www.inkscape.org/) -->

<svg
   width="266.07632"
   height="96.272003"
   viewBox="0 0 70.399359 25.471971"
   version="1.1"
   id="svg5"
   xml:space="preserve"
   inkscape:version="1.2.2 (b0a8486541, 2022-12-01)"
   sodipodi:docname="logo mascot num.svg"
   xmlns:inkscape="http://www.inkscape.org/namespaces/inkscape"
   xmlns:sodipodi="http://sodipodi.sourceforge.net/DTD/sodipodi-0.dtd"
   xmlns="http://www.w3.org/2000/svg"
   xmlns:svg="http://www.w3.org/2000/svg"><sodipodi:namedview
     id="namedview7"
     pagecolor="#ffffff"
     bordercolor="#000000"
     borderopacity="0.25"
     inkscape:showpageshadow="2"
     inkscape:pageopacity="0.0"
     inkscape:pagecheckerboard="0"
     inkscape:deskcolor="#d1d1d1"
     inkscape:document-units="mm"
     showgrid="false"
     inkscape:zoom="3.1037318"
     inkscape:cx="92.147137"
     inkscape:cy="127.10505"
     inkscape:window-width="1920"
     inkscape:window-height="1050"
     inkscape:window-x="0"
     inkscape:window-y="30"
     inkscape:window-maximized="1"
     inkscape:current-layer="layer1" /><defs
     id="defs2" /><g
     inkscape:label="Layer 1"
     inkscape:groupmode="layer"
     id="layer1"
     transform="translate(31.684552,-0.97697753)"><rect
       style="fill:#3e6182;fill-opacity:1;stroke-width:0.185518"
       id="rect1542"
       width="70.420998"
       height="25.481607"
       x="-31.684551"
       y="0.97697753" /><g
       id="g1349"
       transform="matrix(0.23786547,0,0,0.23786547,-75.764326,-3.6059306)">
	
		<radialGradient
   id="SVGID_1_"
   cx="1981.3169"
   cy="-1309.801"
   r="212.8125"
   gradientTransform="matrix(0.1616,0,0,-0.1616,-101.4548,-104.4775)"
   gradientUnits="userSpaceOnUse">
		<stop
   offset="0"
   style="stop-color:#456587"
   id="stop1326" />
		<stop
   offset="0.2555"
   style="stop-color:#2C4F73"
   id="stop1328" />
		<stop
   offset="0.5931"
   style="stop-color:#0C395D"
   id="stop1330" />
		<stop
   offset="0.8524"
   style="stop-color:#002D50"
   id="stop1332" />
		<stop
   offset="1"
   style="stop-color:#00294B"
   id="stop1334" />
	</radialGradient>
	
	
<path
   fill="url(#SVGID_1_)"
   d="m 211.401,86.369 c -0.49,-0.029 -0.978,-0.046 -1.46,-0.046 -6.745,-0.008 -12.854,2.863 -18.176,8.556 -4.84,5.171 -6.467,9.336 -6.451,14.361 0.008,2.688 0.485,5.625 1.191,9.097 1.328,6.526 5.201,12.824 10.629,17.285 4.153,3.412 8.786,5.158 13.67,5.19 2.529,0.016 5.125,-0.426 7.759,-1.334 8.499,-2.933 16.631,-11.332 19.771,-20.423 0.994,-2.876 1.477,-5.678 1.469,-8.342 -0.025,-6.513 -3.002,-12.221 -8.685,-16.302 -6.898,-4.955 -13.53,-7.659 -19.717,-8.042 z"
   id="path1337"
   style="fill:url(#SVGID_1_)"
   transform="translate(-1.1385987e-6)" /><g
   id="g1347"
   transform="translate(-1.1385987e-6)">
		<path
   fill="#ffffff"
   d="m 201.699,113.656 h -1.869 l -0.003,0.054 c -0.016,0.364 -0.231,3.542 -3.076,3.542 -2.542,0 -3.833,-2.278 -3.835,-6.771 0.002,-4.492 1.293,-6.771 3.835,-6.771 2.893,0 3.068,3.396 3.076,3.542 l 0.003,0.054 h 1.869 c 0.172,0 0.339,-0.069 0.46,-0.193 0.116,-0.119 0.175,-0.272 0.167,-0.432 -0.038,-0.881 -0.49,-5.279 -5.6,-5.279 -4.129,0 -6.312,3.139 -6.312,9.075 0,5.947 2.182,9.094 6.312,9.094 4.916,0 5.527,-4.017 5.6,-5.247 0.011,-0.17 -0.046,-0.335 -0.164,-0.458 -0.121,-0.14 -0.29,-0.21 -0.463,-0.21 z"
   id="path1339" />
		<path
   fill="#62c4dd"
   d="m 230.739,109.397 v 0 l -1.607,-0.7 c -1.549,-0.679 -2.096,-1.341 -2.096,-2.529 0,-1.549 1.131,-2.588 2.816,-2.588 0.997,0 1.813,0.204 2.813,1.22 l 0.054,0.057 0.859,-0.786 c 0.499,-0.461 0.353,-0.879 0.146,-1.146 -0.838,-0.988 -2.182,-1.529 -3.79,-1.529 -3.097,0 -5.347,2.02 -5.347,4.805 0,2.737 1.725,3.882 3.588,4.712 l 1.643,0.732 c 1.652,0.74 2.438,1.371 2.438,2.96 0,2.166 -1.958,2.745 -3.114,2.745 -0.994,0 -2.104,-0.213 -3.464,-1.754 l -0.054,-0.062 -0.895,0.786 c -0.461,0.404 -0.463,0.752 -0.016,1.328 1.23,1.584 3.038,1.915 4.336,1.915 2.807,0 5.652,-1.724 5.652,-5.021 0.001,-2.855 -1.583,-4.121 -3.962,-5.145 z"
   id="path1341" />
		<path
   fill="#62c4dd"
   d="m 214.866,106.59 c 0,-2.804 -2.274,-5.18 -5.078,-5.18 -1.32,0 -2.521,0.504 -3.424,1.328 v -0.964 h -1.688 c -0.509,0 -0.703,0.331 -0.703,0.714 v 16.366 c 0,0.46 0.28,0.705 0.695,0.705 h 1.689 v -12.87 c 0,-1.691 1.371,-3.063 3.063,-3.063 1.692,0 3.063,1.371 3.063,3.063 v 12.873 h 1.678 c 0.466,0 0.706,-0.259 0.706,-0.703 -10e-4,0.001 -10e-4,-12.252 -10e-4,-12.269 z"
   id="path1343" />
		<path
   fill="#ffffff"
   d="m 224.554,102.634 c 0.089,-0.111 0.143,-0.248 0.143,-0.399 0,-0.282 -0.183,-0.517 -0.437,-0.604 -0.487,-0.164 -1.01,-0.253 -1.551,-0.253 -1.32,0 -2.521,0.504 -3.424,1.328 v -0.964 h -1.689 c -0.509,0 -0.703,0.331 -0.703,0.714 v 16.363 c 0,0.46 0.283,0.705 0.698,0.705 h 1.688 v -12.869 c 0,-1.692 1.371,-3.063 3.063,-3.063 0.442,0 0.862,0.098 1.242,0.265 l 0.975,-1.226 z"
   id="path1345" />
	</g></g><g
       aria-label="Groupement de Recherche"
       id="text1720"
       style="font-style:italic;font-weight:bold;font-size:4.58611px;-inkscape-font-specification:'sans-serif, Bold Italic';fill:#d2d6da;stroke-width:0.265"><path
         d="m -23.326354,6.0407837 q -0.568678,0 -0.889706,-0.3256138 -0.321027,-0.3256138 -0.321027,-0.9493248 0,-0.417336 0.119239,-0.793397 0.123824,-0.3806472 0.366888,-0.6695721 0.243064,-0.293511 0.600781,-0.4631971 0.357716,-0.1696861 0.830086,-0.1696861 0.490713,0 0.917222,0.2201333 l -0.256822,0.5640915 q -0.1651,-0.091722 -0.3302,-0.1421694 -0.1651,-0.055033 -0.362303,-0.055033 -0.302683,0 -0.527403,0.1284111 -0.220133,0.1284111 -0.366889,0.3439582 -0.146755,0.2109611 -0.220133,0.4677833 -0.07338,0.2568221 -0.07338,0.5136443 0,0.3623027 0.155928,0.5549193 0.155928,0.1926167 0.504472,0.1926167 0.114653,0 0.197203,-0.013758 0.08714,-0.018344 0.183444,-0.041275 l 0.146756,-0.669572 h -0.596194 l 0.123825,-0.5778499 h 1.26118 l -0.362303,1.7060329 q -0.224719,0.073378 -0.476955,0.1284111 -0.24765,0.050447 -0.623711,0.050447 z"
         id="path951" /><path
         d="m -21.565286,5.9949226 0.531989,-2.5040161 h 0.513645 l -0.04586,0.4631971 h 0.02293 q 0.151342,-0.2384777 0.343958,-0.3714749 0.192617,-0.1375833 0.435681,-0.1375833 0.05503,0 0.114653,0.00917 0.06421,0.00459 0.100894,0.013758 l -0.146756,0.6512276 q -0.03669,-0.013758 -0.09631,-0.02293 -0.05962,-0.013758 -0.128411,-0.013758 -0.252236,0 -0.454025,0.2017889 -0.197203,0.1972027 -0.279753,0.5916082 l -0.238477,1.1190108 z"
         id="path953" /><path
         d="m -18.648524,6.0407837 q -0.279753,0 -0.499886,-0.1146527 -0.215547,-0.1192389 -0.339372,-0.3347861 -0.119239,-0.2155471 -0.119239,-0.5136443 0,-0.3301999 0.08255,-0.623711 0.08255,-0.2980971 0.24765,-0.5228165 0.1651,-0.2293055 0.41275,-0.3577166 0.252236,-0.1284111 0.587022,-0.1284111 0.43568,0 0.692503,0.2614083 0.256822,0.2614083 0.256822,0.7291915 0,0.3164416 -0.07796,0.6053665 -0.07796,0.288925 -0.243064,0.5136444 -0.160514,0.2247194 -0.41275,0.3577166 -0.24765,0.128411 -0.587022,0.128411 z m 0.05503,-0.5503332 q 0.188031,0 0.316442,-0.1513416 0.132997,-0.1513416 0.201789,-0.3898194 0.06879,-0.2430638 0.06879,-0.5136443 0,-0.1880305 -0.07338,-0.3118555 -0.06879,-0.1284111 -0.24765,-0.1284111 -0.151342,0 -0.265995,0.1054806 -0.114652,0.1008944 -0.18803,0.2659943 -0.07338,0.1651 -0.110067,0.3531305 -0.03669,0.1880305 -0.03669,0.3577166 0,0.4127499 0.334786,0.4127499 z"
         id="path955" /><path
         d="m -16.24082,6.0407837 q -0.321028,0 -0.481542,-0.1926166 -0.155927,-0.1972027 -0.155927,-0.5274026 0,-0.08255 0.01376,-0.2109611 0.01376,-0.1329972 0.04127,-0.2659944 l 0.284339,-1.3529025 h 0.674158 l -0.307269,1.4629691 q -0.03669,0.1605139 -0.03669,0.2659944 0,0.2751666 0.243063,0.2751666 0.155928,0 0.275167,-0.128411 0.123825,-0.1329972 0.215547,-0.3531305 0.09172,-0.2201333 0.146756,-0.4861277 l 0.220133,-1.0364609 h 0.674158 l -0.531989,2.5040161 h -0.513644 l 0.04586,-0.4631971 h -0.02293 q -0.14217,0.2247194 -0.334786,0.3668888 -0.188031,0.1421694 -0.449439,0.1421694 z"
         id="path957" /><path
         d="m -14.50727,7.0955891 0.76588,-3.6046826 h 0.513645 l -0.03669,0.3806472 h 0.01834 q 0.119239,-0.1605139 0.293511,-0.2935111 0.174272,-0.1329972 0.417336,-0.1329972 0.183445,0 0.343959,0.091722 0.160513,0.087136 0.261408,0.288925 0.100894,0.1972027 0.100894,0.5319887 0,0.3026833 -0.08255,0.6053666 -0.08255,0.2980971 -0.233891,0.541161 -0.151342,0.2430638 -0.366889,0.3898193 -0.210961,0.1467555 -0.476956,0.1467555 -0.229305,0 -0.35313,-0.1054805 -0.123825,-0.1054805 -0.215547,-0.2614083 h -0.01835 q -0.01376,0.1834444 -0.03669,0.3347861 -0.02293,0.1513416 -0.05962,0.3256138 l -0.160514,0.7612943 z m 1.40335,-1.6005525 q 0.123825,0 0.229305,-0.096308 0.110067,-0.1008944 0.188031,-0.2614083 0.08255,-0.1605138 0.128411,-0.3577165 0.04586,-0.1972028 0.04586,-0.3944055 0,-0.3944055 -0.293511,-0.3944055 -0.1651,0 -0.279753,0.1192389 -0.114653,0.1192388 -0.18803,0.2980971 -0.07338,0.1788583 -0.110067,0.3668888 -0.0321,0.1880306 -0.0321,0.3256139 0,0.1788583 0.08255,0.2889249 0.08714,0.1054805 0.229306,0.1054805 z"
         id="path959" /><path
         d="m -10.434808,6.0407837 q -0.440266,0 -0.715433,-0.2384777 -0.275166,-0.2430638 -0.275166,-0.7291915 0,-0.3164416 0.08714,-0.6053665 0.09172,-0.2935111 0.265994,-0.5228166 0.178858,-0.2293055 0.440267,-0.3623027 0.261408,-0.1375833 0.605366,-0.1375833 0.4219222,0 0.6282972,0.1926166 0.2109611,0.1926167 0.2109611,0.4907138 0,0.3944055 -0.3577166,0.6328832 -0.3531305,0.2384777 -1.0823217,0.2384777 h -0.114653 q -0.0046,0.027517 -0.0046,0.050447 0,0.018344 0,0.041275 0,0.2017889 0.114653,0.3210278 0.119238,0.1192388 0.3302,0.1192388 0.197202,0 0.3577161,-0.045861 0.1605139,-0.045861 0.3806471,-0.1467555 v 0.5090582 q -0.1972027,0.096308 -0.3989915,0.1467555 -0.2017887,0.045861 -0.4723697,0.045861 z m -0.132997,-1.4950719 q 0.389819,0 0.559506,-0.1192388 0.1742717,-0.123825 0.1742717,-0.2843388 0,-0.2109611 -0.2338917,-0.2109611 -0.123825,0 -0.24765,0.077964 -0.123825,0.077964 -0.220133,0.2155471 -0.09172,0.1375833 -0.132997,0.3210277 z"
         id="path961" /><path
         d="M -8.9901868,5.9949226 -8.458198,3.4909065 h 0.5136443 l -0.045861,0.4631971 h 0.018344 q 0.1467555,-0.2247194 0.334786,-0.3668888 0.1926167,-0.1421694 0.4540249,-0.1421694 0.2568222,0 0.3989916,0.1375833 0.1421694,0.1329972 0.1880305,0.3714749 h 0.018345 q 0.1421694,-0.2247194 0.3393721,-0.3668888 0.1972027,-0.1421694 0.458611,-0.1421694 0.3118555,0 0.4677833,0.1972027 0.1559277,0.1926167 0.1559277,0.5228166 0,0.1651 -0.050447,0.4035777 l -0.2980972,1.4262802 h -0.6741582 l 0.3072694,-1.4629691 q 0.036689,-0.1605138 0.036689,-0.2659944 0,-0.2751666 -0.2201333,-0.2751666 -0.1513416,0 -0.2751666,0.1284111 -0.123825,0.1284111 -0.2155472,0.3485444 -0.091722,0.2155471 -0.1467555,0.4861276 l -0.2155472,1.041047 H -7.582251 l 0.3072694,-1.4629691 q 0.036689,-0.1605138 0.036689,-0.2659944 0,-0.2751666 -0.2201333,-0.2751666 -0.1513416,0 -0.2751666,0.1329972 -0.123825,0.1284111 -0.2155472,0.3485444 -0.087136,0.2201333 -0.1467555,0.4861277 l -0.2201333,1.0364608 z"
         id="path963" /><path
         d="m -3.7299155,6.0407837 q -0.4402666,0 -0.7154332,-0.2384777 -0.2751666,-0.2430638 -0.2751666,-0.7291915 0,-0.3164416 0.087136,-0.6053665 0.091722,-0.2935111 0.2659944,-0.5228166 0.1788583,-0.2293055 0.4402665,-0.3623027 0.2614083,-0.1375833 0.6053666,-0.1375833 0.4219221,0 0.6282971,0.1926166 0.210961,0.1926167 0.210961,0.4907138 0,0.3944055 -0.3577166,0.6328832 -0.3531304,0.2384777 -1.0823219,0.2384777 h -0.1146528 q -0.00459,0.027517 -0.00459,0.050447 0,0.018344 0,0.041275 0,0.2017889 0.1146527,0.3210278 0.1192389,0.1192388 0.3302,0.1192388 0.1972027,0 0.3577166,-0.045861 0.1605138,-0.045861 0.3806471,-0.1467555 v 0.5090582 q -0.1972027,0.096308 -0.3989916,0.1467555 -0.2017888,0.045861 -0.4723693,0.045861 z M -3.8629127,4.5457118 q 0.3898193,0 0.5595054,-0.1192388 0.1742722,-0.123825 0.1742722,-0.2843388 0,-0.2109611 -0.2338916,-0.2109611 -0.123825,0 -0.24765,0.077964 -0.1238249,0.077964 -0.2201332,0.2155471 -0.091722,0.1375833 -0.1329972,0.3210277 z"
         id="path965" /><path
         d="m -2.2852936,5.9949226 0.5319887,-2.5040161 h 0.5136444 l -0.045861,0.4631971 h 0.018344 q 0.1467555,-0.2247194 0.33478604,-0.3668888 0.19261662,-0.1421694 0.4540249,-0.1421694 0.32561382,0 0.48612767,0.1972027 0.16051386,0.1926167 0.16051386,0.5228166 0,0.1651 -0.0504472,0.4035777 L -0.1802691,5.9949226 h -0.67415819 l 0.30726938,-1.4629691 q 0.0366889,-0.1605138 0.0366889,-0.2659944 0,-0.2751666 -0.24306384,-0.2751666 -0.15134163,0 -0.27516663,0.1329972 -0.1238249,0.1284111 -0.2155471,0.3485444 -0.087136,0.2201333 -0.1467556,0.4861277 l -0.2201333,1.0364608 z"
         id="path967" /><path
         d="m 1.3193884,6.0407837 q -0.2935111,0 -0.47236935,-0.1238249 -0.1788583,-0.1284111 -0.1788583,-0.4540249 0,-0.1146528 0.0275167,-0.2522361 L 0.95249958,4.0045508 H 0.61312743 L 0.67733297,3.6743509 1.1175995,3.4863204 1.4111106,2.9589177 H 1.8467911 L 1.7367244,3.4909065 H 2.3696076 L 2.259541,4.0045508 H 1.6266578 l -0.2568222,1.206147 q -0.013758,0.068792 -0.013758,0.1192389 0,0.087136 0.055033,0.1284111 0.055033,0.036689 0.1421694,0.036689 0.091722,0 0.1742722,-0.018344 0.087136,-0.022931 0.1880305,-0.059619 v 0.5044721 q -0.1054805,0.050447 -0.2568222,0.08255 -0.1513416,0.036689 -0.3393721,0.036689 z"
         id="path969" /><path
         d="m 4.3829109,6.0407837 q -0.1788582,0 -0.3439582,-0.087136 Q 3.8784388,5.8619254 3.7775444,5.6647227 3.67665,5.4629339 3.67665,5.1281478 3.67665,4.8254646 3.7592,4.5273674 3.84175,4.2246841 3.9930916,3.9816203 4.1444332,3.7385565 4.3553943,3.5918009 4.5709415,3.4450454 4.8369358,3.4450454 q 0.2247194,0 0.3531305,0.1054805 0.1284111,0.1054806 0.2155472,0.2614083 h 0.018344 q 0,-0.013758 0.00459,-0.096308 0.00917,-0.087136 0.022931,-0.1972027 0.013758,-0.1146528 0.032103,-0.206375 L 5.6532634,2.509479 H 6.3274216 L 5.5890579,5.9949226 H 5.0754136 l 0.041275,-0.3256138 h -0.018344 q -0.1329972,0.1651 -0.3026832,0.2705805 -0.1696861,0.1008944 -0.41275,0.1008944 z M 4.6672498,5.4950366 q 0.1605138,0 0.2705805,-0.1192388 0.1146527,-0.123825 0.1834444,-0.3026833 0.073378,-0.1834444 0.1054805,-0.3668888 0.036689,-0.1880305 0.036689,-0.3210277 0,-0.1788583 -0.08255,-0.2843388 -0.08255,-0.1100667 -0.2293055,-0.1100667 -0.123825,0 -0.2338916,0.1008944 -0.1054805,0.096308 -0.1880305,0.2568222 -0.077964,0.1605139 -0.123825,0.3577166 -0.045861,0.1972027 -0.045861,0.3944055 0,0.3944054 0.3072694,0.3944054 z"
         id="path971" /><path
         d="m 7.3913995,6.0407837 q -0.4402666,0 -0.7154332,-0.2384777 -0.2751666,-0.2430638 -0.2751666,-0.7291915 0,-0.3164416 0.087136,-0.6053665 Q 6.579658,4.1742369 6.7539302,3.9449314 6.9327885,3.7156259 7.1941967,3.5826287 7.455605,3.4450454 7.7995633,3.4450454 q 0.4219221,0 0.6282971,0.1926166 0.210961,0.1926167 0.210961,0.4907138 0,0.3944055 -0.3577166,0.6328832 Q 7.9279744,4.9997367 7.1987829,4.9997367 H 7.0841301 q -0.00459,0.027517 -0.00459,0.050447 0,0.018344 0,0.041275 0,0.2017889 0.1146527,0.3210278 0.1192389,0.1192388 0.3302,0.1192388 0.1972027,0 0.3577166,-0.045861 0.1605138,-0.045861 0.3806471,-0.1467555 V 5.8481671 Q 8.0655577,5.9444754 7.8637688,5.9949226 7.66198,6.0407837 7.3913995,6.0407837 Z M 7.2584023,4.5457118 q 0.3898193,0 0.5595054,-0.1192388 0.1742722,-0.123825 0.1742722,-0.2843388 0,-0.2109611 -0.2338916,-0.2109611 -0.123825,0 -0.24765,0.077964 -0.1238249,0.077964 -0.2201332,0.2155471 -0.091722,0.1375833 -0.1329972,0.3210277 z"
         id="path973" /><path
         d="M 10.065099,5.9949226 10.757601,2.72044 h 0.80257 q 0.490713,0 0.775052,0.2109611 0.288925,0.210961 0.288925,0.6879165 0,0.3898194 -0.206375,0.6374693 -0.201789,0.2430638 -0.513644,0.3485444 l 0.582436,1.3895913 h -0.74295 L 11.280418,4.7383285 h -0.265994 l -0.265995,1.2565941 z m 1.242836,-1.8206857 q 0.293511,0 0.454025,-0.1284111 0.165099,-0.128411 0.165099,-0.3898193 0,-0.3668888 -0.440266,-0.3668888 h -0.1651 l -0.188031,0.8851192 z"
         id="path975" /><path
         d="m 13.931187,6.0407837 q -0.440267,0 -0.715433,-0.2384777 -0.275167,-0.2430638 -0.275167,-0.7291915 0,-0.3164416 0.08714,-0.6053665 0.09172,-0.2935111 0.265994,-0.5228166 0.178859,-0.2293055 0.440267,-0.3623027 0.261408,-0.1375833 0.605367,-0.1375833 0.421922,0 0.628297,0.1926166 0.210961,0.1926167 0.210961,0.4907138 0,0.3944055 -0.357717,0.6328832 -0.35313,0.2384777 -1.082322,0.2384777 h -0.114653 q -0.0046,0.027517 -0.0046,0.050447 0,0.018344 0,0.041275 0,0.2017889 0.114653,0.3210278 0.119239,0.1192388 0.3302,0.1192388 0.197203,0 0.357717,-0.045861 0.160513,-0.045861 0.380647,-0.1467555 v 0.5090582 q -0.197203,0.096308 -0.398992,0.1467555 -0.201789,0.045861 -0.472369,0.045861 z M 13.79819,4.5457118 q 0.389819,0 0.559505,-0.1192388 0.174272,-0.123825 0.174272,-0.2843388 0,-0.2109611 -0.233891,-0.2109611 -0.123825,0 -0.24765,0.077964 -0.123825,0.077964 -0.220134,0.2155471 -0.09172,0.1375833 -0.132997,0.3210277 z"
         id="path977" /><path
         d="m 16.426026,6.0407837 q -0.256822,0 -0.472369,-0.091722 -0.210961,-0.096308 -0.334786,-0.2980971 -0.123825,-0.2017889 -0.123825,-0.5319888 0,-0.3393721 0.08714,-0.6374693 0.08714,-0.3026833 0.256822,-0.5365749 0.169686,-0.2338916 0.417336,-0.3668888 0.24765,-0.1329972 0.564091,-0.1329972 0.22472,0 0.398992,0.041275 0.178858,0.041275 0.334786,0.1192389 l -0.206375,0.5136443 q -0.119239,-0.050447 -0.238478,-0.087136 -0.114652,-0.041275 -0.261408,-0.041275 -0.210961,0 -0.362303,0.1605139 -0.151341,0.1559277 -0.229305,0.4035777 -0.07796,0.2430638 -0.07796,0.5090582 0,0.210961 0.100894,0.3210277 0.100895,0.1100666 0.284339,0.1100666 0.169686,0 0.311856,-0.050447 0.146755,-0.055033 0.302683,-0.1329972 v 0.5503332 q -0.155928,0.08255 -0.339372,0.1329972 -0.178858,0.045861 -0.41275,0.045861 z"
         id="path979" /><path
         d="M 17.590898,5.9949226 18.329262,2.509479 h 0.674158 l -0.128411,0.6053665 q -0.01834,0.1008944 -0.05503,0.2338916 -0.03669,0.1329972 -0.07338,0.2614083 -0.03669,0.123825 -0.06879,0.2155472 h 0.01834 q 0.137583,-0.1742722 0.307269,-0.2751667 0.169686,-0.1054805 0.394406,-0.1054805 0.325614,0 0.486128,0.1972027 0.160513,0.1926167 0.160513,0.5228166 0,0.1651 -0.05045,0.4035777 l -0.298097,1.4262802 h -0.674158 l 0.307269,-1.4629691 q 0.03669,-0.1605138 0.03669,-0.2659944 0,-0.2751666 -0.243064,-0.2751666 -0.151341,0 -0.275166,0.1329972 -0.123825,0.1284111 -0.215548,0.3485444 -0.08714,0.2201333 -0.146755,0.4861277 l -0.220133,1.0364608 z"
         id="path981" /><path
         d="m 21.470745,6.0407837 q -0.440266,0 -0.715433,-0.2384777 -0.275167,-0.2430638 -0.275167,-0.7291915 0,-0.3164416 0.08714,-0.6053665 0.09172,-0.2935111 0.265995,-0.5228166 0.178858,-0.2293055 0.440266,-0.3623027 0.261409,-0.1375833 0.605367,-0.1375833 0.421922,0 0.628297,0.1926166 0.210961,0.1926167 0.210961,0.4907138 0,0.3944055 -0.357716,0.6328832 -0.353131,0.2384777 -1.082322,0.2384777 h -0.114653 q -0.0046,0.027517 -0.0046,0.050447 0,0.018344 0,0.041275 0,0.2017889 0.114652,0.3210278 0.119239,0.1192388 0.3302,0.1192388 0.197203,0 0.357717,-0.045861 0.160514,-0.045861 0.380647,-0.1467555 v 0.5090582 q -0.197203,0.096308 -0.398991,0.1467555 -0.201789,0.045861 -0.47237,0.045861 z M 21.337748,4.5457118 q 0.389819,0 0.559505,-0.1192388 0.174273,-0.123825 0.174273,-0.2843388 0,-0.2109611 -0.233892,-0.2109611 -0.123825,0 -0.24765,0.077964 -0.123825,0.077964 -0.220133,0.2155471 -0.09172,0.1375833 -0.132997,0.3210277 z"
         id="path983" /><path
         d="m 22.915369,5.9949226 0.531989,-2.5040161 h 0.513644 l -0.04586,0.4631971 h 0.02293 q 0.151341,-0.2384777 0.343958,-0.3714749 0.192616,-0.1375833 0.43568,-0.1375833 0.05503,0 0.114653,0.00917 0.06421,0.00459 0.100894,0.013758 l -0.146755,0.6512276 q -0.03669,-0.013758 -0.09631,-0.02293 -0.05962,-0.013758 -0.128412,-0.013758 -0.252236,0 -0.454024,0.2017889 -0.197203,0.1972027 -0.279753,0.5916082 l -0.238478,1.1190108 z"
         id="path985" /><path
         d="m 25.804612,6.0407837 q -0.256822,0 -0.47237,-0.091722 -0.210961,-0.096308 -0.334786,-0.2980971 -0.123825,-0.2017889 -0.123825,-0.5319888 0,-0.3393721 0.08714,-0.6374693 0.08714,-0.3026833 0.256822,-0.5365749 0.169686,-0.2338916 0.417336,-0.3668888 0.24765,-0.1329972 0.564091,-0.1329972 0.22472,0 0.398992,0.041275 0.178858,0.041275 0.334786,0.1192389 L 26.72642,4.1192036 q -0.119239,-0.050447 -0.238478,-0.087136 -0.114653,-0.041275 -0.261408,-0.041275 -0.210961,0 -0.362303,0.1605139 -0.151341,0.1559277 -0.229305,0.4035777 -0.07796,0.2430638 -0.07796,0.5090582 0,0.210961 0.100894,0.3210277 0.100895,0.1100666 0.284339,0.1100666 0.169686,0 0.311856,-0.050447 0.146755,-0.055033 0.302683,-0.1329972 v 0.5503332 q -0.155928,0.08255 -0.339372,0.1329972 -0.178859,0.045861 -0.41275,0.045861 z"
         id="path987" /><path
         d="M 26.969484,5.9949226 27.707848,2.509479 h 0.674158 l -0.128411,0.6053665 q -0.01834,0.1008944 -0.05503,0.2338916 -0.03669,0.1329972 -0.07338,0.2614083 -0.03669,0.123825 -0.06879,0.2155472 h 0.01835 q 0.137583,-0.1742722 0.307269,-0.2751667 0.169686,-0.1054805 0.394406,-0.1054805 0.325613,0 0.486127,0.1972027 0.160514,0.1926167 0.160514,0.5228166 0,0.1651 -0.05045,0.4035777 L 29.074509,5.9949226 H 28.400351 L 28.70762,4.5319535 q 0.03669,-0.1605138 0.03669,-0.2659944 0,-0.2751666 -0.243064,-0.2751666 -0.151342,0 -0.275167,0.1329972 -0.123825,0.1284111 -0.215547,0.3485444 -0.08714,0.2201333 -0.146755,0.4861277 l -0.220134,1.0364608 z"
         id="path989" /><path
         d="m 30.849335,6.0407837 q -0.440267,0 -0.715433,-0.2384777 -0.275167,-0.2430638 -0.275167,-0.7291915 0,-0.3164416 0.08714,-0.6053665 0.09172,-0.2935111 0.265995,-0.5228166 0.178858,-0.2293055 0.440266,-0.3623027 0.261408,-0.1375833 0.605367,-0.1375833 0.421922,0 0.628297,0.1926166 0.210961,0.1926167 0.210961,0.4907138 0,0.3944055 -0.357717,0.6328832 -0.35313,0.2384777 -1.082322,0.2384777 h -0.114653 q -0.0046,0.027517 -0.0046,0.050447 0,0.018344 0,0.041275 0,0.2017889 0.114653,0.3210278 0.119239,0.1192388 0.3302,0.1192388 0.197203,0 0.357717,-0.045861 0.160513,-0.045861 0.380647,-0.1467555 v 0.5090582 q -0.197203,0.096308 -0.398992,0.1467555 -0.201789,0.045861 -0.472369,0.045861 z M 30.716338,4.5457118 q 0.389819,0 0.559505,-0.1192388 0.174272,-0.123825 0.174272,-0.2843388 0,-0.2109611 -0.233891,-0.2109611 -0.123825,0 -0.24765,0.077964 -0.123825,0.077964 -0.220134,0.2155471 -0.09172,0.1375833 -0.132997,0.3210277 z"
         id="path991" /></g><g
       aria-label="MASCOT-NUM"
       id="text2344"
       style="font-weight:bold;font-size:9.87778px;font-family:Ubuntu;-inkscape-font-specification:'Ubuntu, Bold';fill:#f9f9f9;stroke:#000000;stroke-width:0.264999"><path
         d="m -27.64458,8.6751491 q 0.1778,0.3259667 0.404989,0.8099779 0.237067,0.4741335 0.484011,1.037167 0.256823,0.553156 0.503767,1.135945 0.246945,0.582789 0.464256,1.096433 0.217311,-0.513644 0.464256,-1.096433 0.246944,-0.582789 0.493889,-1.135945 0.256822,-0.5630335 0.484011,-1.037167 0.237067,-0.4840112 0.414867,-0.8099779 h 1.402644 q 0.09878,0.6815668 0.1778,1.5310559 0.0889,0.839611 0.148167,1.758245 0.06915,0.908756 0.118533,1.827389 0.05927,0.918634 0.09878,1.728612 h -1.501422 q -0.02963,-0.997656 -0.07902,-2.173112 -0.04939,-1.175456 -0.148166,-2.370667 -0.1778,0.414867 -0.395111,0.918633 -0.217312,0.503767 -0.434623,1.007534 -0.207433,0.503767 -0.404989,0.968022 -0.197555,0.454378 -0.335844,0.780345 h -1.076678 q -0.138289,-0.325967 -0.335845,-0.780345 -0.197555,-0.464255 -0.414867,-0.968022 -0.207433,-0.503767 -0.424744,-1.007534 -0.217311,-0.503766 -0.395111,-0.918633 -0.09878,1.195211 -0.148167,2.370667 -0.04939,1.175456 -0.07902,2.173112 h -1.501423 q 0.03951,-0.809978 0.0889,-1.728612 0.05927,-0.918633 0.118534,-1.827389 0.06914,-0.918634 0.148166,-1.758245 0.0889,-0.8494891 0.187678,-1.5310559 z"
         style="stroke-width:0.265"
         id="path930" /><path
         d="m -16.018439,15.520451 q -0.108656,-0.3556 -0.246945,-0.730956 -0.128411,-0.375356 -0.256822,-0.750711 h -2.667001 q -0.128411,0.375355 -0.2667,0.750711 -0.128411,0.375356 -0.237066,0.730956 h -1.600201 q 0.385234,-1.106312 0.730956,-2.044701 0.345722,-0.938389 0.671689,-1.768122 0.335845,-0.829734 0.651933,-1.570567 0.325967,-0.7507118 0.67169,-1.4619119 h 1.471789 q 0.335844,0.7112001 0.661811,1.4619119 0.325967,0.740833 0.651933,1.570567 0.335845,0.829733 0.681567,1.768122 0.345723,0.938389 0.730956,2.044701 z m -1.847145,-5.29449 q -0.04939,0.148166 -0.148167,0.404989 -0.09878,0.256822 -0.227189,0.592666 -0.128411,0.335845 -0.286455,0.740834 -0.148167,0.404989 -0.306212,0.849489 h 1.945923 q -0.158044,-0.4445 -0.306211,-0.849489 -0.148167,-0.404989 -0.286456,-0.740834 -0.128411,-0.335844 -0.227189,-0.592666 -0.09878,-0.256823 -0.158044,-0.404989 z"
         style="stroke-width:0.265"
         id="path932" /><path
         d="m -11.425273,14.344995 q 0.325967,0 0.5334,-0.04939 0.217312,-0.05927 0.345723,-0.148167 0.128411,-0.09878 0.1778,-0.227189 0.04939,-0.128411 0.04939,-0.286455 0,-0.335845 -0.316089,-0.553156 -0.316089,-0.227189 -1.086556,-0.484011 -0.335845,-0.118534 -0.671689,-0.2667 -0.335845,-0.158045 -0.602545,-0.385234 -0.2667,-0.237066 -0.434622,-0.563033 -0.167922,-0.335845 -0.167922,-0.809978 0,-0.474134 0.1778,-0.8494892 0.1778,-0.3852335 0.503766,-0.6519335 0.325967,-0.2667001 0.790223,-0.404989 0.464256,-0.1481667 1.047045,-0.1481667 0.691444,0 1.1952109,0.1481667 0.5037668,0.1481667 0.8297335,0.3259667 l -0.4445001,1.214967 q -0.2864556,-0.148167 -0.6420553,-0.2568223 -0.345723,-0.1185334 -0.839612,-0.1185334 -0.553155,0 -0.8001,0.1580445 -0.237067,0.1481672 -0.237067,0.4642552 0,0.187678 0.0889,0.316089 0.0889,0.128412 0.246945,0.237067 0.167922,0.09878 0.375356,0.187678 0.217311,0.07902 0.474133,0.167922 0.5334,0.197556 0.9285114,0.395111 0.3951112,0.187678 0.6519334,0.444501 0.2667001,0.256822 0.3951112,0.602544 0.1284112,0.345722 0.1284112,0.839611 0,0.958145 -0.6716891,1.491545 -0.6716891,0.523523 -2.0249451,0.523523 -0.454378,0 -0.819855,-0.05927 -0.365478,-0.04939 -0.651934,-0.128411 -0.276578,-0.07902 -0.484011,-0.167923 -0.197556,-0.0889 -0.335845,-0.167922 l 0.434623,-1.224845 q 0.306211,0.167923 0.750711,0.306212 0.454378,0.128411 1.106311,0.128411 z"
         style="stroke-width:0.265"
         id="path934" /><path
         d="m -4.42192,15.65874 q -1.6693448,0 -2.5484673,-0.928512 -0.8692446,-0.928511 -0.8692446,-2.637367 0,-0.849489 0.2667001,-1.5113 0.2667,-0.6716894 0.7309557,-1.1260673 0.4642556,-0.4642557 1.1063113,-0.7013224 0.6420557,-0.2370667 1.392767,-0.2370667 0.4346223,0 0.7902224,0.069145 0.3556001,0.059267 0.6223001,0.1481667 0.2667001,0.079022 0.4445001,0.1679222 0.1778001,0.0889 0.2568223,0.1382889 L -2.673553,10.285227 Q -2.9896419,10.117305 -3.4143865,9.9987716 -3.8292532,9.8802382 -4.3626533,9.8802382 q -0.3556001,0 -0.7013224,0.1185334 -0.3358445,0.1185334 -0.6025446,0.3852334 -0.2568223,0.256822 -0.4148668,0.671689 -0.1580444,0.414867 -0.1580444,1.007534 0,0.474133 0.098778,0.889 0.1086555,0.404989 0.3358445,0.701322 0.2370667,0.296334 0.6124223,0.474134 0.3753557,0.167922 0.9087558,0.167922 0.3358445,0 0.6025446,-0.03951 0.2667,-0.03951 0.4741334,-0.0889 0.2074334,-0.05927 0.3654779,-0.128411 0.1580444,-0.06914 0.2864556,-0.128412 l 0.4247445,1.234723 q -0.3259667,0.197556 -0.9186335,0.3556 -0.5926668,0.158045 -1.3730114,0.158045 z"
         style="stroke-width:0.265"
         id="path936" /><path
         d="m -0.0954416,12.092861 q 0,0.503767 0.11853336,0.908756 0.12841114,0.404989 0.35560008,0.701322 0.23706672,0.286456 0.57291124,0.4445 0.33584452,0.158045 0.77046682,0.158045 0.4247446,0 0.7605891,-0.158045 0.3457223,-0.158044 0.5729112,-0.4445 0.2370667,-0.296333 0.3556001,-0.701322 0.1284111,-0.404989 0.1284111,-0.908756 0,-0.503767 -0.1284111,-0.908756 Q 3.2926369,10.769238 3.0555702,10.482783 2.8283813,10.186449 2.482659,10.028405 2.1468145,9.8703605 1.7220699,9.8703605 q -0.4346223,0 -0.77046682,0.1679225 -0.33584452,0.158044 -0.57291124,0.454378 -0.22718894,0.286455 -0.35560008,0.701322 -0.11853336,0.404989 -0.11853336,0.898878 z m 5.2253456,0 q 0,0.879122 -0.2667001,1.550811 -0.2568222,0.661812 -0.7112001,1.11619 -0.4543779,0.4445 -1.0865558,0.671689 -0.6223001,0.227189 -1.3433781,0.227189 -0.7013224,0 -1.3236225,-0.227189 -0.62230014,-0.227189 -1.08655579,-0.671689 -0.46425571,-0.454378 -0.73095571,-1.11619 -0.2667001,-0.671689 -0.2667001,-1.550811 0,-0.879122 0.2765779,-1.540934 Q -1.1326085,9.8802382 -0.66835283,9.4258604 -0.1942194,8.9714825 0.41820296,8.7442935 1.0405031,8.5171046 1.7220699,8.5171046 q 0.7013224,0 1.3236225,0.2271889 0.6223002,0.227189 1.0865558,0.6815669 0.4642557,0.4543778 0.7309557,1.1260666 0.2667001,0.661812 0.2667001,1.540934 z"
         style="stroke-width:0.265"
         id="path938" /><path
         d="M 11.264006,8.6751491 V 9.9888938 H 9.1995498 V 15.520451 H 7.6586161 V 9.9888938 H 5.5941601 V 8.6751491 Z"
         style="stroke-width:0.265"
         id="path940" /><path
         d="m 11.165228,11.905183 h 2.864556 v 1.3335 h -2.864556 z"
         style="stroke-width:0.265"
         id="path942" /><path
         d="M 19.660122,15.520451 Q 18.99831,14.344995 18.227843,13.199172 17.457377,12.05335 16.588132,11.035938 v 4.484513 H 15.066954 V 8.6751491 h 1.254478 q 0.325967,0.3259667 0.721078,0.8001002 0.395111,0.4741334 0.8001,1.0174117 0.414867,0.5334 0.819856,1.116189 0.404989,0.572911 0.760589,1.106311 V 8.6751491 h 1.531056 v 6.8453019 z"
         style="stroke-width:0.265"
         id="path944" /><path
         d="m 25.211438,15.65874 q -0.721078,0 -1.2446,-0.197556 -0.523523,-0.207433 -0.869245,-0.563034 -0.335845,-0.365477 -0.503767,-0.859366 -0.158044,-0.503767 -0.158044,-1.106312 V 8.6751491 h 1.540933 v 4.1289119 q 0,0.414867 0.0889,0.7112 0.09878,0.286456 0.256823,0.474134 0.167922,0.1778 0.395111,0.256822 0.237067,0.07902 0.513644,0.07902 0.563034,0 0.908756,-0.345722 0.3556,-0.345722 0.3556,-1.175456 V 8.6751491 h 1.540934 v 4.2573229 q 0,0.602545 -0.167922,1.106312 -0.167923,0.503766 -0.513645,0.869244 -0.345722,0.3556 -0.879122,0.553156 -0.5334,0.197556 -1.264356,0.197556 z"
         style="stroke-width:0.265"
         id="path946" /><path
         d="m 31.335668,8.6751491 q 0.1778,0.3259667 0.404989,0.8099779 0.237066,0.4741335 0.484011,1.037167 0.256822,0.553156 0.503767,1.135945 0.246944,0.582789 0.464255,1.096433 0.217312,-0.513644 0.464256,-1.096433 0.246945,-0.582789 0.493889,-1.135945 0.256822,-0.5630335 0.484011,-1.037167 0.237067,-0.4840112 0.414867,-0.8099779 h 1.402645 q 0.09878,0.6815668 0.1778,1.5310559 0.0889,0.839611 0.148167,1.758245 0.06914,0.908756 0.118533,1.827389 0.05927,0.918634 0.09878,1.728612 h -1.501423 q -0.02963,-0.997656 -0.07902,-2.173112 -0.04939,-1.175456 -0.148167,-2.370667 -0.1778,0.414867 -0.395111,0.918633 -0.217311,0.503767 -0.434622,1.007534 -0.207434,0.503767 -0.404989,0.968022 -0.197556,0.454378 -0.335845,0.780345 h -1.076678 q -0.138289,-0.325967 -0.335844,-0.780345 -0.197556,-0.464255 -0.414867,-0.968022 -0.207433,-0.503767 -0.424745,-1.007534 -0.217311,-0.503766 -0.395111,-0.918633 -0.09878,1.195211 -0.148167,2.370667 -0.04939,1.175456 -0.07902,2.173112 h -1.501422 q 0.03951,-0.809978 0.0889,-1.728612 0.05927,-0.918633 0.118533,-1.827389 0.06914,-0.918634 0.148167,-1.758245 0.0889,-0.8494891 0.187678,-1.5310559 z"
         style="stroke-width:0.265"
         id="path948" /></g><g
       aria-label="Méthodes d'Analyse Stochastique pour
les Codes et Traitements Numériques"
       id="text2504"
       style="font-style:italic;font-size:3.175px;-inkscape-font-specification:'sans-serif, Italic';fill:#ececec;stroke-width:0.264999"><path
         d="m -16.542561,20.628981 0.479425,-2.26695 h 0.40005 l 0.219075,1.851025 h 0.0127 l 1.006475,-1.851025 h 0.434975 l -0.4699,2.26695 h -0.28575 l 0.28575,-1.3462 q 0.04445,-0.206375 0.08255,-0.37465 0.04128,-0.168275 0.06985,-0.269875 h -0.0063 l -1.0922,1.990725 h -0.225425 l -0.2413,-1.98755 h -0.0127 q -0.0063,0.0635 -0.02222,0.17145 -0.01588,0.104775 -0.0381,0.225425 -0.01905,0.117475 -0.04128,0.2286 l -0.288925,1.362075 z"
         id="path994" /><path
         d="m -13.231038,20.660731 q -0.295275,0 -0.4572,-0.17145 -0.15875,-0.174625 -0.15875,-0.4699 0,-0.2032 0.05715,-0.40005 0.06032,-0.200025 0.17145,-0.36195 0.111125,-0.1651 0.2667,-0.263525 0.15875,-0.09843 0.3556,-0.09843 0.2413,0 0.36195,0.104775 0.123825,0.104775 0.123825,0.2921 0,0.1651 -0.104775,0.301625 -0.1016,0.136525 -0.320675,0.219075 -0.219075,0.07937 -0.568325,0.07937 h -0.05398 q -0.0032,0.02858 -0.0063,0.06032 0,0.03175 0,0.05715 0,0.193675 0.09525,0.307975 0.09525,0.111125 0.288925,0.111125 0.12065,0 0.2286,-0.03493 0.10795,-0.03492 0.23495,-0.09525 v 0.238125 q -0.12065,0.05398 -0.238125,0.0889 -0.1143,0.03492 -0.276225,0.03492 z m -0.263525,-0.993775 q 0.1905,0 0.352425,-0.03175 0.161925,-0.03493 0.26035,-0.111125 0.09843,-0.07937 0.09843,-0.20955 0,-0.08255 -0.05715,-0.13335 -0.05398,-0.05397 -0.17145,-0.05397 -0.1524,0 -0.295275,0.142875 -0.1397,0.1397 -0.20955,0.396875 z m 0.371475,-1.0033 q 0.05715,-0.06032 0.12065,-0.142875 0.06668,-0.08255 0.127,-0.168275 0.0635,-0.08573 0.10795,-0.155575 h 0.3175 v 0.03175 q -0.04445,0.05397 -0.13335,0.14605 -0.08573,0.09207 -0.18415,0.18415 -0.09843,0.0889 -0.180975,0.14605 h -0.174625 z"
         style="stroke-width:0.265"
         id="path996" /><path
         d="m -11.827686,20.660731 q -0.17145,0 -0.288925,-0.08255 -0.117475,-0.08255 -0.117475,-0.288925 0,-0.1016 0.02858,-0.225425 l 0.193675,-0.923925 h -0.263525 l 0.0254,-0.127 0.28575,-0.12065 0.19685,-0.352425 h 0.1651 l -0.08573,0.38735 h 0.428625 l -0.04445,0.212725 h -0.42545 l -0.19685,0.9271 q -0.0095,0.04128 -0.01905,0.09525 -0.0095,0.0508 -0.0095,0.09525 0,0.07303 0.0381,0.123825 0.04128,0.0508 0.130175,0.0508 0.05715,0 0.111125,-0.0095 0.05397,-0.0127 0.1143,-0.03175 v 0.212725 q -0.0381,0.01905 -0.117475,0.0381 -0.07937,0.01905 -0.149225,0.01905 z"
         style="stroke-width:0.265"
         id="path998" /><path
         d="m -11.272059,20.628981 0.511175,-2.413 h 0.2794 l -0.136525,0.625475 q -0.01905,0.09525 -0.04763,0.200025 -0.02858,0.1016 -0.05397,0.2032 h 0.01587 q 0.06033,-0.07937 0.142875,-0.15875 0.08255,-0.07937 0.187325,-0.13335 0.10795,-0.05397 0.244475,-0.05397 0.1968504,0 0.3111504,0.111125 0.117475,0.10795 0.117475,0.32385 0,0.06033 -0.00953,0.123825 -0.00953,0.0635 -0.0254,0.136525 l -0.22225,1.03505 h -0.2794004 l 0.225425,-1.0668 q 0.028575,-0.142875 0.028575,-0.20955 0,-0.104775 -0.053975,-0.161925 -0.0508,-0.06032 -0.168275,-0.06032 -0.10795,0 -0.23495,0.0762 -0.123825,0.07303 -0.231775,0.2413 -0.104775,0.168275 -0.1651,0.447675 l -0.155575,0.733425 z"
         style="stroke-width:0.265"
         id="path1000" /><path
         d="m -8.7352321,20.654381 q -0.295275,0 -0.466725,-0.174625 -0.168275,-0.1778 -0.168275,-0.479425 0,-0.19685 0.053975,-0.390525 0.053975,-0.193675 0.15875,-0.352425 0.10795,-0.15875 0.2667,-0.254 0.161925,-0.09843 0.371475,-0.09843 0.29845,0 0.466725,0.1778 0.168275,0.174625 0.168275,0.479425 0,0.193675 -0.053975,0.38735 -0.053975,0.193675 -0.161925,0.352425 -0.104775,0.15875 -0.263525,0.257175 -0.15875,0.09525 -0.371475,0.09525 z m 0.015875,-0.231775 q 0.1524,0 0.276225,-0.104775 0.123825,-0.10795 0.19685,-0.307975 0.0762,-0.200025 0.0762,-0.479425 0,-0.09525 -0.034925,-0.18415 -0.03175,-0.09208 -0.10795,-0.149225 -0.0762,-0.06032 -0.2032,-0.06032 -0.174625,0 -0.3048,0.12065 -0.127,0.117475 -0.19685,0.3175 -0.06985,0.19685 -0.06985,0.434975 0,0.19685 0.09525,0.3048 0.098425,0.10795 0.27305,0.10795 z"
         style="stroke-width:0.265"
         id="path1002" /><path
         d="m -7.1223334,20.660731 q -0.2032,0 -0.333375,-0.14605 -0.127,-0.14605 -0.127,-0.434975 0,-0.23495 0.05715,-0.4445 0.05715,-0.212725 0.1651,-0.377825 0.111125,-0.168275 0.263525,-0.263525 0.155575,-0.09525 0.34925,-0.09525 0.17145,0 0.27305,0.0889 0.104775,0.08573 0.155575,0.2032 h 0.015875 q 0.015875,-0.10795 0.028575,-0.206375 0.015875,-0.09843 0.041275,-0.212725 l 0.117475,-0.555625 h 0.276225 l -0.511175,2.413 h -0.2286 l 0.034925,-0.314325 h -0.0127 q -0.1143,0.142875 -0.250825,0.244475 -0.136525,0.1016 -0.314325,0.1016 z m 0.09525,-0.231775 q 0.104775,0 0.212725,-0.0762 0.10795,-0.07937 0.200025,-0.212725 0.092075,-0.13335 0.14605,-0.3048 0.05715,-0.17145 0.05715,-0.36195 0,-0.1524 -0.0762,-0.24765 -0.073025,-0.09525 -0.2413,-0.09525 -0.127,0 -0.231775,0.08255 -0.1016,0.07937 -0.1778,0.2159 -0.0762,0.136525 -0.117475,0.307975 -0.041275,0.17145 -0.041275,0.34925 0,0.3429 0.269875,0.3429 z"
         style="stroke-width:0.265"
         id="path1004" /><path
         d="m -5.1284319,20.660731 q -0.295275,0 -0.4572,-0.17145 -0.15875,-0.174625 -0.15875,-0.4699 0,-0.2032 0.05715,-0.40005 0.060325,-0.200025 0.17145,-0.36195 0.111125,-0.1651 0.2667,-0.263525 0.15875,-0.09843 0.3556,-0.09843 0.2413,0 0.36195,0.104775 0.123825,0.104775 0.123825,0.2921 0,0.1651 -0.104775,0.301625 -0.1016,0.136525 -0.320675,0.219075 -0.219075,0.07937 -0.568325,0.07937 h -0.053975 q -0.00318,0.02858 -0.00635,0.06032 0,0.03175 0,0.05715 0,0.193675 0.09525,0.307975 0.09525,0.111125 0.288925,0.111125 0.12065,0 0.2286,-0.03493 0.10795,-0.03492 0.23495,-0.09525 v 0.238125 q -0.12065,0.05398 -0.238125,0.0889 -0.1143,0.03492 -0.276225,0.03492 z m -0.263525,-0.993775 q 0.1905,0 0.352425,-0.03175 0.161925,-0.03493 0.26035,-0.111125 0.098425,-0.07937 0.098425,-0.20955 0,-0.08255 -0.05715,-0.13335 -0.053975,-0.05397 -0.17145,-0.05397 -0.1524,0 -0.295275,0.142875 -0.1397,0.1397 -0.20955,0.396875 z"
         style="stroke-width:0.265"
         id="path1006" /><path
         d="m -3.8203302,20.660731 q -0.155575,0 -0.27305,-0.03175 -0.1143,-0.02858 -0.2032,-0.0762 v -0.257175 q 0.08255,0.0508 0.206375,0.09525 0.127,0.04127 0.26035,0.04127 0.187325,0 0.28575,-0.07302 0.098425,-0.0762 0.098425,-0.193675 0,-0.09208 -0.060325,-0.1524 -0.060325,-0.0635 -0.225425,-0.155575 -0.180975,-0.1016 -0.27305,-0.20955 -0.092075,-0.10795 -0.092075,-0.269875 0,-0.2159 0.155575,-0.34925 0.15875,-0.13335 0.422275,-0.13335 0.155575,0 0.28575,0.0381 0.13335,0.03493 0.2286,0.07938 l -0.0889,0.22225 q -0.08255,-0.0381 -0.18415,-0.06985 -0.1016,-0.03493 -0.2413,-0.03493 -0.136525,0 -0.219075,0.06668 -0.079375,0.0635 -0.079375,0.1651 0,0.08255 0.053975,0.14605 0.05715,0.06032 0.225425,0.1524 0.10795,0.0635 0.193675,0.127 0.085725,0.0635 0.13335,0.14605 0.0508,0.08255 0.0508,0.2032 0,0.257175 -0.180975,0.390525 -0.1778,0.13335 -0.479425,0.13335 z"
         style="stroke-width:0.265"
         id="path1008" /><path
         d="m -1.5025815,20.660731 q -0.2032,0 -0.3333749,-0.14605 -0.127,-0.14605 -0.127,-0.434975 0,-0.23495 0.05715,-0.4445 0.05715,-0.212725 0.1650999,-0.377825 0.111125,-0.168275 0.263525,-0.263525 0.155575,-0.09525 0.34925,-0.09525 0.17145004,0 0.27305004,0.0889 0.10477499,0.08573 0.15557499,0.2032 h 0.015875 q 0.015875,-0.10795 0.028575,-0.206375 0.015875,-0.09843 0.041275,-0.212725 l 0.117475,-0.555625 h 0.276225 l -0.511175,2.413 h -0.22859999 l 0.034925,-0.314325 h -0.0127 q -0.11430004,0.142875 -0.25082504,0.244475 -0.136525,0.1016 -0.314325,0.1016 z m 0.09525,-0.231775 q 0.104775,0 0.212725,-0.0762 0.10795,-0.07937 0.20002504,-0.212725 0.092075,-0.13335 0.14605,-0.3048 0.05715,-0.17145 0.05715,-0.36195 0,-0.1524 -0.0762,-0.24765 -0.073025,-0.09525 -0.24130004,-0.09525 -0.127,0 -0.231775,0.08255 -0.1016,0.07937 -0.1778,0.2159 -0.0762,0.136525 -0.117475,0.307975 -0.041275,0.17145 -0.041275,0.34925 0,0.3429 0.269875,0.3429 z"
         style="stroke-width:0.265"
         id="path1010" /><path
         d="m 0.06904405,19.181181 0.111125,-0.81915 h 0.30479999 l -0.23812499,0.81915 z"
         style="stroke-width:0.265"
         id="path1012" /><path
         d="m 0.24049183,20.628981 1.23189997,-2.26695 h 0.29845 l 0.2794,2.26695 h -0.2794 l -0.085725,-0.70485 H 0.91994182 l -0.36829999,0.70485 z m 0.81597497,-0.95885 h 0.600075 l -0.0508,-0.47625 q -0.0127,-0.12065 -0.0254,-0.2667 -0.00953,-0.14605 -0.0127,-0.257175 h -0.00953 q -0.0508,0.12065 -0.117475,0.26035 -0.066675,0.136525 -0.1397,0.276225 z"
         id="path1014" /><path
         d="m 2.2820182,20.628981 0.365125,-1.711325 h 0.24765 l -0.034925,0.314325 h 0.00317 q 0.060325,-0.07938 0.1397,-0.15875 0.08255,-0.07937 0.1905,-0.13335 0.10795,-0.05398 0.244475,-0.05398 0.206375,0 0.320675,0.1143 0.117475,0.111125 0.117475,0.314325 0,0.07303 -0.0127,0.149225 -0.00953,0.0762 -0.022225,0.13335 l -0.225425,1.031875 h -0.29845 l 0.2286,-1.069975 q 0.015875,-0.07303 0.022225,-0.12065 0.00953,-0.0508 0.00953,-0.09525 0,-0.2032 -0.2159,-0.2032 -0.104775,0 -0.2286,0.07303 -0.12065,0.07302 -0.2286,0.238125 -0.104775,0.1651 -0.1651,0.4445 l -0.15875,0.733425 z"
         style="stroke-width:0.265"
         id="path1016" /><path
         d="m 4.6569206,20.660731 q -0.2032,0 -0.333375,-0.14605 -0.127,-0.149225 -0.127,-0.434975 0,-0.238125 0.060325,-0.45085 0.0635,-0.2159 0.174625,-0.377825 0.111125,-0.1651 0.263525,-0.26035 0.1524,-0.09525 0.33655,-0.09525 0.168275,0 0.27305,0.0889 0.104775,0.0889 0.155575,0.206375 h 0.015875 l 0.1016,-0.263525 h 0.212725 l -0.36195,1.7018 h -0.22225 l 0.041275,-0.314325 h -0.0127 q -0.10795,0.1397 -0.254,0.244475 -0.14605,0.1016 -0.32385,0.1016 z m 0.092075,-0.231775 q 0.117475,0 0.2286,-0.08573 0.1143,-0.08573 0.206375,-0.231775 0.092075,-0.14605 0.1397,-0.327025 0.0254,-0.09208 0.03175,-0.168275 0.00953,-0.07937 0.00953,-0.14605 0,-0.149225 -0.08255,-0.244475 -0.08255,-0.09525 -0.22225,-0.09525 -0.123825,0 -0.2286,0.07937 -0.104775,0.0762 -0.18415,0.212725 -0.079375,0.13335 -0.123825,0.3048 -0.041275,0.17145 -0.041275,0.358775 0,0.17145 0.06985,0.257175 0.06985,0.08573 0.19685,0.08573 z"
         style="stroke-width:0.265"
         id="path1018" /><path
         d="m 5.9332725,20.628981 0.51435,-2.413 h 0.2794 l -0.51435,2.413 z"
         style="stroke-width:0.265"
         id="path1020" /><path
         d="m 6.5873196,21.390981 q -0.0762,0 -0.123825,-0.0095 -0.0508,-0.0095 -0.09525,-0.02222 v -0.225425 q 0.04445,0.0127 0.09525,0.01905 0.0508,0.0095 0.10795,0.0095 0.130175,0 0.219075,-0.07937 0.092075,-0.07938 0.174625,-0.231775 l 0.111125,-0.19685 -0.257175,-1.7272 h 0.2794 l 0.111125,0.841375 q 0.015875,0.1016 0.022225,0.225425 0.00953,0.12065 0.0127,0.231775 0.00635,0.10795 0.00635,0.174625 h 0.00953 q 0.022225,-0.0508 0.0635,-0.1524 0.04445,-0.1016 0.09525,-0.20955 0.0508,-0.10795 0.0889,-0.1778 l 0.4953,-0.93345 h 0.29845 l -1.0795,1.98755 q -0.127,0.238125 -0.269875,0.3556 -0.1397,0.12065 -0.365125,0.12065 z"
         style="stroke-width:0.265"
         id="path1022" /><path
         d="m 8.6415486,20.660731 q -0.155575,0 -0.27305,-0.03175 -0.1143,-0.02858 -0.2032,-0.0762 v -0.257175 q 0.08255,0.0508 0.206375,0.09525 0.127,0.04127 0.26035,0.04127 0.187325,0 0.28575,-0.07302 0.098425,-0.0762 0.098425,-0.193675 0,-0.09208 -0.060325,-0.1524 -0.060325,-0.0635 -0.225425,-0.155575 -0.180975,-0.1016 -0.27305,-0.20955 -0.092075,-0.10795 -0.092075,-0.269875 0,-0.2159 0.155575,-0.34925 0.15875,-0.13335 0.422275,-0.13335 0.155575,0 0.28575,0.0381 0.13335,0.03493 0.2286,0.07938 l -0.0889,0.22225 q -0.08255,-0.0381 -0.18415,-0.06985 -0.1016,-0.03493 -0.2413,-0.03493 -0.136525,0 -0.219075,0.06668 -0.079375,0.0635 -0.079375,0.1651 0,0.08255 0.053975,0.14605 0.05715,0.06032 0.225425,0.1524 0.10795,0.0635 0.193675,0.127 0.085725,0.0635 0.13335,0.14605 0.0508,0.08255 0.0508,0.2032 0,0.257175 -0.180975,0.390525 -0.1778,0.13335 -0.479425,0.13335 z"
         style="stroke-width:0.265"
         id="path1024" /><path
         d="m 10.289371,20.660731 q -0.2952751,0 -0.4572001,-0.17145 -0.15875,-0.174625 -0.15875,-0.4699 0,-0.2032 0.05715,-0.40005 0.060325,-0.200025 0.17145,-0.36195 0.1111251,-0.1651 0.2667001,-0.263525 0.15875,-0.09843 0.3556,-0.09843 0.2413,0 0.36195,0.104775 0.123825,0.104775 0.123825,0.2921 0,0.1651 -0.104775,0.301625 -0.1016,0.136525 -0.320675,0.219075 -0.219075,0.07937 -0.568325,0.07937 h -0.053975 q -0.00318,0.02858 -0.00635,0.06032 0,0.03175 0,0.05715 0,0.193675 0.09525,0.307975 0.09525,0.111125 0.288925,0.111125 0.12065,0 0.2286,-0.03493 0.10795,-0.03492 0.23495,-0.09525 v 0.238125 q -0.12065,0.05398 -0.238125,0.0889 -0.1143,0.03492 -0.276225,0.03492 z m -0.263525,-0.993775 q 0.1905,0 0.352425,-0.03175 0.161925,-0.03493 0.26035,-0.111125 0.09842,-0.07937 0.09842,-0.20955 0,-0.08255 -0.05715,-0.13335 -0.05397,-0.05397 -0.17145,-0.05397 -0.1524,0 -0.295275,0.142875 -0.1397,0.1397 -0.20955,0.396875 z"
         style="stroke-width:0.265"
         id="path1026" /><path
         d="m 12.518224,20.660731 q -0.1651,0 -0.2921,-0.0254 -0.123825,-0.0254 -0.23495,-0.0762 v -0.2794 q 0.09525,0.0508 0.225425,0.09207 0.13335,0.04127 0.3048,0.04127 0.142875,0 0.263525,-0.04445 0.12065,-0.04445 0.193675,-0.136525 0.07302,-0.09208 0.07302,-0.238125 0,-0.127 -0.08573,-0.2159 -0.08255,-0.09208 -0.288925,-0.20955 -0.12065,-0.07303 -0.2159,-0.149225 -0.09207,-0.07937 -0.14605,-0.180975 -0.0508,-0.104775 -0.0508,-0.250825 0,-0.20955 0.1016,-0.3556 0.1016,-0.149225 0.269875,-0.225425 0.17145,-0.0762 0.37465,-0.0762 0.1778,0 0.31115,0.03493 0.136525,0.03492 0.257175,0.09842 l -0.10795,0.2413 q -0.08255,-0.04445 -0.206375,-0.08255 -0.123825,-0.04128 -0.254,-0.04128 -0.193675,0 -0.320675,0.1016 -0.123825,0.1016 -0.123825,0.28575 0,0.09525 0.03492,0.161925 0.03493,0.0635 0.10795,0.117475 0.07302,0.0508 0.180975,0.117475 0.136525,0.08255 0.238125,0.161925 0.104775,0.07937 0.161925,0.18415 0.06032,0.104775 0.06032,0.26035 0,0.339725 -0.2286,0.51435 -0.225425,0.174625 -0.60325,0.174625 z"
         id="path1028" /><path
         d="m 14.121595,20.660731 q -0.17145,0 -0.288925,-0.08255 -0.117475,-0.08255 -0.117475,-0.288925 0,-0.1016 0.02858,-0.225425 l 0.193675,-0.923925 H 13.67392 l 0.0254,-0.127 0.28575,-0.12065 0.19685,-0.352425 h 0.1651 l -0.08573,0.38735 h 0.428625 l -0.04445,0.212725 h -0.42545 l -0.19685,0.9271 q -0.0095,0.04128 -0.01905,0.09525 -0.0095,0.0508 -0.0095,0.09525 0,0.07303 0.0381,0.123825 0.04127,0.0508 0.130175,0.0508 0.05715,0 0.111125,-0.0095 0.05398,-0.0127 0.1143,-0.03175 v 0.212725 q -0.0381,0.01905 -0.117475,0.0381 -0.07938,0.01905 -0.149225,0.01905 z"
         style="stroke-width:0.265"
         id="path1030" /><path
         d="m 15.375724,20.654381 q -0.295275,0 -0.466725,-0.174625 -0.168275,-0.1778 -0.168275,-0.479425 0,-0.19685 0.05397,-0.390525 0.05398,-0.193675 0.15875,-0.352425 0.10795,-0.15875 0.2667,-0.254 0.161925,-0.09843 0.371475,-0.09843 0.29845,0 0.466725,0.1778 0.168275,0.174625 0.168275,0.479425 0,0.193675 -0.05398,0.38735 -0.05398,0.193675 -0.161925,0.352425 -0.104775,0.15875 -0.263525,0.257175 -0.15875,0.09525 -0.371475,0.09525 z m 0.01587,-0.231775 q 0.1524,0 0.276225,-0.104775 0.123825,-0.10795 0.19685,-0.307975 0.0762,-0.200025 0.0762,-0.479425 0,-0.09525 -0.03493,-0.18415 -0.03175,-0.09208 -0.10795,-0.149225 -0.0762,-0.06032 -0.2032,-0.06032 -0.174625,0 -0.3048,0.12065 -0.127,0.117475 -0.19685,0.3175 -0.06985,0.19685 -0.06985,0.434975 0,0.19685 0.09525,0.3048 0.09843,0.10795 0.27305,0.10795 z"
         style="stroke-width:0.265"
         id="path1032" /><path
         d="m 17.160074,20.660731 q -0.282575,0 -0.4572,-0.15875 -0.174625,-0.15875 -0.174625,-0.47625 0,-0.2286 0.06033,-0.4318 0.0635,-0.206375 0.1778,-0.36195 0.117475,-0.155575 0.282575,-0.244475 0.1651,-0.09208 0.3683,-0.09208 0.111125,0 0.22225,0.02223 0.111125,0.02222 0.200025,0.06032 l -0.07938,0.231775 q -0.0635,-0.02858 -0.1524,-0.05397 -0.08573,-0.0254 -0.187325,-0.0254 -0.180975,0 -0.3175,0.123825 -0.136525,0.12065 -0.212725,0.32385 -0.0762,0.2032 -0.0762,0.4445 0,0.193675 0.09843,0.301625 0.1016,0.104775 0.276225,0.104775 0.111125,0 0.20955,-0.03175 0.1016,-0.03175 0.200025,-0.07303 v 0.23495 q -0.0889,0.04445 -0.200025,0.07302 -0.10795,0.02858 -0.238125,0.02858 z"
         style="stroke-width:0.265"
         id="path1034" /><path
         d="m 17.903019,20.628981 0.511175,-2.413 h 0.2794 l -0.136525,0.625475 q -0.01905,0.09525 -0.04763,0.200025 -0.02858,0.1016 -0.05397,0.2032 h 0.01587 q 0.06033,-0.07937 0.142875,-0.15875 0.08255,-0.07937 0.187325,-0.13335 0.10795,-0.05397 0.244475,-0.05397 0.19685,0 0.31115,0.111125 0.117475,0.10795 0.117475,0.32385 0,0.06033 -0.0095,0.123825 -0.0095,0.0635 -0.0254,0.136525 l -0.22225,1.03505 h -0.2794 l 0.225425,-1.0668 q 0.02858,-0.142875 0.02858,-0.20955 0,-0.104775 -0.05398,-0.161925 -0.0508,-0.06032 -0.168275,-0.06032 -0.10795,0 -0.23495,0.0762 -0.123825,0.07303 -0.231775,0.2413 -0.104775,0.168275 -0.1651,0.447675 l -0.155575,0.733425 z"
         style="stroke-width:0.265"
         id="path1036" /><path
         d="m 20.26522,20.660731 q -0.2032,0 -0.333375,-0.14605 -0.127,-0.149225 -0.127,-0.434975 0,-0.238125 0.06032,-0.45085 0.0635,-0.2159 0.174625,-0.377825 0.111125,-0.1651 0.263525,-0.26035 0.1524,-0.09525 0.33655,-0.09525 0.168275,0 0.27305,0.0889 0.104775,0.0889 0.155575,0.206375 h 0.01588 l 0.1016,-0.263525 h 0.212725 l -0.36195,1.7018 h -0.22225 l 0.04127,-0.314325 h -0.0127 q -0.10795,0.1397 -0.254,0.244475 -0.14605,0.1016 -0.32385,0.1016 z m 0.09208,-0.231775 q 0.117475,0 0.2286,-0.08573 0.1143,-0.08573 0.206375,-0.231775 0.09208,-0.14605 0.1397,-0.327025 0.0254,-0.09208 0.03175,-0.168275 0.0095,-0.07937 0.0095,-0.14605 0,-0.149225 -0.08255,-0.244475 -0.08255,-0.09525 -0.22225,-0.09525 -0.123825,0 -0.2286,0.07937 -0.104775,0.0762 -0.18415,0.212725 -0.07937,0.13335 -0.123825,0.3048 -0.04127,0.17145 -0.04127,0.358775 0,0.17145 0.06985,0.257175 0.06985,0.08573 0.19685,0.08573 z"
         style="stroke-width:0.265"
         id="path1038" /><path
         d="m 21.947972,20.660731 q -0.155575,0 -0.27305,-0.03175 -0.1143,-0.02858 -0.2032,-0.0762 v -0.257175 q 0.08255,0.0508 0.206375,0.09525 0.127,0.04127 0.26035,0.04127 0.187325,0 0.28575,-0.07302 0.09842,-0.0762 0.09842,-0.193675 0,-0.09208 -0.06032,-0.1524 -0.06032,-0.0635 -0.225425,-0.155575 -0.180975,-0.1016 -0.27305,-0.20955 -0.09208,-0.10795 -0.09208,-0.269875 0,-0.2159 0.155575,-0.34925 0.15875,-0.13335 0.422275,-0.13335 0.155575,0 0.28575,0.0381 0.13335,0.03493 0.2286,0.07938 l -0.0889,0.22225 q -0.08255,-0.0381 -0.18415,-0.06985 -0.1016,-0.03493 -0.2413,-0.03493 -0.136525,0 -0.219075,0.06668 -0.07938,0.0635 -0.07938,0.1651 0,0.08255 0.05398,0.14605 0.05715,0.06032 0.225425,0.1524 0.10795,0.0635 0.193675,0.127 0.08573,0.0635 0.13335,0.14605 0.0508,0.08255 0.0508,0.2032 0,0.257175 -0.180975,0.390525 -0.1778,0.13335 -0.479425,0.13335 z"
         style="stroke-width:0.265"
         id="path1040" /><path
         d="m 23.414819,20.660731 q -0.17145,0 -0.288925,-0.08255 -0.117475,-0.08255 -0.117475,-0.288925 0,-0.1016 0.02858,-0.225425 l 0.193675,-0.923925 h -0.263525 l 0.0254,-0.127 0.28575,-0.12065 0.19685,-0.352425 h 0.1651 l -0.08573,0.38735 h 0.428625 l -0.04445,0.212725 h -0.42545 l -0.19685,0.9271 q -0.0095,0.04128 -0.01905,0.09525 -0.0095,0.0508 -0.0095,0.09525 0,0.07303 0.0381,0.123825 0.04128,0.0508 0.130175,0.0508 0.05715,0 0.111125,-0.0095 0.05397,-0.0127 0.1143,-0.03175 v 0.212725 q -0.0381,0.01905 -0.117475,0.0381 -0.07937,0.01905 -0.149225,0.01905 z"
         style="stroke-width:0.265"
         id="path1042" /><path
         d="m 24.557823,18.644606 q -0.06668,0 -0.111125,-0.0381 -0.04128,-0.04127 -0.04128,-0.111125 0,-0.08255 0.04763,-0.142875 0.0508,-0.06033 0.1397,-0.06033 0.14605,0 0.14605,0.142875 0,0.09842 -0.05715,0.155575 -0.05715,0.05398 -0.123825,0.05398 z m -0.587375,1.984375 0.36195,-1.7018 h 0.2794 l -0.36195,1.7018 z"
         style="stroke-width:0.265"
         id="path1044" /><path
         d="m 25.799247,20.667081 q 0.01587,-0.06032 0.04127,-0.1651 0.02858,-0.10795 0.0508,-0.187325 h -0.0127 q -0.10795,0.1397 -0.24765,0.244475 -0.136525,0.1016 -0.314325,0.1016 -0.206375,0 -0.33655,-0.14605 -0.127,-0.14605 -0.127,-0.434975 0,-0.231775 0.05715,-0.4445 0.05715,-0.212725 0.1651,-0.377825 0.111125,-0.168275 0.2667,-0.263525 0.155575,-0.09843 0.34925,-0.09843 0.168275,0 0.269875,0.0889 0.104775,0.0889 0.155575,0.206375 h 0.01588 l 0.104775,-0.263525 h 0.20955 l -0.523875,2.4638 h -0.276225 z m -0.390525,-0.238125 q 0.104775,0 0.212725,-0.07937 0.10795,-0.07937 0.19685,-0.212725 0.09207,-0.136525 0.14605,-0.307975 0.05715,-0.17145 0.05715,-0.3556 0,-0.1397 -0.07303,-0.2413 -0.07302,-0.1016 -0.238125,-0.1016 -0.127,0 -0.231775,0.08255 -0.104775,0.07937 -0.180975,0.2159 -0.0762,0.136525 -0.117475,0.307975 -0.04128,0.17145 -0.04128,0.34925 0,0.3429 0.269875,0.3429 z"
         style="stroke-width:0.265"
         id="path1046" /><path
         d="m 27.139097,20.660731 q -0.193675,0 -0.31115,-0.10795 -0.1143,-0.10795 -0.1143,-0.314325 0,-0.07302 0.0095,-0.136525 0.0127,-0.06668 0.0254,-0.136525 l 0.22225,-1.038225 h 0.282575 l -0.2286,1.069975 q -0.02858,0.136525 -0.02858,0.212725 0,0.1016 0.0508,0.161925 0.05398,0.05715 0.17145,0.05715 0.10795,0 0.231775,-0.0762 0.127,-0.0762 0.23495,-0.244475 0.10795,-0.168275 0.168275,-0.447675 l 0.155575,-0.733425 h 0.276225 l -0.36195,1.7018 h -0.2286 l 0.03493,-0.314325 h -0.01588 q -0.06032,0.0762 -0.142875,0.15875 -0.07937,0.07937 -0.187325,0.13335 -0.104775,0.05397 -0.244475,0.05397 z"
         style="stroke-width:0.265"
         id="path1048" /><path
         d="m 29.145698,20.660731 q -0.295275,0 -0.4572,-0.17145 -0.15875,-0.174625 -0.15875,-0.4699 0,-0.2032 0.05715,-0.40005 0.06032,-0.200025 0.17145,-0.36195 0.111125,-0.1651 0.2667,-0.263525 0.15875,-0.09843 0.3556,-0.09843 0.2413,0 0.36195,0.104775 0.123825,0.104775 0.123825,0.2921 0,0.1651 -0.104775,0.301625 -0.1016,0.136525 -0.320675,0.219075 -0.219075,0.07937 -0.568325,0.07937 h -0.05398 q -0.0032,0.02858 -0.0064,0.06032 0,0.03175 0,0.05715 0,0.193675 0.09525,0.307975 0.09525,0.111125 0.288925,0.111125 0.12065,0 0.2286,-0.03493 0.10795,-0.03492 0.23495,-0.09525 v 0.238125 q -0.12065,0.05398 -0.238125,0.0889 -0.1143,0.03492 -0.276225,0.03492 z m -0.263525,-0.993775 q 0.1905,0 0.352425,-0.03175 0.161925,-0.03493 0.26035,-0.111125 0.09842,-0.07937 0.09842,-0.20955 0,-0.08255 -0.05715,-0.13335 -0.05398,-0.05397 -0.17145,-0.05397 -0.1524,0 -0.295275,0.142875 -0.1397,0.1397 -0.20955,0.396875 z"
         style="stroke-width:0.265"
         id="path1050" /><path
         d="m 30.717326,21.390981 0.5207,-2.4638 h 0.2286 l -0.0381,0.3175 h 0.0127 q 0.111125,-0.1397 0.250825,-0.2413 0.1397,-0.104775 0.3175,-0.104775 0.206375,0 0.333375,0.14605 0.127,0.14605 0.127,0.434975 0,0.231775 -0.05715,0.4445 -0.05715,0.212725 -0.1651,0.381 -0.10795,0.1651 -0.263525,0.26035 -0.1524,0.09525 -0.3429,0.09525 -0.17145,0 -0.276225,-0.08573 -0.104775,-0.0889 -0.15875,-0.206375 h -0.01587 q -0.0032,0.0508 -0.01588,0.142875 -0.0127,0.0889 -0.0254,0.14605 l -0.155575,0.733425 z m 0.9017,-0.962025 q 0.127,0 0.231775,-0.07937 0.104775,-0.08255 0.1778,-0.219075 0.0762,-0.136525 0.1143,-0.307975 0.04127,-0.17145 0.04127,-0.34925 0,-0.3429 -0.269875,-0.3429 -0.104775,0 -0.2159,0.07937 -0.10795,0.0762 -0.200025,0.20955 -0.09208,0.13335 -0.149225,0.3048 -0.05397,0.17145 -0.05397,0.36195 0,0.1524 0.07937,0.24765 0.07937,0.09525 0.244475,0.09525 z"
         style="stroke-width:0.265"
         id="path1052" /><path
         d="m 33.412902,20.654381 q -0.295275,0 -0.466725,-0.174625 -0.168275,-0.1778 -0.168275,-0.479425 0,-0.19685 0.05398,-0.390525 0.05398,-0.193675 0.15875,-0.352425 0.10795,-0.15875 0.2667,-0.254 0.161925,-0.09843 0.371475,-0.09843 0.29845,0 0.466725,0.1778 0.168275,0.174625 0.168275,0.479425 0,0.193675 -0.05398,0.38735 -0.05397,0.193675 -0.161925,0.352425 -0.104775,0.15875 -0.263525,0.257175 -0.15875,0.09525 -0.371475,0.09525 z m 0.01587,-0.231775 q 0.1524,0 0.276225,-0.104775 0.123825,-0.10795 0.19685,-0.307975 0.0762,-0.200025 0.0762,-0.479425 0,-0.09525 -0.03493,-0.18415 -0.03175,-0.09208 -0.10795,-0.149225 -0.0762,-0.06032 -0.2032,-0.06032 -0.174625,0 -0.3048,0.12065 -0.127,0.117475 -0.19685,0.3175 -0.06985,0.19685 -0.06985,0.434975 0,0.19685 0.09525,0.3048 0.09842,0.10795 0.27305,0.10795 z"
         style="stroke-width:0.265"
         id="path1054" /><path
         d="m 35.013102,20.660731 q -0.193675,0 -0.31115,-0.10795 -0.1143,-0.10795 -0.1143,-0.314325 0,-0.07302 0.0095,-0.136525 0.0127,-0.06668 0.0254,-0.136525 l 0.22225,-1.038225 h 0.282575 l -0.2286,1.069975 q -0.02858,0.136525 -0.02858,0.212725 0,0.1016 0.0508,0.161925 0.05398,0.05715 0.17145,0.05715 0.10795,0 0.231775,-0.0762 0.127,-0.0762 0.23495,-0.244475 0.10795,-0.168275 0.168275,-0.447675 l 0.155575,-0.733425 h 0.276225 l -0.36195,1.7018 h -0.2286 l 0.03492,-0.314325 h -0.01587 q -0.06033,0.0762 -0.142875,0.15875 -0.07937,0.07937 -0.187325,0.13335 -0.104775,0.05397 -0.244475,0.05397 z"
         style="stroke-width:0.265"
         id="path1056" /><path
         d="m 36.340252,20.628981 0.36195,-1.7018 h 0.2286 l -0.03493,0.314325 h 0.01588 q 0.06668,-0.0889 0.1397,-0.1651 0.07303,-0.07937 0.1651,-0.130175 0.09208,-0.0508 0.212725,-0.0508 0.04445,0 0.09208,0.0064 0.0508,0.0032 0.09208,0.01588 l -0.06032,0.250825 q -0.08573,-0.01905 -0.161925,-0.01905 -0.15875,0 -0.282575,0.104775 -0.123825,0.104775 -0.206375,0.2667 -0.08255,0.161925 -0.117475,0.3302 l -0.1651,0.777875 z"
         style="stroke-width:0.265"
         id="path1058" /><path
         d="m -16.583836,24.597731 0.51435,-2.413 h 0.2794 l -0.51435,2.413 z"
         style="stroke-width:0.265"
         id="path1060" /><path
         d="m -15.082063,24.629481 q -0.295275,0 -0.4572,-0.17145 -0.15875,-0.174625 -0.15875,-0.4699 0,-0.2032 0.05715,-0.40005 0.06032,-0.200025 0.17145,-0.36195 0.111125,-0.1651 0.2667,-0.263525 0.15875,-0.09843 0.3556,-0.09843 0.2413,0 0.36195,0.104775 0.123825,0.104775 0.123825,0.2921 0,0.1651 -0.104775,0.301625 -0.1016,0.136525 -0.320675,0.219075 -0.219075,0.07937 -0.568325,0.07937 h -0.05398 q -0.0032,0.02858 -0.0063,0.06032 0,0.03175 0,0.05715 0,0.193675 0.09525,0.307975 0.09525,0.111125 0.288925,0.111125 0.12065,0 0.2286,-0.03493 0.10795,-0.03492 0.23495,-0.09525 v 0.238125 q -0.12065,0.05398 -0.238125,0.0889 -0.1143,0.03492 -0.276225,0.03492 z m -0.263525,-0.993775 q 0.1905,0 0.352425,-0.03175 0.161925,-0.03493 0.26035,-0.111125 0.09843,-0.07937 0.09843,-0.20955 0,-0.08255 -0.05715,-0.13335 -0.05398,-0.05397 -0.17145,-0.05397 -0.1524,0 -0.295275,0.142875 -0.1397,0.1397 -0.20955,0.396875 z"
         style="stroke-width:0.265"
         id="path1062" /><path
         d="m -13.773962,24.629481 q -0.155575,0 -0.27305,-0.03175 -0.1143,-0.02858 -0.2032,-0.0762 v -0.257175 q 0.08255,0.0508 0.206375,0.09525 0.127,0.04127 0.26035,0.04127 0.187325,0 0.28575,-0.07302 0.09843,-0.0762 0.09843,-0.193675 0,-0.09208 -0.06033,-0.1524 -0.06032,-0.0635 -0.225425,-0.155575 -0.180975,-0.1016 -0.27305,-0.20955 -0.09207,-0.10795 -0.09207,-0.269875 0,-0.2159 0.155575,-0.34925 0.15875,-0.13335 0.422275,-0.13335 0.155575,0 0.28575,0.0381 0.13335,0.03493 0.2286,0.07938 l -0.0889,0.22225 q -0.08255,-0.0381 -0.18415,-0.06985 -0.1016,-0.03493 -0.2413,-0.03493 -0.136525,0 -0.219075,0.06668 -0.07938,0.0635 -0.07938,0.1651 0,0.08255 0.05398,0.14605 0.05715,0.06032 0.225425,0.1524 0.10795,0.0635 0.193675,0.127 0.08573,0.0635 0.13335,0.14605 0.0508,0.08255 0.0508,0.2032 0,0.257175 -0.180975,0.390525 -0.1778,0.13335 -0.479425,0.13335 z"
         style="stroke-width:0.265"
         id="path1064" /><path
         d="m -11.033938,24.629481 q -0.377825,0 -0.593725,-0.231775 -0.212725,-0.231775 -0.212725,-0.635 0,-0.2032 0.04763,-0.41275 0.04763,-0.20955 0.142875,-0.396875 0.09843,-0.187325 0.244475,-0.333375 0.149225,-0.149225 0.346075,-0.23495 0.19685,-0.08573 0.4445,-0.08573 0.3175,0 0.55245,0.127 l -0.1143,0.23495 q -0.08573,-0.04445 -0.193675,-0.0762 -0.104775,-0.03493 -0.244475,-0.03493 -0.238125,0 -0.41275,0.10795 -0.17145,0.104775 -0.28575,0.282575 -0.1143,0.174625 -0.17145,0.38735 -0.05397,0.212725 -0.05397,0.428625 0,0.288925 0.14605,0.4572 0.149225,0.1651 0.409575,0.1651 0.130175,0 0.254,-0.0254 0.127,-0.0254 0.24765,-0.06667 v 0.24765 q -0.123825,0.04445 -0.250825,0.06985 -0.123825,0.0254 -0.301625,0.0254 z"
         id="path1066" /><path
         d="m -9.4178636,24.623131 q -0.295275,0 -0.466725,-0.174625 -0.1682754,-0.1778 -0.1682754,-0.479425 0,-0.19685 0.053975,-0.390525 0.053975,-0.193675 0.15875,-0.352425 0.10795,-0.15875 0.2667,-0.254 0.161925,-0.09843 0.371475,-0.09843 0.29845,0 0.466725,0.1778 0.168275,0.174625 0.168275,0.479425 0,0.193675 -0.053975,0.38735 -0.053975,0.193675 -0.161925,0.352425 -0.104775,0.15875 -0.263525,0.257175 -0.15875,0.09525 -0.371475,0.09525 z m 0.015875,-0.231775 q 0.1524,0 0.276225,-0.104775 0.123825,-0.10795 0.19685,-0.307975 0.0762,-0.200025 0.0762,-0.479425 0,-0.09525 -0.034925,-0.18415 -0.03175,-0.09208 -0.10795,-0.149225 -0.0762,-0.06032 -0.2032,-0.06032 -0.174625,0 -0.3048,0.12065 -0.127,0.117475 -0.19685,0.3175 -0.06985,0.19685 -0.06985,0.434975 0,0.19685 0.09525,0.3048 0.098425,0.10795 0.27305,0.10795 z"
         id="path1068" /><path
         d="m -7.8049649,24.629481 q -0.2032,0 -0.333375,-0.14605 -0.127,-0.14605 -0.127,-0.434975 0,-0.23495 0.05715,-0.4445 0.05715,-0.212725 0.1651,-0.377825 0.111125,-0.168275 0.263525,-0.263525 0.155575,-0.09525 0.34925,-0.09525 0.17145,0 0.27305,0.0889 0.104775,0.08573 0.155575,0.2032 h 0.015875 q 0.015875,-0.10795 0.028575,-0.206375 0.015875,-0.09843 0.041275,-0.212725 l 0.117475,-0.555625 h 0.276225 l -0.511175,2.413 h -0.2286 l 0.034925,-0.314325 h -0.0127 q -0.1143,0.142875 -0.250825,0.244475 -0.136525,0.1016 -0.314325,0.1016 z m 0.09525,-0.231775 q 0.104775,0 0.212725,-0.0762 0.10795,-0.07937 0.200025,-0.212725 0.092075,-0.13335 0.14605,-0.3048 0.05715,-0.17145 0.05715,-0.36195 0,-0.1524 -0.0762,-0.24765 -0.073025,-0.09525 -0.2413,-0.09525 -0.127,0 -0.231775,0.08255 -0.1016,0.07937 -0.1778,0.2159 -0.0762,0.136525 -0.117475,0.307975 -0.041275,0.17145 -0.041275,0.34925 0,0.3429 0.269875,0.3429 z"
         style="stroke-width:0.265"
         id="path1070" /><path
         d="m -5.8110634,24.629481 q -0.295275,0 -0.4572,-0.17145 -0.15875,-0.174625 -0.15875,-0.4699 0,-0.2032 0.05715,-0.40005 0.060325,-0.200025 0.17145,-0.36195 0.111125,-0.1651 0.2667,-0.263525 0.15875,-0.09843 0.3556,-0.09843 0.2413,0 0.36195,0.104775 0.123825,0.104775 0.123825,0.2921 0,0.1651 -0.104775,0.301625 -0.1016,0.136525 -0.320675,0.219075 -0.219075,0.07937 -0.568325,0.07937 h -0.053975 q -0.00317,0.02858 -0.00635,0.06032 0,0.03175 0,0.05715 0,0.193675 0.09525,0.307975 0.09525,0.111125 0.288925,0.111125 0.12065,0 0.2286,-0.03493 0.10795,-0.03492 0.23495,-0.09525 v 0.238125 q -0.12065,0.05398 -0.238125,0.0889 -0.1143,0.03492 -0.276225,0.03492 z m -0.263525,-0.993775 q 0.1905,0 0.352425,-0.03175 0.161925,-0.03493 0.26035,-0.111125 0.098425,-0.07937 0.098425,-0.20955 0,-0.08255 -0.05715,-0.13335 -0.053975,-0.05397 -0.17145,-0.05397 -0.1524,0 -0.295275,0.142875 -0.1397,0.1397 -0.20955,0.396875 z"
         style="stroke-width:0.265"
         id="path1072" /><path
         d="m -4.5029617,24.629481 q -0.155575,0 -0.27305,-0.03175 -0.1143,-0.02858 -0.2032,-0.0762 v -0.257175 q 0.08255,0.0508 0.206375,0.09525 0.127,0.04127 0.26035,0.04127 0.187325,0 0.28575,-0.07302 0.098425,-0.0762 0.098425,-0.193675 0,-0.09208 -0.060325,-0.1524 -0.060325,-0.0635 -0.225425,-0.155575 -0.180975,-0.1016 -0.27305,-0.20955 -0.092075,-0.10795 -0.092075,-0.269875 0,-0.2159 0.155575,-0.34925 0.15875,-0.13335 0.422275,-0.13335 0.155575,0 0.28575,0.0381 0.13335,0.03493 0.2286,0.07938 l -0.0889,0.22225 q -0.08255,-0.0381 -0.18415,-0.06985 -0.1016,-0.03493 -0.2413,-0.03493 -0.136525,0 -0.219075,0.06668 -0.079375,0.0635 -0.079375,0.1651 0,0.08255 0.053975,0.14605 0.05715,0.06032 0.225425,0.1524 0.10795,0.0635 0.193675,0.127 0.085725,0.0635 0.13335,0.14605 0.0508,0.08255 0.0508,0.2032 0,0.257175 -0.180975,0.390525 -0.1778,0.13335 -0.479425,0.13335 z"
         style="stroke-width:0.265"
         id="path1074" /><path
         d="m -2.0296379,24.629481 q -0.295275,0 -0.4572,-0.17145 -0.15875,-0.174625 -0.15875,-0.4699 0,-0.2032 0.05715,-0.40005 0.060325,-0.200025 0.17145,-0.36195 0.111125,-0.1651 0.2667,-0.263525 0.1587499,-0.09843 0.3555999,-0.09843 0.2413,0 0.36195,0.104775 0.123825,0.104775 0.123825,0.2921 0,0.1651 -0.104775,0.301625 -0.1016,0.136525 -0.320675,0.219075 -0.219075,0.07937 -0.5683249,0.07937 h -0.053975 q -0.00318,0.02858 -0.00635,0.06032 0,0.03175 0,0.05715 0,0.193675 0.09525,0.307975 0.09525,0.111125 0.2889249,0.111125 0.12065,0 0.2286,-0.03493 0.10795,-0.03492 0.23495,-0.09525 v 0.238125 q -0.12065,0.05398 -0.238125,0.0889 -0.1143,0.03492 -0.2762249,0.03492 z m -0.263525,-0.993775 q 0.1905,0 0.3524249,-0.03175 0.161925,-0.03493 0.26035,-0.111125 0.098425,-0.07937 0.098425,-0.20955 0,-0.08255 -0.05715,-0.13335 -0.053975,-0.05397 -0.17145,-0.05397 -0.1524,0 -0.2952749,0.142875 -0.1397,0.1397 -0.20955,0.396875 z"
         style="stroke-width:0.265"
         id="path1076" /><path
         d="m -0.6262862,24.629481 q -0.17145,0 -0.288925,-0.08255 -0.117475,-0.08255 -0.117475,-0.288925 0,-0.1016 0.028575,-0.225425 l 0.193675,-0.923925 h -0.263525 l 0.0254,-0.127 0.28575,-0.12065 0.19685,-0.352425 h 0.16509999 l -0.085725,0.38735 h 0.42862499 l -0.04445,0.212725 H -0.5278612 l -0.19685,0.9271 q -0.009525,0.04128 -0.01905,0.09525 -0.009525,0.0508 -0.009525,0.09525 0,0.07303 0.0381,0.123825 0.041275,0.0508 0.130175,0.0508 0.05715,0 0.111125,-0.0095 0.053975,-0.0127 0.11429999,-0.03175 v 0.212725 q -0.0381,0.01905 -0.11747499,0.0381 -0.079375,0.01905 -0.149225,0.01905 z"
         style="stroke-width:0.265"
         id="path1078" /><path
         d="m 1.1485412,24.597731 0.42545,-2.016125 H 0.95169123 l 0.053975,-0.250825 h 1.53035 l -0.0508,0.250825 h -0.6223 l -0.428625,2.016125 z"
         id="path1080" /><path
         d="m 2.3455147,24.597731 0.36195,-1.7018 h 0.2286 l -0.034925,0.314325 h 0.015875 q 0.066675,-0.0889 0.1397,-0.1651 0.073025,-0.07937 0.1651,-0.130175 0.092075,-0.0508 0.212725,-0.0508 0.04445,0 0.092075,0.0064 0.0508,0.0032 0.092075,0.01588 l -0.060325,0.250825 q -0.085725,-0.01905 -0.161925,-0.01905 -0.15875,0 -0.282575,0.104775 -0.123825,0.104775 -0.206375,0.2667 -0.08255,0.161925 -0.117475,0.3302 l -0.1651,0.777875 z"
         style="stroke-width:0.265"
         id="path1082" /><path
         d="m 4.0695411,24.629481 q -0.2032,0 -0.333375,-0.14605 -0.127,-0.149225 -0.127,-0.434975 0,-0.238125 0.060325,-0.45085 0.0635,-0.2159 0.174625,-0.377825 0.111125,-0.1651 0.263525,-0.26035 0.1524,-0.09525 0.33655,-0.09525 0.168275,0 0.27305,0.0889 0.104775,0.0889 0.155575,0.206375 h 0.015875 l 0.1016,-0.263525 h 0.212725 l -0.36195,1.7018 h -0.22225 l 0.041275,-0.314325 h -0.0127 q -0.10795,0.1397 -0.254,0.244475 -0.14605,0.1016 -0.32385,0.1016 z m 0.092075,-0.231775 q 0.117475,0 0.2286,-0.08573 0.1143,-0.08573 0.206375,-0.231775 0.092075,-0.14605 0.1397,-0.327025 0.0254,-0.09208 0.03175,-0.168275 0.00953,-0.07937 0.00953,-0.14605 0,-0.149225 -0.08255,-0.244475 -0.08255,-0.09525 -0.22225,-0.09525 -0.123825,0 -0.2286,0.07937 -0.104775,0.0762 -0.18415,0.212725 -0.079375,0.13335 -0.123825,0.3048 -0.041275,0.17145 -0.041275,0.358775 0,0.17145 0.06985,0.257175 0.06985,0.08573 0.19685,0.08573 z"
         style="stroke-width:0.265"
         id="path1084" /><path
         d="m 5.9364431,22.613356 q -0.066675,0 -0.111125,-0.0381 -0.041275,-0.04127 -0.041275,-0.111125 0,-0.08255 0.047625,-0.142875 0.0508,-0.06033 0.1397,-0.06033 0.14605,0 0.14605,0.142875 0,0.09842 -0.05715,0.155575 -0.05715,0.05398 -0.123825,0.05398 z m -0.587375,1.984375 0.36195,-1.7018 h 0.2794 l -0.36195,1.7018 z"
         style="stroke-width:0.265"
         id="path1086" /><path
         d="m 6.6666921,24.629481 q -0.17145,0 -0.288925,-0.08255 -0.117475,-0.08255 -0.117475,-0.288925 0,-0.1016 0.028575,-0.225425 l 0.193675,-0.923925 h -0.263525 l 0.0254,-0.127 0.28575,-0.12065 0.19685,-0.352425 h 0.1651 l -0.085725,0.38735 h 0.428625 l -0.04445,0.212725 h -0.42545 l -0.19685,0.9271 q -0.00953,0.04128 -0.01905,0.09525 -0.00953,0.0508 -0.00953,0.09525 0,0.07303 0.0381,0.123825 0.041275,0.0508 0.130175,0.0508 0.05715,0 0.111125,-0.0095 0.053975,-0.0127 0.1143,-0.03175 v 0.212725 q -0.0381,0.01905 -0.117475,0.0381 -0.079375,0.01905 -0.149225,0.01905 z"
         style="stroke-width:0.265"
         id="path1088" /><path
         d="m 7.901769,24.629481 q -0.295275,0 -0.4572,-0.17145 -0.15875,-0.174625 -0.15875,-0.4699 0,-0.2032 0.05715,-0.40005 0.060325,-0.200025 0.17145,-0.36195 0.111125,-0.1651 0.2667,-0.263525 0.15875,-0.09843 0.3556,-0.09843 0.2413,0 0.36195,0.104775 0.123825,0.104775 0.123825,0.2921 0,0.1651 -0.104775,0.301625 -0.1016,0.136525 -0.320675,0.219075 -0.219075,0.07937 -0.568325,0.07937 H 7.574744 q -0.00317,0.02858 -0.00635,0.06032 0,0.03175 0,0.05715 0,0.193675 0.09525,0.307975 0.09525,0.111125 0.288925,0.111125 0.12065,0 0.2286,-0.03493 0.10795,-0.03492 0.23495,-0.09525 v 0.238125 q -0.12065,0.05398 -0.238125,0.0889 -0.1143,0.03492 -0.276225,0.03492 z M 7.638244,23.635706 q 0.1905,0 0.352425,-0.03175 0.161925,-0.03493 0.26035,-0.111125 0.098425,-0.07937 0.098425,-0.20955 0,-0.08255 -0.05715,-0.13335 -0.053975,-0.05397 -0.17145,-0.05397 -0.1524,0 -0.295275,0.142875 -0.1397,0.1397 -0.20955,0.396875 z"
         style="stroke-width:0.265"
         id="path1090" /><path
         d="m 8.8066448,24.597731 0.36195,-1.7018 h 0.2286 l -0.034925,0.314325 h 0.015875 q 0.05715,-0.07938 0.13335,-0.15875 0.079375,-0.07937 0.180975,-0.13335 0.104775,-0.05398 0.23495,-0.05398 0.1746252,0 0.2667002,0.1016 0.09525,0.09842 0.1143,0.276225 h 0.0127 q 0.0635,-0.09525 0.149225,-0.180975 0.0889,-0.08573 0.19685,-0.1397 0.10795,-0.05715 0.238125,-0.05715 0.19685,0 0.3048,0.10795 0.10795,0.10795 0.10795,0.31115 0,0.0762 -0.0095,0.142875 -0.0095,0.0635 -0.0254,0.136525 l -0.219075,1.03505 h -0.282575 l 0.2286,-1.0668 q 0.01587,-0.07302 0.02223,-0.123825 0.0063,-0.0508 0.0063,-0.09842 0,-0.09525 -0.05397,-0.1524 -0.0508,-0.05715 -0.161925,-0.05715 -0.1016,0 -0.219075,0.0762 -0.1143,0.0762 -0.2159,0.238125 -0.09843,0.15875 -0.1524,0.415925 l -0.161925,0.76835 H 9.7940698 l 0.2254252,-1.0668 q 0.02858,-0.142875 0.02858,-0.20955 0,-0.104775 -0.04763,-0.161925 -0.047625,-0.06032 -0.1587502,-0.06032 -0.1016,0 -0.219075,0.0762 -0.117475,0.07303 -0.219075,0.2413 -0.1016,0.168275 -0.161925,0.447675 l -0.155575,0.733425 z"
         style="stroke-width:0.265"
         id="path1092" /><path
         d="m 12.264221,24.629481 q -0.295275,0 -0.4572,-0.17145 -0.15875,-0.174625 -0.15875,-0.4699 0,-0.2032 0.05715,-0.40005 0.06033,-0.200025 0.17145,-0.36195 0.111125,-0.1651 0.2667,-0.263525 0.15875,-0.09843 0.3556,-0.09843 0.2413,0 0.36195,0.104775 0.123825,0.104775 0.123825,0.2921 0,0.1651 -0.104775,0.301625 -0.1016,0.136525 -0.320675,0.219075 -0.219075,0.07937 -0.568325,0.07937 h -0.05397 q -0.0032,0.02858 -0.0063,0.06032 0,0.03175 0,0.05715 0,0.193675 0.09525,0.307975 0.09525,0.111125 0.288925,0.111125 0.12065,0 0.2286,-0.03493 0.10795,-0.03492 0.23495,-0.09525 v 0.238125 q -0.12065,0.05398 -0.238125,0.0889 -0.1143,0.03492 -0.276225,0.03492 z m -0.263525,-0.993775 q 0.1905,0 0.352425,-0.03175 0.161925,-0.03493 0.26035,-0.111125 0.09842,-0.07937 0.09842,-0.20955 0,-0.08255 -0.05715,-0.13335 -0.05397,-0.05397 -0.17145,-0.05397 -0.1524,0 -0.295275,0.142875 -0.1397,0.1397 -0.20955,0.396875 z"
         style="stroke-width:0.265"
         id="path1094" /><path
         d="m 13.156396,24.597731 0.365125,-1.711325 h 0.24765 l -0.03492,0.314325 h 0.0032 q 0.06033,-0.07938 0.1397,-0.15875 0.08255,-0.07937 0.1905,-0.13335 0.10795,-0.05398 0.244475,-0.05398 0.206375,0 0.320675,0.1143 0.117475,0.111125 0.117475,0.314325 0,0.07303 -0.0127,0.149225 -0.0095,0.0762 -0.02223,0.13335 l -0.225425,1.031875 h -0.29845 l 0.2286,-1.069975 q 0.01588,-0.07303 0.02223,-0.12065 0.0095,-0.0508 0.0095,-0.09525 0,-0.2032 -0.2159,-0.2032 -0.104775,0 -0.2286,0.07303 -0.12065,0.07302 -0.2286,0.238125 -0.104775,0.1651 -0.1651,0.4445 l -0.15875,0.733425 z"
         style="stroke-width:0.265"
         id="path1096" /><path
         d="m 15.505899,24.629481 q -0.17145,0 -0.288925,-0.08255 -0.117475,-0.08255 -0.117475,-0.288925 0,-0.1016 0.02858,-0.225425 l 0.193675,-0.923925 h -0.263525 l 0.0254,-0.127 0.28575,-0.12065 0.19685,-0.352425 h 0.1651 l -0.08573,0.38735 h 0.428625 l -0.04445,0.212725 h -0.42545 l -0.19685,0.9271 q -0.0095,0.04128 -0.01905,0.09525 -0.0095,0.0508 -0.0095,0.09525 0,0.07303 0.0381,0.123825 0.04127,0.0508 0.130175,0.0508 0.05715,0 0.111125,-0.0095 0.05398,-0.0127 0.1143,-0.03175 v 0.212725 q -0.0381,0.01905 -0.117475,0.0381 -0.07938,0.01905 -0.149225,0.01905 z"
         style="stroke-width:0.265"
         id="path1098" /><path
         d="m 16.464753,24.629481 q -0.155575,0 -0.27305,-0.03175 -0.1143,-0.02858 -0.2032,-0.0762 v -0.257175 q 0.08255,0.0508 0.206375,0.09525 0.127,0.04127 0.26035,0.04127 0.187325,0 0.28575,-0.07302 0.09843,-0.0762 0.09843,-0.193675 0,-0.09208 -0.06033,-0.1524 -0.06032,-0.0635 -0.225425,-0.155575 -0.180975,-0.1016 -0.27305,-0.20955 -0.09207,-0.10795 -0.09207,-0.269875 0,-0.2159 0.155575,-0.34925 0.15875,-0.13335 0.422275,-0.13335 0.155575,0 0.28575,0.0381 0.13335,0.03493 0.2286,0.07938 l -0.0889,0.22225 q -0.08255,-0.0381 -0.18415,-0.06985 -0.1016,-0.03493 -0.2413,-0.03493 -0.136525,0 -0.219075,0.06668 -0.07937,0.0635 -0.07937,0.1651 0,0.08255 0.05397,0.14605 0.05715,0.06032 0.225425,0.1524 0.10795,0.0635 0.193675,0.127 0.08573,0.0635 0.13335,0.14605 0.0508,0.08255 0.0508,0.2032 0,0.257175 -0.180975,0.390525 -0.1778,0.13335 -0.479425,0.13335 z"
         style="stroke-width:0.265"
         id="path1100" /><path
         d="m 18.296725,24.597731 0.479425,-2.26695 h 0.301625 l 0.695325,1.87325 h 0.0095 q 0.01588,-0.1143 0.04445,-0.288925 0.03175,-0.1778 0.06668,-0.33655 l 0.2667,-1.247775 h 0.269875 l -0.479425,2.26695 h -0.301625 l -0.701675,-1.8796 h -0.0095 q -0.0064,0.06668 -0.0254,0.174625 -0.01588,0.10795 -0.04127,0.231775 -0.02223,0.123825 -0.04763,0.2413 l -0.26035,1.2319 z"
         id="path1102" /><path
         d="m 21.014525,24.629481 q -0.193675,0 -0.31115,-0.10795 -0.1143,-0.10795 -0.1143,-0.314325 0,-0.07302 0.0095,-0.136525 0.0127,-0.06668 0.0254,-0.136525 l 0.22225,-1.038225 h 0.282575 l -0.2286,1.069975 q -0.02858,0.136525 -0.02858,0.212725 0,0.1016 0.0508,0.161925 0.05397,0.05715 0.17145,0.05715 0.10795,0 0.231775,-0.0762 0.127,-0.0762 0.23495,-0.244475 0.10795,-0.168275 0.168275,-0.447675 l 0.155575,-0.733425 H 22.1607 l -0.36195,1.7018 h -0.2286 l 0.03492,-0.314325 H 21.5892 q -0.06033,0.0762 -0.142875,0.15875 -0.07938,0.07937 -0.187325,0.13335 -0.104775,0.05397 -0.244475,0.05397 z"
         id="path1104" /><path
         d="m 22.341679,24.597731 0.36195,-1.7018 h 0.2286 l -0.03493,0.314325 h 0.01588 q 0.05715,-0.07938 0.13335,-0.15875 0.07937,-0.07937 0.180975,-0.13335 0.104775,-0.05398 0.23495,-0.05398 0.174625,0 0.2667,0.1016 0.09525,0.09842 0.1143,0.276225 h 0.0127 q 0.0635,-0.09525 0.149225,-0.180975 0.0889,-0.08573 0.19685,-0.1397 0.10795,-0.05715 0.238125,-0.05715 0.19685,0 0.3048,0.10795 0.10795,0.10795 0.10795,0.31115 0,0.0762 -0.0095,0.142875 -0.0095,0.0635 -0.0254,0.136525 l -0.219075,1.03505 h -0.282575 l 0.2286,-1.0668 q 0.01588,-0.07302 0.02223,-0.123825 0.0063,-0.0508 0.0063,-0.09842 0,-0.09525 -0.05397,-0.1524 -0.0508,-0.05715 -0.161925,-0.05715 -0.1016,0 -0.219075,0.0762 -0.1143,0.0762 -0.2159,0.238125 -0.09842,0.15875 -0.1524,0.415925 l -0.161925,0.76835 h -0.2794 l 0.225425,-1.0668 q 0.02858,-0.142875 0.02858,-0.20955 0,-0.104775 -0.04763,-0.161925 -0.04763,-0.06032 -0.15875,-0.06032 -0.1016,0 -0.219075,0.0762 -0.117475,0.07303 -0.219075,0.2413 -0.1016,0.168275 -0.161925,0.447675 l -0.155575,0.733425 z"
         id="path1106" /><path
         d="m 25.799251,24.629481 q -0.295275,0 -0.4572,-0.17145 -0.15875,-0.174625 -0.15875,-0.4699 0,-0.2032 0.05715,-0.40005 0.06032,-0.200025 0.17145,-0.36195 0.111125,-0.1651 0.2667,-0.263525 0.15875,-0.09843 0.3556,-0.09843 0.2413,0 0.36195,0.104775 0.123825,0.104775 0.123825,0.2921 0,0.1651 -0.104775,0.301625 -0.1016,0.136525 -0.320675,0.219075 -0.219075,0.07937 -0.568325,0.07937 h -0.05398 q -0.0032,0.02858 -0.0063,0.06032 0,0.03175 0,0.05715 0,0.193675 0.09525,0.307975 0.09525,0.111125 0.288925,0.111125 0.12065,0 0.2286,-0.03493 0.10795,-0.03492 0.23495,-0.09525 v 0.238125 q -0.12065,0.05398 -0.238125,0.0889 -0.1143,0.03492 -0.276225,0.03492 z m -0.263525,-0.993775 q 0.1905,0 0.352425,-0.03175 0.161925,-0.03493 0.26035,-0.111125 0.09842,-0.07937 0.09842,-0.20955 0,-0.08255 -0.05715,-0.13335 -0.05397,-0.05397 -0.17145,-0.05397 -0.1524,0 -0.295275,0.142875 -0.1397,0.1397 -0.20955,0.396875 z m 0.371475,-1.0033 q 0.05715,-0.06032 0.12065,-0.142875 0.06668,-0.08255 0.127,-0.168275 0.0635,-0.08573 0.10795,-0.155575 h 0.3175 v 0.03175 q -0.04445,0.05397 -0.13335,0.14605 -0.08573,0.09207 -0.18415,0.18415 -0.09842,0.0889 -0.180975,0.14605 h -0.174625 z"
         style="stroke-width:0.265"
         id="path1108" /><path
         d="m 26.704129,24.597731 0.36195,-1.7018 h 0.2286 l -0.03492,0.314325 h 0.01587 q 0.06668,-0.0889 0.1397,-0.1651 0.07303,-0.07937 0.1651,-0.130175 0.09208,-0.0508 0.212725,-0.0508 0.04445,0 0.09207,0.0064 0.0508,0.0032 0.09208,0.01588 l -0.06032,0.250825 q -0.08573,-0.01905 -0.161925,-0.01905 -0.15875,0 -0.282575,0.104775 -0.123825,0.104775 -0.206375,0.2667 -0.08255,0.161925 -0.117475,0.3302 l -0.1651,0.777875 z"
         style="stroke-width:0.265"
         id="path1110" /><path
         d="m 28.555156,22.613356 q -0.06668,0 -0.111125,-0.0381 -0.04127,-0.04127 -0.04127,-0.111125 0,-0.08255 0.04763,-0.142875 0.0508,-0.06033 0.1397,-0.06033 0.14605,0 0.14605,0.142875 0,0.09842 -0.05715,0.155575 -0.05715,0.05398 -0.123825,0.05398 z m -0.587375,1.984375 0.36195,-1.7018 h 0.2794 l -0.36195,1.7018 z"
         style="stroke-width:0.265"
         id="path1112" /><path
         d="m 29.79658,24.635831 q 0.01588,-0.06032 0.04128,-0.1651 0.02858,-0.10795 0.0508,-0.187325 h -0.0127 q -0.10795,0.1397 -0.24765,0.244475 -0.136525,0.1016 -0.314325,0.1016 -0.206375,0 -0.33655,-0.14605 -0.127,-0.14605 -0.127,-0.434975 0,-0.231775 0.05715,-0.4445 0.05715,-0.212725 0.1651,-0.377825 0.111125,-0.168275 0.2667,-0.263525 0.155575,-0.09843 0.34925,-0.09843 0.168275,0 0.269875,0.0889 0.104775,0.0889 0.155575,0.206375 h 0.01587 l 0.104775,-0.263525 h 0.20955 l -0.523875,2.4638 H 29.64418 Z m -0.390525,-0.238125 q 0.104775,0 0.212725,-0.07937 0.10795,-0.07937 0.19685,-0.212725 0.09208,-0.136525 0.14605,-0.307975 0.05715,-0.17145 0.05715,-0.3556 0,-0.1397 -0.07303,-0.2413 -0.07303,-0.1016 -0.238125,-0.1016 -0.127,0 -0.231775,0.08255 -0.104775,0.07937 -0.180975,0.2159 -0.0762,0.136525 -0.117475,0.307975 -0.04127,0.17145 -0.04127,0.34925 0,0.3429 0.269875,0.3429 z"
         style="stroke-width:0.265"
         id="path1114" /><path
         d="m 31.136431,24.629481 q -0.193675,0 -0.31115,-0.10795 -0.1143,-0.10795 -0.1143,-0.314325 0,-0.07302 0.0095,-0.136525 0.0127,-0.06668 0.0254,-0.136525 l 0.22225,-1.038225 h 0.282575 l -0.2286,1.069975 q -0.02858,0.136525 -0.02858,0.212725 0,0.1016 0.0508,0.161925 0.05398,0.05715 0.17145,0.05715 0.10795,0 0.231775,-0.0762 0.127,-0.0762 0.23495,-0.244475 0.10795,-0.168275 0.168275,-0.447675 l 0.155575,-0.733425 h 0.276225 l -0.36195,1.7018 h -0.2286 l 0.03492,-0.314325 h -0.01587 q -0.06033,0.0762 -0.142875,0.15875 -0.07938,0.07937 -0.187325,0.13335 -0.104775,0.05397 -0.244475,0.05397 z"
         style="stroke-width:0.265"
         id="path1116" /><path
         d="m 33.143031,24.629481 q -0.295275,0 -0.4572,-0.17145 -0.15875,-0.174625 -0.15875,-0.4699 0,-0.2032 0.05715,-0.40005 0.06032,-0.200025 0.17145,-0.36195 0.111125,-0.1651 0.2667,-0.263525 0.15875,-0.09843 0.3556,-0.09843 0.2413,0 0.36195,0.104775 0.123825,0.104775 0.123825,0.2921 0,0.1651 -0.104775,0.301625 -0.1016,0.136525 -0.320675,0.219075 -0.219075,0.07937 -0.568325,0.07937 h -0.05398 q -0.0032,0.02858 -0.0064,0.06032 0,0.03175 0,0.05715 0,0.193675 0.09525,0.307975 0.09525,0.111125 0.288925,0.111125 0.12065,0 0.2286,-0.03493 0.10795,-0.03492 0.23495,-0.09525 v 0.238125 q -0.12065,0.05398 -0.238125,0.0889 -0.1143,0.03492 -0.276225,0.03492 z m -0.263525,-0.993775 q 0.1905,0 0.352425,-0.03175 0.161925,-0.03493 0.26035,-0.111125 0.09842,-0.07937 0.09842,-0.20955 0,-0.08255 -0.05715,-0.13335 -0.05397,-0.05397 -0.17145,-0.05397 -0.1524,0 -0.295275,0.142875 -0.1397,0.1397 -0.20955,0.396875 z"
         style="stroke-width:0.265"
         id="path1118" /><path
         d="m 34.451134,24.629481 q -0.155575,0 -0.27305,-0.03175 -0.1143,-0.02858 -0.2032,-0.0762 v -0.257175 q 0.08255,0.0508 0.206375,0.09525 0.127,0.04127 0.26035,0.04127 0.187325,0 0.28575,-0.07302 0.09842,-0.0762 0.09842,-0.193675 0,-0.09208 -0.06032,-0.1524 -0.06032,-0.0635 -0.225425,-0.155575 -0.180975,-0.1016 -0.27305,-0.20955 -0.09208,-0.10795 -0.09208,-0.269875 0,-0.2159 0.155575,-0.34925 0.15875,-0.13335 0.422275,-0.13335 0.155575,0 0.28575,0.0381 0.13335,0.03493 0.2286,0.07938 l -0.0889,0.22225 q -0.08255,-0.0381 -0.18415,-0.06985 -0.1016,-0.03493 -0.2413,-0.03493 -0.136525,0 -0.219075,0.06668 -0.07937,0.0635 -0.07937,0.1651 0,0.08255 0.05398,0.14605 0.05715,0.06032 0.225425,0.1524 0.10795,0.0635 0.193675,0.127 0.08572,0.0635 0.13335,0.14605 0.0508,0.08255 0.0508,0.2032 0,0.257175 -0.180975,0.390525 -0.1778,0.13335 -0.479425,0.13335 z"
         style="stroke-width:0.265"
         id="path1120" /></g></g></svg>
