<svg xmlns="http://www.w3.org/2000/svg" xmlns:xlink="http://www.w3.org/1999/xlink" width="266.076" height="96.272" viewBox="0 0 70.399 25.472" xmlns:v="https://vecta.io/nano"><g transform="translate(31.685 -.977)"><path d="M-31.685.977h70.421v25.482h-70.421z" fill="#3e6182"/><g transform="matrix(.237865 0 0 .237865 -75.764326 -3.605931)"><radialGradient id="A" cx="1981.317" cy="-1309.801" r="212.813" gradientTransform="matrix(0.1616,0,0,-0.1616,-101.4548,-104.4775)" gradientUnits="userSpaceOnUse"><stop offset="0" stop-color="#456587"/><stop offset=".256" stop-color="#2c4f73"/><stop offset=".593" stop-color="#0c395d"/><stop offset=".852" stop-color="#002d50"/><stop offset="1" stop-color="#00294b"/></radialGradient><path fill="url(#A)" d="M211.401 86.369l-1.46-.046c-6.745-.008-12.854 2.863-18.176 8.556-4.84 5.171-6.467 9.336-6.451 14.361.008 2.688.485 5.625 1.191 9.097 1.328 6.526 5.201 12.824 10.629 17.285 4.153 3.412 8.786 5.158 13.67 5.19 2.529.016 5.125-.426 7.759-1.334 8.499-2.933 16.631-11.332 19.771-20.423.994-2.876 1.477-5.678 1.469-8.342-.025-6.513-3.002-12.221-8.685-16.302-6.898-4.955-13.53-7.659-19.717-8.042z"/><path fill="#fff" d="M201.699 113.656h-1.869l-.003.054c-.016.364-.231 3.542-3.076 3.542-2.542 0-3.833-2.278-3.835-6.771s1.293-6.771 3.835-6.771c2.893 0 3.068 3.396 3.076 3.542l.003.054h1.869c.172 0 .339-.069.46-.193s.175-.272.167-.432c-.038-.881-.49-5.279-5.6-5.279-4.129 0-6.312 3.139-6.312 9.075 0 5.947 2.182 9.094 6.312 9.094 4.916 0 5.527-4.017 5.6-5.247a.6.6 0 0 0-.164-.458c-.121-.14-.29-.21-.463-.21z"/><path d="M230.739 109.397h0l-1.607-.7c-1.549-.679-2.096-1.341-2.096-2.529 0-1.549 1.131-2.588 2.816-2.588.997 0 1.813.204 2.813 1.22l.054.057.859-.786c.499-.461.353-.879.146-1.146-.838-.988-2.182-1.529-3.79-1.529-3.097 0-5.347 2.02-5.347 4.805 0 2.737 1.725 3.882 3.588 4.712l1.643.732c1.652.74 2.438 1.371 2.438 2.96 0 2.166-1.958 2.745-3.114 2.745-.994 0-2.104-.213-3.464-1.754l-.054-.062-.895.786c-.461.404-.463.752-.016 1.328 1.23 1.584 3.038 1.915 4.336 1.915 2.807 0 5.652-1.724 5.652-5.021.001-2.855-1.583-4.121-3.962-5.145zm-15.873-2.807c0-2.804-2.274-5.18-5.078-5.18-1.32 0-2.521.504-3.424 1.328v-.964h-1.688c-.509 0-.703.331-.703.714v16.366a.64.64 0 0 0 .695.705h1.689v-12.87c0-1.691 1.371-3.063 3.063-3.063s3.063 1.371 3.063 3.063v12.873h1.678c.466 0 .706-.259.706-.703-.001.001-.001-12.252-.001-12.269z" fill="#62c4dd"/><path fill="#fff" d="M224.554 102.634c.089-.111.143-.248.143-.399a.64.64 0 0 0-.437-.604 4.86 4.86 0 0 0-1.551-.253c-1.32 0-2.521.504-3.424 1.328v-.964h-1.689c-.509 0-.703.331-.703.714v16.363c0 .46.283.705.698.705h1.688v-12.869c0-1.692 1.371-3.063 3.063-3.063.442 0 .862.098 1.242.265l.975-1.226z"/></g><g fill="#d2d6da"><path d="M-23.326 6.041q-.569 0-.89-.326-.321-.326-.321-.949 0-.417.119-.793.124-.381.367-.67.243-.294.601-.463.358-.17.83-.17.491 0 .917.22l-.257.564q-.165-.092-.33-.142-.165-.055-.362-.055-.303 0-.527.128-.22.128-.367.344-.147.211-.22.468-.073.257-.073.514 0 .362.156.555.156.193.504.193.115 0 .197-.014.087-.018.183-.041l.147-.67h-.596l.124-.578h1.261l-.362 1.706q-.225.073-.477.128-.248.05-.624.05z"/><use xlink:href="#C"/><path d="M-18.649 6.041q-.28 0-.5-.115-.216-.119-.339-.335-.119-.216-.119-.514 0-.33.083-.624.083-.298.248-.523.165-.229.413-.358.252-.128.587-.128.436 0 .693.261.257.261.257.729 0 .316-.078.605-.078.289-.243.514-.161.225-.413.358-.248.128-.587.128zm.055-.55q.188 0 .316-.151.133-.151.202-.39.069-.243.069-.514 0-.188-.073-.312-.069-.128-.248-.128-.151 0-.266.105-.115.101-.188.266-.073.165-.11.353-.037.188-.037.358 0 .413.335.413zm2.353.55q-.321 0-.482-.193-.156-.197-.156-.527 0-.083.014-.211.014-.133.041-.266l.284-1.353h.674l-.307 1.463q-.037.161-.037.266 0 .275.243.275.156 0 .275-.128.124-.133.216-.353.092-.22.147-.486l.22-1.036h.674l-.532 2.504h-.514l.046-.463h-.023q-.142.225-.335.367-.188.142-.449.142zm1.734 1.055l.766-3.605h.514l-.037.381h.018q.119-.161.294-.294.174-.133.417-.133.183 0 .344.092.161.087.261.289.101.197.101.532 0 .303-.083.605-.083.298-.234.541-.151.243-.367.39-.211.147-.477.147-.229 0-.353-.105-.124-.105-.216-.261h-.018q-.014.183-.037.335-.023.151-.06.326l-.161.761zm1.403-1.601q.124 0 .229-.096.11-.101.188-.261.083-.161.128-.358.046-.197.046-.394 0-.394-.294-.394-.165 0-.28.119-.115.119-.188.298-.073.179-.11.367-.032.188-.032.326 0 .179.083.289.087.105.229.105zm2.669.546q-.44 0-.715-.238-.275-.243-.275-.729 0-.316.087-.605.092-.294.266-.523.179-.229.44-.362.261-.138.605-.138.422 0 .628.193.211.193.211.491 0 .394-.358.633Q-9.898 5-10.627 5h-.115q-.005.028-.005.05 0 .018 0 .041 0 .202.115.321.119.119.33.119.197 0 .358-.046.161-.046.381-.147v.509q-.197.096-.399.147-.202.046-.472.046zm-.133-1.495q.39 0 .56-.119.174-.124.174-.284 0-.211-.234-.211-.124 0-.248.078-.124.078-.22.216-.092.138-.133.321zm1.578 1.449l.532-2.504h.514l-.046.463h.018q.147-.225.335-.367.193-.142.454-.142.257 0 .399.138.142.133.188.371h.018q.142-.225.339-.367.197-.142.459-.142.312 0 .468.197.156.193.156.523 0 .165-.05.404l-.298 1.426h-.674l.307-1.463q.037-.161.037-.266 0-.275-.22-.275-.151 0-.275.128-.124.128-.216.349-.092.216-.147.486l-.216 1.041h-.674l.307-1.463q.037-.161.037-.266 0-.275-.22-.275-.151 0-.275.133-.124.128-.216.349-.087.22-.147.486l-.22 1.036zm5.26.046q-.44 0-.715-.238-.275-.243-.275-.729 0-.316.087-.605.092-.294.266-.523.179-.229.44-.362.261-.138.605-.138.422 0 .628.193.211.193.211.491 0 .394-.358.633Q-3.193 5-3.923 5h-.115q-.005.028-.005.05 0 .018 0 .041 0 .202.115.321.119.119.33.119.197 0 .358-.046.161-.046.381-.147v.509q-.197.096-.399.147-.202.046-.472.046zm-.133-1.495q.39 0 .56-.119.174-.124.174-.284 0-.211-.234-.211-.124 0-.248.078-.124.078-.22.216-.092.138-.133.321zm1.578 1.449l.532-2.504h.514l-.046.463h.018q.147-.225.335-.367.193-.142.454-.142.326 0 .486.197.161.193.161.523 0 .165-.05.404L-.18 5.995h-.674l.307-1.463q.037-.161.037-.266 0-.275-.243-.275-.151 0-.275.133-.124.128-.216.349-.087.22-.147.486l-.22 1.036z"/><path d="M1.319 6.041q-.294 0-.472-.124-.179-.128-.179-.454 0-.115.028-.252l.257-1.206h-.34l.064-.33.44-.188.294-.527h.436l-.11.532h.633l-.11.514h-.633L1.37 5.211q-.014.069-.014.119 0 .087.055.128.055.037.142.037.092 0 .174-.018.087-.023.188-.06v.504q-.105.05-.257.083-.151.037-.339.037zm3.064 0q-.179 0-.344-.087-.161-.092-.261-.289-.101-.202-.101-.537 0-.303.083-.601.083-.303.234-.546.151-.243.362-.39.216-.147.482-.147.225 0 .353.105.128.105.216.261h.018q0-.014.005-.096.009-.087.023-.197.014-.115.032-.206l.17-.803h.674l-.738 3.485h-.514l.041-.326H5.1q-.133.165-.303.271-.17.101-.413.101zm.284-.546q.161 0 .271-.119.115-.124.183-.303.073-.183.105-.367.037-.188.037-.321 0-.179-.083-.284-.083-.11-.229-.11-.124 0-.234.101-.105.096-.188.257-.078.161-.124.358-.046.197-.046.394 0 .394.307.394zm2.724.546q-.44 0-.715-.238-.275-.243-.275-.729 0-.316.087-.605.092-.294.266-.523.179-.229.44-.362.261-.138.605-.138.422 0 .628.193.211.193.211.491 0 .394-.358.633Q7.928 5 7.199 5h-.115q-.005.028-.005.05 0 .018 0 .041 0 .202.115.321.119.119.33.119.197 0 .358-.046.161-.046.381-.147v.509q-.197.096-.399.147-.202.046-.472.046zm-.133-1.495q.39 0 .56-.119.174-.124.174-.284 0-.211-.234-.211-.124 0-.248.078-.124.078-.22.216-.092.138-.133.321zm2.807 1.449l.693-3.274h.803q.491 0 .775.211.289.211.289.688 0 .39-.206.637-.202.243-.514.349l.582 1.39h-.743l-.463-1.257h-.266l-.266 1.257zm1.243-1.821q.294 0 .454-.128.165-.128.165-.39 0-.367-.44-.367h-.165l-.188.885zm2.623 1.867q-.44 0-.715-.238-.275-.243-.275-.729 0-.316.087-.605.092-.294.266-.523.179-.229.44-.362.261-.138.605-.138.422 0 .628.193.211.193.211.491 0 .394-.358.633Q14.468 5 13.739 5h-.115q-.005.028-.005.05 0 .018 0 .041 0 .202.115.321.119.119.33.119.197 0 .358-.046.161-.046.381-.147v.509q-.197.096-.399.147-.202.046-.472.046zm-.133-1.495q.39 0 .56-.119.174-.124.174-.284 0-.211-.234-.211-.124 0-.248.078-.124.078-.22.216-.092.138-.133.321z"/><use xlink:href="#D"/><path d="M17.591 5.995l.738-3.485h.674l-.128.605q-.018.101-.055.234-.037.133-.073.261-.037.124-.069.216h.018q.138-.174.307-.275.17-.105.394-.105.326 0 .486.197.161.193.161.523 0 .165-.05.404l-.298 1.426h-.674l.307-1.463q.037-.161.037-.266 0-.275-.243-.275-.151 0-.275.133-.124.128-.216.349-.087.22-.147.486l-.22 1.036zm3.88.046q-.44 0-.715-.238-.275-.243-.275-.729 0-.316.087-.605.092-.294.266-.523.179-.229.44-.362.261-.138.605-.138.422 0 .628.193.211.193.211.491 0 .394-.358.633Q22.007 5 21.278 5h-.115q-.005.028-.005.05 0 .018 0 .041 0 .202.115.321.119.119.33.119.197 0 .358-.046.161-.046.381-.147v.509q-.197.096-.399.147-.202.046-.472.046zm-.133-1.495q.39 0 .56-.119.174-.124.174-.284 0-.211-.234-.211-.124 0-.248.078-.124.078-.22.216-.092.138-.133.321z"/><use xlink:href="#C" x="44.48"/><use xlink:href="#D" x="9.379"/><path d="M26.969 5.995l.738-3.485h.674l-.128.605q-.018.101-.055.234-.037.133-.073.261-.037.124-.069.216h.018q.138-.174.307-.275.17-.105.394-.105.326 0 .486.197.161.193.161.523 0 .165-.05.404l-.298 1.426H28.4l.307-1.463q.037-.161.037-.266 0-.275-.243-.275-.151 0-.275.133-.124.128-.216.349-.087.22-.147.486l-.22 1.036zm3.88.046q-.44 0-.715-.238-.275-.243-.275-.729 0-.316.087-.605.092-.294.266-.523.179-.229.44-.362.261-.138.605-.138.422 0 .628.193.211.193.211.491 0 .394-.358.633Q31.386 5 30.657 5h-.115q-.005.028-.005.05 0 .018 0 .041 0 .202.115.321.119.119.33.119.197 0 .358-.046.161-.046.381-.147v.509q-.197.096-.399.147-.202.046-.472.046zm-.133-1.495q.39 0 .56-.119.174-.124.174-.284 0-.211-.234-.211-.124 0-.248.078-.124.078-.22.216-.092.138-.133.321z"/></g><path d="M-27.645 8.675q.178.326.405.81.237.474.484 1.037.257.553.504 1.136.247.583.464 1.096.217-.514.464-1.096.247-.583.494-1.136.257-.563.484-1.037.237-.484.415-.81h1.403q.099.682.178 1.531.089.84.148 1.758.069.909.119 1.827.059.919.099 1.729h-1.501q-.03-.998-.079-2.173-.049-1.175-.148-2.371-.178.415-.395.919-.217.504-.435 1.008-.207.504-.405.968-.198.454-.336.78h-1.077q-.138-.326-.336-.78-.198-.464-.415-.968-.207-.504-.425-1.008-.217-.504-.395-.919-.099 1.195-.148 2.371-.049 1.175-.079 2.173h-1.501q.04-.81.089-1.729.059-.919.119-1.827.069-.919.148-1.758.089-.849.188-1.531zm11.627 6.845q-.109-.356-.247-.731-.128-.375-.257-.751h-2.667q-.128.375-.267.751-.128.375-.237.731h-1.6q.385-1.106.731-2.045.346-.938.672-1.768.336-.83.652-1.571.326-.751.672-1.462h1.472q.336.711.662 1.462.326.741.652 1.571.336.83.682 1.768.346.938.731 2.045zm-1.847-5.294q-.049.148-.148.405-.099.257-.227.593-.128.336-.286.741-.148.405-.306.849h1.946q-.158-.444-.306-.849-.148-.405-.286-.741-.128-.336-.227-.593-.099-.257-.158-.405zm6.44 4.119q.326 0 .533-.049.217-.059.346-.148.128-.099.178-.227.049-.128.049-.286 0-.336-.316-.553-.316-.227-1.087-.484-.336-.119-.672-.267-.336-.158-.603-.385-.267-.237-.435-.563-.168-.336-.168-.81 0-.474.178-.849.178-.385.504-.652.326-.267.79-.405.464-.148 1.047-.148.691 0 1.195.148.504.148.83.326l-.445 1.215q-.286-.148-.642-.257-.346-.119-.84-.119-.553 0-.8.158-.237.148-.237.464 0 .188.089.316.089.128.247.237.168.099.375.188.217.079.474.168.533.198.929.395.395.188.652.445.267.257.395.603.128.346.128.84 0 .958-.672 1.492-.672.524-2.025.524-.454 0-.82-.059-.365-.049-.652-.128-.277-.079-.484-.168-.198-.089-.336-.168l.435-1.225q.306.168.751.306.454.128 1.106.128zm7.003 1.314q-1.669 0-2.548-.929-.869-.929-.869-2.637 0-.849.267-1.511.267-.672.731-1.126.464-.464 1.106-.701.642-.237 1.393-.237.435 0 .79.069.356.059.622.148.267.079.445.168.178.089.257.138l-.445 1.245q-.316-.168-.741-.286-.415-.119-.948-.119-.356 0-.701.119-.336.119-.603.385-.257.257-.415.672-.158.415-.158 1.008 0 .474.099.889.109.405.336.701.237.296.612.474.375.168.909.168.336 0 .603-.04.267-.04.474-.089.207-.059.365-.128.158-.069.286-.128l.425 1.235q-.326.198-.919.356-.593.158-1.373.158zm4.327-3.566q0 .504.119.909.128.405.356.701.237.286.573.444.336.158.77.158.425 0 .761-.158.346-.158.573-.444.237-.296.356-.701.128-.405.128-.909 0-.504-.128-.909-.119-.415-.356-.701-.227-.296-.573-.454-.336-.158-.761-.158-.435 0-.77.168-.336.158-.573.454-.227.286-.356.701-.119.405-.119.899zm5.225 0q0 .879-.267 1.551-.257.662-.711 1.116-.454.444-1.087.672-.622.227-1.343.227-.701 0-1.324-.227-.622-.227-1.087-.672-.464-.454-.731-1.116-.267-.672-.267-1.551 0-.879.277-1.541.277-.672.741-1.126.474-.454 1.087-.682.622-.227 1.304-.227.701 0 1.324.227.622.227 1.087.682.464.454.731 1.126.267.662.267 1.541zm6.134-3.418v1.314H9.2v5.532H7.659V9.989H5.594V8.675zm-.099 3.23h2.865v1.333h-2.865zm8.495 3.615q-.662-1.175-1.432-2.321-.77-1.146-1.64-2.163v4.485h-1.521V8.675h1.254q.326.326.721.8.395.474.8 1.017.415.533.82 1.116.405.573.761 1.106v-4.04h1.531v6.845zm5.551.139q-.721 0-1.245-.198-.524-.207-.869-.563-.336-.365-.504-.859-.158-.504-.158-1.106V8.675h1.541v4.129q0 .415.089.711.099.286.257.474.168.178.395.257.237.079.514.079.563 0 .909-.346.356-.346.356-1.175V8.675h1.541v4.257q0 .603-.168 1.106-.168.504-.514.869-.346.356-.879.553-.533.198-1.264.198zm6.125-6.984q.178.326.405.81.237.474.484 1.037.257.553.504 1.136.247.583.464 1.096.217-.514.464-1.096.247-.583.494-1.136.257-.563.484-1.037.237-.484.415-.81h1.403q.099.682.178 1.531.089.84.148 1.758.069.909.119 1.827.059.919.099 1.729h-1.501q-.03-.998-.079-2.173-.049-1.175-.148-2.371-.178.415-.395.919-.217.504-.435 1.008-.207.504-.405.968-.198.454-.336.78H32.62q-.138-.326-.336-.78-.198-.464-.415-.968-.207-.504-.425-1.008-.217-.504-.395-.919-.099 1.195-.148 2.371-.049 1.175-.079 2.173h-1.501q.04-.81.089-1.729.059-.919.119-1.827.069-.919.148-1.758.089-.849.188-1.531z" fill="#f9f9f9" stroke="#000" stroke-width=".265"/><g fill="#ececec"><path d="M-16.543 20.629l.479-2.267h.4l.219 1.851h.013l1.006-1.851h.435l-.47 2.267h-.286l.286-1.346q.044-.206.083-.375.041-.168.07-.27h-.006l-1.092 1.991h-.225l-.241-1.988h-.013q-.006.064-.022.171-.016.105-.038.225-.019.117-.041.229l-.289 1.362zm3.312.032q-.295 0-.457-.171-.159-.175-.159-.47 0-.203.057-.4.06-.2.171-.362.111-.165.267-.264.159-.098.356-.098.241 0 .362.105.124.105.124.292 0 .165-.105.302-.102.137-.321.219-.219.079-.568.079h-.054q-.003.029-.006.06 0 .032 0 .057 0 .194.095.308.095.111.289.111.121 0 .229-.035.108-.035.235-.095v.238q-.121.054-.238.089-.114.035-.276.035zm-.264-.994q.191 0 .352-.032.162-.035.26-.111.098-.079.098-.21 0-.083-.057-.133-.054-.054-.171-.054-.152 0-.295.143-.14.14-.21.397zm.371-1.003q.057-.06.121-.143.067-.083.127-.168.063-.086.108-.156h.318v.032q-.044.054-.133.146-.086.092-.184.184-.098.089-.181.146h-.175z"/><use xlink:href="#E"/><path d="M-11.272 20.629l.511-2.413h.279l-.137.625q-.019.095-.048.2-.029.102-.054.203h.016q.06-.079.143-.159.083-.079.187-.133.108-.054.244-.054.197 0 .311.111.117.108.117.324 0 .06-.01.124-.01.064-.025.137l-.222 1.035h-.279l.225-1.067q.029-.143.029-.21 0-.105-.054-.162-.051-.06-.168-.06-.108 0-.235.076-.124.073-.232.241-.105.168-.165.448l-.156.733z"/><use xlink:href="#F"/><use xlink:href="#G"/><use xlink:href="#H"/><use xlink:href="#I"/><path d="M-1.503 20.661q-.203 0-.333-.146-.127-.146-.127-.435 0-.235.057-.445.057-.213.165-.378.111-.168.264-.264.156-.095.349-.095.171 0 .273.089.105.086.156.203h.016q.016-.108.029-.206.016-.098.041-.213l.117-.556h.276l-.511 2.413H-.96l.035-.314h-.013q-.114.143-.251.244-.137.102-.314.102zm.095-.232q.105 0 .213-.076.108-.079.2-.213.092-.133.146-.305.057-.171.057-.362 0-.152-.076-.248-.073-.095-.241-.095-.127 0-.232.083-.102.079-.178.216-.076.137-.117.308-.041.171-.041.349 0 .343.27.343zm1.477-1.248l.111-.819h.305l-.238.819zm.171 1.448l1.232-2.267h.298l.279 2.267H1.77l-.086-.705H.92l-.368.705zm.816-.959h.6l-.051-.476q-.013-.121-.025-.267-.01-.146-.013-.257h-.01q-.051.121-.117.26-.067.137-.14.276zm1.226.959l.365-1.711h.248l-.035.314h.003q.06-.079.14-.159.083-.079.191-.133.108-.054.244-.054.206 0 .321.114.117.111.117.314 0 .073-.013.149-.01.076-.022.133l-.225 1.032h-.298l.229-1.07q.016-.073.022-.121.01-.051.01-.095 0-.203-.216-.203-.105 0-.229.073-.121.073-.229.238-.105.165-.165.445l-.159.733zm2.375.032q-.203 0-.333-.146-.127-.149-.127-.435 0-.238.06-.451.064-.216.175-.378.111-.165.264-.26.152-.095.337-.095.168 0 .273.089.105.089.156.206h.016l.102-.264h.213l-.362 1.702h-.222l.041-.314h-.013q-.108.14-.254.244-.146.102-.324.102zm.092-.232q.117 0 .229-.086.114-.086.206-.232.092-.146.14-.327.025-.092.032-.168.01-.079.01-.146 0-.149-.083-.244-.083-.095-.222-.095-.124 0-.229.079-.105.076-.184.213-.079.133-.124.305-.041.171-.041.359 0 .171.07.257.07.086.197.086zm1.184.2l.514-2.413h.279l-.514 2.413zm.654.762q-.076 0-.124-.009-.051-.009-.095-.022v-.225q.044.013.095.019.051.009.108.009.13 0 .219-.079.092-.079.175-.232l.111-.197-.257-1.727h.279l.111.841q.016.102.022.225.01.121.013.232.006.108.006.175h.01q.022-.051.064-.152.044-.102.095-.21.051-.108.089-.178l.495-.933h.298l-1.079 1.988q-.127.238-.27.356-.14.121-.365.121z"/><use xlink:href="#I" x="12.462"/><use xlink:href="#H" x="15.417"/><path d="M12.518 20.661q-.165 0-.292-.025-.124-.025-.235-.076v-.279q.095.051.225.092.133.041.305.041.143 0 .264-.044.121-.044.194-.137.073-.092.073-.238 0-.127-.086-.216-.083-.092-.289-.21-.121-.073-.216-.149-.092-.079-.146-.181-.051-.105-.051-.251 0-.21.102-.356.102-.149.27-.225.171-.076.375-.076.178 0 .311.035.137.035.257.098l-.108.241q-.083-.044-.206-.083-.124-.041-.254-.041-.194 0-.321.102-.124.102-.124.286 0 .095.035.162.035.064.108.117.073.051.181.117.137.083.238.162.105.079.162.184.06.105.06.26 0 .34-.229.514-.225.175-.603.175z"/><use xlink:href="#E" x="25.95"/><use xlink:href="#F" x="24.111"/><path d="M17.16 20.661q-.283 0-.457-.159-.175-.159-.175-.476 0-.229.06-.432.064-.206.178-.362.117-.156.283-.244.165-.092.368-.092.111 0 .222.022.111.022.2.06l-.079.232q-.064-.029-.152-.054-.086-.025-.187-.025-.181 0-.317.124-.137.121-.213.324-.076.203-.076.445 0 .194.098.302.102.105.276.105.111 0 .21-.032.102-.032.2-.073v.235q-.089.044-.2.073-.108.029-.238.029zm.743-.032l.511-2.413h.279l-.137.625q-.019.095-.048.2-.029.102-.054.203h.016q.06-.079.143-.159.083-.079.187-.133.108-.054.244-.054.197 0 .311.111.117.108.117.324 0 .06-.009.124-.009.064-.025.137l-.222 1.035h-.279l.225-1.067q.029-.143.029-.21 0-.105-.054-.162-.051-.06-.168-.06-.108 0-.235.076-.124.073-.232.241-.105.168-.165.448l-.156.733zm2.362.032q-.203 0-.333-.146-.127-.149-.127-.435 0-.238.06-.451.064-.216.175-.378.111-.165.264-.26.152-.095.337-.095.168 0 .273.089.105.089.156.206h.016l.102-.264h.213l-.362 1.702h-.222l.041-.314h-.013q-.108.14-.254.244-.146.102-.324.102zm.092-.232q.117 0 .229-.086.114-.086.206-.232.092-.146.14-.327.025-.092.032-.168.009-.079.009-.146 0-.149-.083-.244-.083-.095-.222-.095-.124 0-.229.079-.105.076-.184.213-.079.133-.124.305-.041.171-.041.359 0 .171.07.257.07.086.197.086z"/><use xlink:href="#I" x="25.768"/><use xlink:href="#E" x="35.243"/><use xlink:href="#J"/><use xlink:href="#K"/><use xlink:href="#L"/><use xlink:href="#H" x="34.274"/><path d="M30.717 21.391l.521-2.464h.229l-.038.317h.013q.111-.14.251-.241.14-.105.318-.105.206 0 .333.146.127.146.127.435 0 .232-.057.445-.057.213-.165.381-.108.165-.264.26-.152.095-.343.095-.171 0-.276-.086-.105-.089-.159-.206h-.016q-.003.051-.016.143-.013.089-.025.146l-.156.733zm.902-.962q.127 0 .232-.079.105-.083.178-.219.076-.137.114-.308.041-.171.041-.349 0-.343-.27-.343-.105 0-.216.079-.108.076-.2.21-.092.133-.149.305-.054.171-.054.362 0 .152.079.248.079.095.244.095z"/><use xlink:href="#F" x="42.148"/><path d="M35.013 20.661q-.194 0-.311-.108-.114-.108-.114-.314 0-.073.01-.137.013-.067.025-.137l.222-1.038h.283l-.229 1.07q-.029.137-.029.213 0 .102.051.162.054.057.171.057.108 0 .232-.076.127-.076.235-.244.108-.168.168-.448l.156-.733h.276l-.362 1.702h-.229l.035-.314h-.016q-.06.076-.143.159-.079.079-.187.133-.105.054-.244.054z"/><use xlink:href="#M"/><path d="M-16.584 24.598l.514-2.413h.279l-.514 2.413z"/><use xlink:href="#H" x="-9.954" y="3.968"/><use xlink:href="#I" x="-9.954" y="3.968"/><path d="M-11.034 24.629q-.378 0-.594-.232-.213-.232-.213-.635 0-.203.048-.413.048-.21.143-.397.098-.187.244-.333.149-.149.346-.235.197-.086.444-.086.318 0 .552.127l-.114.235q-.086-.044-.194-.076-.105-.035-.244-.035-.238 0-.413.108-.171.105-.286.283-.114.175-.171.387-.054.213-.054.429 0 .289.146.457.149.165.41.165.13 0 .254-.025.127-.025.248-.067v.248q-.124.044-.251.07-.124.025-.302.025z"/><use xlink:href="#F" x="-0.683" y="3.969"/><use xlink:href="#G" x="-0.683" y="3.968"/><use xlink:href="#H" x="-0.683" y="3.968"/><use xlink:href="#I" x="-0.683" y="3.968"/><use xlink:href="#H" x="3.098" y="3.968"/><use xlink:href="#N"/><path d="M1.149 24.598l.425-2.016H.952l.054-.251h1.53l-.051.251h-.622l-.429 2.016z"/><use xlink:href="#M" x="-33.994" y="3.969"/><path d="M4.07 24.629q-.203 0-.333-.146-.127-.149-.127-.435 0-.238.06-.451.063-.216.175-.378.111-.165.264-.26.152-.095.337-.095.168 0 .273.089.105.089.156.206h.016l.102-.264h.213l-.362 1.702h-.222l.041-.314h-.013q-.108.14-.254.244-.146.102-.324.102zm.092-.232q.117 0 .229-.086.114-.086.206-.232.092-.146.14-.327.025-.092.032-.168.01-.079.01-.146 0-.149-.083-.244-.083-.095-.222-.095-.124 0-.229.079-.105.076-.184.213-.079.133-.124.305-.041.171-.041.359 0 .171.07.257.07.086.197.086z"/><use xlink:href="#J" x="-18.622" y="3.968"/><use xlink:href="#N" x="7.293"/><use xlink:href="#H" x="13.03" y="3.968"/><path d="M8.807 24.598l.362-1.702h.229l-.035.314h.016q.057-.079.133-.159.079-.079.181-.133.105-.054.235-.054.175 0 .267.102.095.098.114.276h.013q.063-.095.149-.181.089-.086.197-.14.108-.057.238-.057.197 0 .305.108.108.108.108.311 0 .076-.009.143-.009.064-.025.137l-.219 1.035h-.283l.229-1.067q.016-.073.022-.124.006-.051.006-.098 0-.095-.054-.152-.051-.057-.162-.057-.102 0-.219.076-.114.076-.216.238-.098.159-.152.416l-.162.768h-.279l.225-1.067q.029-.143.029-.21 0-.105-.048-.162-.048-.06-.159-.06-.102 0-.219.076-.117.073-.219.241-.102.168-.162.448l-.156.733z"/><use xlink:href="#H" x="17.392" y="3.968"/><path d="M13.156 24.598l.365-1.711h.248l-.035.314h.003q.06-.079.14-.159.083-.079.191-.133.108-.054.244-.054.206 0 .321.114.117.111.117.314 0 .073-.013.149-.009.076-.022.133l-.225 1.032h-.298l.229-1.07q.016-.073.022-.121.009-.051.009-.095 0-.203-.216-.203-.105 0-.229.073-.121.073-.229.238-.105.165-.165.445l-.159.733z"/><use xlink:href="#E" x="27.334" y="3.968"/><use xlink:href="#I" x="20.285" y="3.968"/><path d="M18.297 24.598l.479-2.267h.302l.695 1.873h.009q.016-.114.044-.289.032-.178.067-.337l.267-1.248h.27l-.479 2.267h-.302l-.702-1.88h-.009q-.006.067-.025.175-.016.108-.041.232-.022.124-.048.241l-.26 1.232z"/><use xlink:href="#L" x="-6.124" y="3.968"/><path d="M22.342 24.598l.362-1.702h.229l-.035.314h.016q.057-.079.133-.159.079-.079.181-.133.105-.054.235-.054.175 0 .267.102.095.098.114.276h.013q.064-.095.149-.181.089-.086.197-.14.108-.057.238-.057.197 0 .305.108.108.108.108.311 0 .076-.009.143-.009.064-.025.137l-.219 1.035h-.283l.229-1.067q.016-.073.022-.124.006-.051.006-.098 0-.095-.054-.152-.051-.057-.162-.057-.102 0-.219.076-.114.076-.216.238-.098.159-.152.416l-.162.768h-.279l.225-1.067q.029-.143.029-.21 0-.105-.048-.162-.048-.06-.159-.06-.102 0-.219.076-.117.073-.219.241-.102.168-.162.448l-.156.733zm3.457.031q-.295 0-.457-.171-.159-.175-.159-.47 0-.203.057-.4.06-.2.171-.362.111-.165.267-.264.159-.098.356-.098.241 0 .362.105.124.105.124.292 0 .165-.105.302-.102.137-.321.219-.219.079-.568.079h-.054q-.003.029-.006.06 0 .032 0 .057 0 .194.095.308.095.111.289.111.121 0 .229-.035.108-.035.235-.095v.238q-.121.054-.238.089-.114.035-.276.035zm-.264-.994q.191 0 .352-.032.162-.035.26-.111.098-.079.098-.21 0-.083-.057-.133-.054-.054-.171-.054-.152 0-.295.143-.14.14-.21.397zm.371-1.003q.057-.06.121-.143.067-.083.127-.168.064-.086.108-.156h.317v.032q-.044.054-.133.146-.086.092-.184.184-.098.089-.181.146h-.175z"/><use xlink:href="#M" x="-9.636" y="3.969"/><use xlink:href="#J" x="3.997" y="3.968"/><use xlink:href="#K" x="3.998" y="3.969"/><use xlink:href="#L" x="3.997" y="3.968"/><use xlink:href="#H" x="38.271" y="3.968"/><use xlink:href="#I" x="38.271" y="3.968"/></g></g><defs ><path id="C" d="M-21.565 5.995l.532-2.504h.514l-.046.463h.023q.151-.238.344-.371.193-.138.436-.138.055 0 .115.009.064.005.101.014l-.147.651q-.037-.014-.096-.023-.06-.014-.128-.014-.252 0-.454.202-.197.197-.28.592l-.238 1.119z"/><path id="D" d="M16.426 6.041q-.257 0-.472-.092-.211-.096-.335-.298-.124-.202-.124-.532 0-.339.087-.637.087-.303.257-.537.17-.234.417-.367.248-.133.564-.133.225 0 .399.041.179.041.335.119l-.206.514q-.119-.05-.238-.087-.115-.041-.261-.041-.211 0-.362.161-.151.156-.229.404-.078.243-.078.509 0 .211.101.321.101.11.284.11.17 0 .312-.05.147-.055.303-.133v.55q-.156.083-.339.133-.179.046-.413.046z"/><path id="E" d="M-11.828 20.661q-.171 0-.289-.083-.117-.083-.117-.289 0-.102.029-.225l.194-.924h-.264l.025-.127.286-.121.197-.352h.165l-.086.387h.429l-.044.213h-.425l-.197.927q-.009.041-.019.095-.009.051-.009.095 0 .073.038.124.041.051.13.051.057 0 .111-.009.054-.013.114-.032v.213q-.038.019-.117.038-.079.019-.149.019z"/><path id="F" d="M-8.735 20.654q-.295 0-.467-.175-.168-.178-.168-.479 0-.197.054-.391.054-.194.159-.352.108-.159.267-.254.162-.098.371-.098.298 0 .467.178.168.175.168.479 0 .194-.054.387-.054.194-.162.352-.105.159-.264.257-.159.095-.371.095zm.016-.232q.152 0 .276-.105.124-.108.197-.308.076-.2.076-.479 0-.095-.035-.184-.032-.092-.108-.149-.076-.06-.203-.06-.175 0-.305.121-.127.117-.197.317-.07.197-.07.435 0 .197.095.305.098.108.273.108z"/><path id="G" d="M-7.122 20.661q-.203 0-.333-.146-.127-.146-.127-.435 0-.235.057-.445.057-.213.165-.378.111-.168.264-.264.156-.095.349-.095.171 0 .273.089.105.086.156.203h.016q.016-.108.029-.206.016-.098.041-.213l.117-.556h.276l-.511 2.413h-.229l.035-.314h-.013q-.114.143-.251.244-.137.102-.314.102zm.095-.232q.105 0 .213-.076.108-.079.2-.213.092-.133.146-.305.057-.171.057-.362 0-.152-.076-.248-.073-.095-.241-.095-.127 0-.232.083-.102.079-.178.216-.076.137-.117.308-.041.171-.041.349 0 .343.27.343z"/><path id="H" d="M-5.128 20.661q-.295 0-.457-.171-.159-.175-.159-.47 0-.203.057-.4.06-.2.171-.362.111-.165.267-.264.159-.098.356-.098.241 0 .362.105.124.105.124.292 0 .165-.105.302-.102.137-.321.219-.219.079-.568.079h-.054q-.003.029-.006.06 0 .032 0 .057 0 .194.095.308.095.111.289.111.121 0 .229-.035.108-.035.235-.095v.238q-.121.054-.238.089-.114.035-.276.035zm-.264-.994q.191 0 .352-.032.162-.035.26-.111.098-.079.098-.21 0-.083-.057-.133-.054-.054-.171-.054-.152 0-.295.143-.14.14-.21.397z"/><path id="I" d="M-3.82 20.661q-.156 0-.273-.032-.114-.029-.203-.076v-.257q.083.051.206.095.127.041.26.041.187 0 .286-.073.098-.076.098-.194 0-.092-.06-.152-.06-.064-.225-.156-.181-.102-.273-.21-.092-.108-.092-.27 0-.216.156-.349.159-.133.422-.133.156 0 .286.038.133.035.229.079l-.089.222q-.083-.038-.184-.07-.102-.035-.241-.035-.137 0-.219.067-.079.064-.079.165 0 .083.054.146.057.06.225.152.108.064.194.127.086.064.133.146.051.083.051.203 0 .257-.181.391-.178.133-.479.133z"/><path id="J" d="M24.558 18.645q-.067 0-.111-.038-.041-.041-.041-.111 0-.083.048-.143.051-.06.14-.06.146 0 .146.143 0 .098-.057.156-.057.054-.124.054zm-.587 1.984l.362-1.702h.279l-.362 1.702z"/><path id="K" d="M25.799 20.667q.016-.06.041-.165.029-.108.051-.187h-.013q-.108.14-.248.244-.137.102-.314.102-.206 0-.337-.146-.127-.146-.127-.435 0-.232.057-.445.057-.213.165-.378.111-.168.267-.264.156-.098.349-.098.168 0 .27.089.105.089.156.206h.016l.105-.264h.21l-.524 2.464h-.276zm-.391-.238q.105 0 .213-.079.108-.079.197-.213.092-.137.146-.308.057-.171.057-.356 0-.14-.073-.241-.073-.102-.238-.102-.127 0-.232.083-.105.079-.181.216-.076.137-.117.308-.041.171-.041.349 0 .343.27.343z"/><path id="L" d="M27.139 20.661q-.194 0-.311-.108-.114-.108-.114-.314 0-.073.009-.137.013-.067.025-.137l.222-1.038h.283l-.229 1.07q-.029.137-.029.213 0 .102.051.162.054.057.171.057.108 0 .232-.076.127-.076.235-.244.108-.168.168-.448l.156-.733h.276l-.362 1.702h-.229l.035-.314h-.016q-.06.076-.143.159-.079.079-.187.133-.105.054-.244.054z"/><path id="M" d="M36.34 20.629l.362-1.702h.229l-.035.314h.016q.067-.089.14-.165.073-.079.165-.13.092-.051.213-.051.044 0 .092.006.051.003.092.016l-.06.251q-.086-.019-.162-.019-.159 0-.283.105-.124.105-.206.267-.083.162-.117.33l-.165.778z"/><path id="N" d="M-.626 24.629q-.171 0-.289-.083-.117-.083-.117-.289 0-.102.029-.225l.194-.924h-.264l.025-.127.286-.121.197-.352h.165l-.086.387h.429l-.044.213h-.425l-.197.927q-.01.041-.019.095-.01.051-.01.095 0 .073.038.124.041.051.13.051.057 0 .111-.009.054-.013.114-.032v.213q-.038.019-.117.038-.079.019-.149.019z"/></defs></svg>